<?xml version="1.0" encoding="iso-8859-1"?>
<!-- Generator: Adobe Illustrator 19.0.0, SVG Export Plug-In . SVG Version: 6.00 Build 0)  -->
<svg version="1.1" id="Layer_1" xmlns="http://www.w3.org/2000/svg" xmlns:xlink="http://www.w3.org/1999/xlink" x="0px" y="0px"
	 viewBox="0 0 512 512" style="enable-background:new 0 0 512 512;" xml:space="preserve">
<path style="fill:#FF8C78;" d="M72,190C32,230,8,263,8,350c0,83.947,111.033,128,248,128c136.966,0,248-44.053,248-128
	c0-87-24-120-64-160H72z"/>
<path style="fill:#6B676E;" d="M256,37C137,37,66.64,116,66.64,164S92.183,219.401,96,260c3.193,33.962,24.925,61.861,72,76l88-8
	l84.741,2.609C381.838,334.337,408.11,308,416,260c6.614-40.237,29.36-48,29.36-96S368,37,256,37z"/>
<path style="fill:#464655;" d="M360,197.57c-40,25.715-88-8.571-104-8.571s-64,34.286-104,8.571
	c-32.611-20.964-75.832-36.199-86.36-8.609c4.471,33.004,20.854,52.58,33.36,85.753c18.087,47.973,37.573,57.063,70.67,56.007
	L256,339l86.33-8.279C384,334.714,405,326.143,413,274.714c5.449-35.031,28.889-52.749,33.36-85.753
	C435.832,161.371,392.611,176.606,360,197.57z"/>
<g>
	<ellipse style="fill:#6B676E;" cx="128" cy="252" rx="32" ry="40"/>
	<ellipse style="fill:#6B676E;" cx="384" cy="252" rx="32" ry="40"/>
	<path style="fill:#6B676E;" d="M344,347c0,57.438-43.817,80-88,80s-88-22.563-88-80s43.817-128,88-128S344,289.563,344,347z"/>
</g>
<path style="fill:#464655;" d="M344,348.333c0-6.447-0.627-13.068-1.67-19.728c-17.517-5.543-44.464-7.956-51.309,3.728
	c-9.303,15.879-26.266,40-35.021,40s-25.719-24.121-35.021-40c-6.845-11.684-33.792-9.271-51.31-3.728
	c-1.042,6.659-1.67,13.28-1.67,19.728c0,57.438,43.817,80,88,80S344,405.771,344,348.333z"/>
<path d="M455.727,192.422c0.166-1.446,0.273-2.914,0.273-4.422c0-43.097-21.049-83.494-59.27-113.753
	C359.059,44.424,309.08,28,256,28S152.941,44.424,115.27,74.247C77.049,104.506,56,144.903,56,188c0,1.508,0.108,2.976,0.273,4.422
	C17.174,231.86,0,259.627,0,348c0,42.987,26.688,78.498,77.18,102.694C122.648,472.483,184.483,484,256,484
	s133.352-11.517,178.82-33.306C485.312,426.498,512,390.987,512,348C512,259.627,494.827,231.86,455.727,192.422z M256,44
	c101.458,0,184,64.598,184,144c0,9.7-6.317,18.481-13.631,28.649C417.759,228.618,408,242.184,408,260
	c0,34.593-18.904,45.384-38.919,56.81c-6.354,3.628-12.814,7.325-18.544,11.824c-3.506-24.013-13.168-49.306-27.303-70.598
	C303.811,228.779,279.306,212,256,212s-47.811,16.779-67.233,46.036c-14.135,21.292-23.797,46.585-27.303,70.598
	c-5.73-4.499-12.19-8.196-18.544-11.824C122.904,305.384,104,294.593,104,260c0-17.816-9.759-31.382-18.369-43.351
	C78.317,206.481,72,197.7,72,188C72,108.598,154.542,44,256,44z M216.947,335.775c2.464,4.603,9.034,16.44,16.813,26.941
	C242.733,374.831,249.385,380,256,380c6.615,0,13.267-5.169,22.241-17.283c7.779-10.501,14.349-22.339,16.813-26.941
	c3.258-6.087,24.905-5.264,40.42,1.254c0.344,3.677,0.526,7.34,0.526,10.971c0,0.01,0,0.021,0,0.031s0,0.021,0,0.033
	C335.965,401.101,294.659,420,256,420s-79.965-18.899-79.999-71.936c0-0.012,0-0.022,0-0.033s0-0.021,0-0.031
	c0-3.631,0.182-7.294,0.526-10.971C192.041,330.51,213.688,329.687,216.947,335.775z M179.438,319.182
	C190.289,272.105,224.948,228,256,228s65.71,44.105,76.562,91.181c-18.087-5.081-43.352-6.394-51.615,9.044
	c-9.738,18.191-20.274,32.292-24.947,35.403c-4.672-3.111-15.209-17.212-24.947-35.403
	C222.79,312.788,197.526,314.1,179.438,319.182z M427.905,436.266C385.202,456.729,324.151,468,256,468
	s-129.202-11.271-171.905-31.734C53.03,421.38,16,393.982,16,348c0-78.826,12.75-103.958,45.91-138.455
	c3.051,5.748,6.917,11.143,10.733,16.448C80.541,236.972,88,247.341,88,260c0,43.882,26.053,58.755,46.987,70.705
	c10.677,6.095,19.984,11.41,25.038,19.482c0.522,27.854,11.036,50.525,30.494,65.665C207.217,428.845,230.472,436,256,436
	s48.783-7.155,65.481-20.147c19.458-15.14,29.972-37.812,30.494-65.665c5.054-8.072,14.361-13.388,25.038-19.482
	C397.947,318.755,424,303.882,424,260c0-12.659,7.459-23.028,15.357-34.007c3.816-5.306,7.683-10.7,10.733-16.448
	C483.25,244.042,496,269.174,496,348C496,393.982,458.97,421.38,427.905,436.266z"/>
<path d="M384,284c9.271,0,16-10.094,16-24s-6.729-24-16-24s-16,10.094-16,24S374.729,284,384,284z"/>
<path d="M128,284c9.271,0,16-10.094,16-24s-6.729-24-16-24s-16,10.094-16,24S118.729,284,128,284z"/>
<g>
</g>
<g>
</g>
<g>
</g>
<g>
</g>
<g>
</g>
<g>
</g>
<g>
</g>
<g>
</g>
<g>
</g>
<g>
</g>
<g>
</g>
<g>
</g>
<g>
</g>
<g>
</g>
<g>
</g>
</svg>
