<?xml version="1.0" encoding="iso-8859-1"?>
<!-- Generator: Adobe Illustrator 19.0.0, SVG Export Plug-In . SVG Version: 6.00 Build 0)  -->
<svg version="1.1" id="Layer_1" xmlns="http://www.w3.org/2000/svg" xmlns:xlink="http://www.w3.org/1999/xlink" x="0px" y="0px"
	 viewBox="0 0 512 512" style="enable-background:new 0 0 512 512;" xml:space="preserve">
<path style="fill:#BBA386;" d="M472,190.566C472,114.038,375.293,52,256,52S40,114.038,40,190.566c0,13.014-32,61.584-32,119.32
	C8,392.792,119.033,460,256,460s248-67.208,248-150.113C504,252.15,472,203.58,472,190.566z"/>
<path style="fill:#595966;" d="M461.076,152.044H55.255c-40.648,81.296-21.546,162.542,70.292,152.479
	c17.878-1.959,32.593,12.571,31.403,30.517c-0.159,2.39-0.239,4.802-0.239,7.234c0,58.366,45.423,105.682,101.456,105.682
	c56.032,0,101.455-47.315,101.455-105.682c0-2.433-0.081-4.845-0.239-7.233c-1.19-17.945,13.524-32.477,31.402-30.518
	C482.623,314.586,501.725,233.341,461.076,152.044z"/>
<path style="fill:#9F8976;" d="M257,54C177,54,57,89.557,57,162c0,32,23,49,39,49c80,0,89,39,161,39s82-41,162-41c16,0,38-15,38-47
	C457,89.557,337,54,257,54z"/>
<path style="fill:#BBA386;" d="M328,322c-9.333,48-54.667,48-72,48s-62.667,0-72-48c0-51.272,56.4-88,72-88S328,270.728,328,322z"/>
<path style="fill:#9F8976;" d="M255,374.333c15.648,0,56.574,0,65-51.333c-6.438,0-15.622,0-28.889,0
	c-23.923,0-23.021,17.111-36.111,17.111c-13.091,0-12.188-17.111-36.111-17.111c0,0-6.22,0-28.889,0
	C198.426,374.333,239.352,374.333,255,374.333z"/>
<path d="M487.187,210.204c-3.366-7.992-7.181-17.052-7.187-19.638c0-39.832-23.775-77.021-66.945-104.715
	C370.984,58.863,315.208,44,256,44S141.016,58.863,98.945,85.852C55.775,113.546,32,150.734,32,190.566
	c-0.005,2.586-3.821,11.646-7.187,19.638C14.932,233.666,0,269.122,0,309.887c0,43.005,27.167,83.132,76.495,112.99
	C124.567,451.975,188.317,468,256,468s131.433-16.025,179.505-45.123C484.833,393.019,512,352.892,512,309.887
	C512,269.122,497.068,233.666,487.187,210.204z M427.22,409.188C381.611,436.796,320.804,452,256,452s-125.611-15.204-171.22-42.812
	C40.427,382.342,16,347.076,16,309.887c0-37.533,14.178-71.196,23.559-93.473C44.642,204.345,48,196.372,48,190.566
	c0-6.21,0.707-12.359,2.08-18.415c1.574,9.214,4.771,17.967,9.588,25.321c11.351,17.331,30.285,25.311,53.313,22.467
	c14.404-1.774,25.487,0.661,32.94,7.25C158.4,238.223,160,259.07,160,276c0,4.418,3.582,8,8,8s8-3.582,8-8
	c0-20.287-2.214-45.53-19.481-60.797c-11.038-9.76-26.349-13.51-45.499-11.143c-17.138,2.114-29.91-3.051-37.967-15.354
	c-10.321-15.759-10.745-42.063-0.946-58.636c0.169-0.285,0.311-0.578,0.44-0.874c9.245-10.802,20.98-20.861,35.038-29.879
	C147.108,73.964,199.817,60,256,60s108.892,13.964,148.416,39.318c14.057,9.018,25.792,19.077,35.038,29.879
	c0.129,0.296,0.271,0.589,0.44,0.874c9.799,16.573,9.375,42.877-0.946,58.636c-8.058,12.304-20.831,17.471-37.967,15.354
	c-19.155-2.363-34.462,1.384-45.499,11.143C338.214,230.47,336,255.713,336,276c0,4.418,3.582,8,8,8s8-3.582,8-8
	c0-16.93,1.6-37.777,14.08-48.811c7.453-6.589,18.532-9.026,32.94-7.25c23.027,2.844,41.962-5.136,53.313-22.467
	c4.817-7.354,8.014-16.107,9.588-25.321c1.373,6.056,2.08,12.205,2.08,18.415c0,5.806,3.358,13.778,8.441,25.848
	c9.38,22.276,23.558,55.94,23.558,93.473C496,347.076,471.573,382.342,427.22,409.188z"/>
<path d="M128,236c-9.271,0-16,10.094-16,24s6.729,24,16,24s16-10.094,16-24S137.271,236,128,236z"/>
<path d="M384,236c-9.271,0-16,10.094-16,24s6.729,24,16,24s16-10.094,16-24S393.271,236,384,236z"/>
<path d="M344,316h-8.431c-2.254-21.438-13.463-42.818-32.145-60.966C287.298,239.37,267.354,228,256,228
	s-31.298,11.37-47.424,27.034c-18.682,18.147-29.891,39.527-32.145,60.966H168c-4.418,0-8,3.582-8,8s3.582,8,8,8h17.517
	c11.969,47.992,55.693,48,70.483,48s58.514-0.008,70.483-48H344c4.418,0,8-3.582,8-8S348.418,316,344,316z M219.724,266.511
	C235.154,251.522,251.298,244,256,244s20.846,7.522,36.276,22.511c9.291,9.025,24.222,26.738,27.192,49.489H296
	c-18.2,0-26.073,6.772-31.822,11.717C260.478,330.9,259.044,332,256,332s-4.478-1.101-8.178-4.283
	C242.073,322.772,234.2,316,216,316h-23.468C195.502,293.249,210.434,275.536,219.724,266.511z M256,364
	c-21.964,0-45.069-4.046-53.876-32H216c12.265,0,16.697,3.812,21.389,7.848C241.612,343.479,246.868,348,256,348
	c9.132,0,14.388-4.521,18.611-8.152C279.303,335.812,283.735,332,296,332h13.876C301.069,359.954,277.964,364,256,364z"/>
<g>
</g>
<g>
</g>
<g>
</g>
<g>
</g>
<g>
</g>
<g>
</g>
<g>
</g>
<g>
</g>
<g>
</g>
<g>
</g>
<g>
</g>
<g>
</g>
<g>
</g>
<g>
</g>
<g>
</g>
</svg>
