<?xml version="1.0" encoding="iso-8859-1"?>
<!-- Generator: Adobe Illustrator 19.0.0, SVG Export Plug-In . SVG Version: 6.00 Build 0)  -->
<svg version="1.1" id="Layer_1" xmlns="http://www.w3.org/2000/svg" xmlns:xlink="http://www.w3.org/1999/xlink" x="0px" y="0px"
	 viewBox="0 0 512 512" style="enable-background:new 0 0 512 512;" xml:space="preserve">
<path style="fill:#9F8976;" d="M335.998,88.569c0-0.188,0.002-0.381,0.002-0.569c0-0.001,0-0.003,0-0.005
	c0-1.056-0.028-2.131-0.081-3.22c-0.173-4.354-0.677-8.624-1.519-12.772h-0.205C327.68,42.119,303.214,8,256,8
	c-47.212,0-71.679,34.118-78.195,64.001H177.6c-0.842,4.151-1.347,8.423-1.519,12.78c-0.053,1.081-0.08,2.147-0.081,3.196
	c0,0.007,0,0.015,0,0.022c0,105,24,288,48,384c4.286,17.146,14.327,32,32,32s27.798-14.833,32-32
	c0.001-0.004,0.002-0.008,0.003-0.012C311.959,376.156,335.913,193.654,335.998,88.569z"/>
<g>
	<circle style="fill:#BEA591;" cx="190.5" cy="41.5" r="24.5"/>
	<circle style="fill:#BEA591;" cx="319.5" cy="42.5" r="24.5"/>
</g>
<path style="fill:#74666B;" d="M289.003,469c0,15.385-22.067,35-33.003,35s-33.003-19.615-33.003-35s14.776-30,33.003-30
	S289.003,453.615,289.003,469z"/>
<path d="M342.127,69.969C348.205,63.413,352,54.198,352,44c0-19.851-14.355-36-32-36c-6.267,0-12.114,2.045-17.056,5.562
	C288.898,4.684,272.733,0,256,0c-16.762,0-32.896,4.685-46.939,13.565C204.118,10.047,198.27,8,192,8c-17.645,0-32,16.149-32,36
	c0,10.198,3.795,19.413,9.873,25.969c-0.039,0.146-0.083,0.29-0.113,0.44C168.592,76.163,168,82.081,168,88
	c0,101.002,22.992,284.954,48.239,385.94C222.285,498.128,236.778,512,256,512c19.348,0,33.844-13.886,39.771-38.098
	C318.537,380.898,344,196.104,344,88c0-5.917-0.592-11.834-1.759-17.588C342.21,70.261,342.166,70.116,342.127,69.969z M256,496
	c-15.193,0-21.602-15.716-24.113-25.451c2.757,0.951,5.526,1.412,7.988,1.45c0.042,0,0.085,0.001,0.127,0.001
	c4.36,0,7.928-3.5,7.997-7.875c0.069-4.418-3.457-8.055-7.874-8.124c-1.213-0.019-4.167-0.303-6.159-2.383
	C237.298,451.127,244.82,448,256,448c11.174,0,18.694,3.125,22.029,5.614c-1.778,1.836-4.389,2.314-6.245,2.389l0.091-0.002
	c0,0-6.875,1.123-6.875,7.999c0,6,4.469,7.654,7.125,7.999c2.404,0.312,5.117,0.039,7.829-0.819C277.39,480.932,270.999,496,256,496
	z M287.008,440.073c-0.153,0.019-0.305,0.028-0.459,0.055c-0.018,0.003-0.034,0.008-0.051,0.011
	C279.276,435.097,268.482,432,256,432c-12.487,0-23.284,3.099-30.505,8.145c-0.217-0.041-0.436-0.077-0.659-0.101
	C202.713,336.79,184,178.639,184,88c0-3.01,0.209-6.014,0.578-8.988C186.962,79.651,189.445,80,192,80c4.418,0,8-3.582,8-8
	s-3.582-8-8-8c-8.822,0-16-8.972-16-20s7.178-20,16-20s16,8.972,16,20c0,4.418,3.582,8,8,8s8-3.582,8-8
	c0-6.614-1.601-12.813-4.379-18.144C230.622,19.395,243.082,16,256,16c12.896,0,25.373,3.401,36.376,9.86
	C289.6,31.191,288,37.388,288,44c0,4.418,3.582,8,8,8s8-3.582,8-8c0-11.028,7.178-20,16-20s16,8.972,16,20s-7.178,20-16,20
	c-4.418,0-8,3.582-8,8s3.582,8,8,8c2.555,0,5.038-0.349,7.421-0.988C327.791,81.986,328,84.991,328,88
	C328,184.359,307.546,342.327,287.008,440.073z"/>
<path d="M216,128c-8.822,0-16,7.178-16,16s7.178,16,16,16s16-7.178,16-16S224.822,128,216,128z"/>
<path d="M296,128c-8.822,0-16,7.178-16,16s7.178,16,16,16s16-7.178,16-16S304.822,128,296,128z"/>
<g>
</g>
<g>
</g>
<g>
</g>
<g>
</g>
<g>
</g>
<g>
</g>
<g>
</g>
<g>
</g>
<g>
</g>
<g>
</g>
<g>
</g>
<g>
</g>
<g>
</g>
<g>
</g>
<g>
</g>
</svg>
