<?xml version="1.0" encoding="iso-8859-1"?>
<!-- Generator: Adobe Illustrator 19.0.0, SVG Export Plug-In . SVG Version: 6.00 Build 0)  -->
<svg version="1.1" id="Layer_1" xmlns="http://www.w3.org/2000/svg" xmlns:xlink="http://www.w3.org/1999/xlink" x="0px" y="0px"
	 viewBox="0 0 512 512" style="enable-background:new 0 0 512 512;" xml:space="preserve">
<g>
	<path style="fill:#F0EBE1;" d="M476.928,233.142l-4.534-3.406l3.144-4.718c1.071-1.608,2.007-3.287,2.814-5.018H255.999H33.645
		c0.807,1.73,1.743,3.409,2.814,5.018l3.144,4.718l-4.534,3.406c-16.521,12.409-26.094,29.394-28.453,50.48
		c-2.17,19.398,1.834,39.183,5.052,55.083c3.211,15.866,4.515,23.848,2.599,28.477c-0.256,0.617-0.187,1.318,0.186,1.876
		c0.372,0.556,0.993,0.888,1.662,0.888h29.208l-7.118,21.355c-0.231,0.691-0.061,1.456,0.444,1.997
		c0.376,0.402,0.909,0.634,1.463,0.634c0.168,0,0.336-0.021,0.535-0.073c0.461-0.117,11.484-2.869,27.373-2.869
		c7.127,0,14.195,0.555,21.007,1.649l5.048,0.811v14.477c0,1.103,0.897,2,2,2c29.227,0,54.267,15.97,76.357,30.06l2.529,1.611
		c0.406,0.259,0.806,0.313,1.07,0.313c0.33,0,0.961-0.084,1.478-0.647c1.203-1.312,2.575-2.775,3.788-4.039l2.917-3.039
		l70.977,31.545c0.052,0.023,0.105,0.042,0.144,0.054l0.145,0.038c0.067,0.019,0.134,0.033,0.255,0.055
		c0.087,0.012,0.174,0.024,0.263,0.025H256c0.086-0.001,0.172-0.014,0.196-0.017l0.119-0.02c0.068-0.011,0.135-0.026,0.211-0.047
		l0.124-0.032c0.052-0.017,0.105-0.035,0.159-0.059l70.971-31.543l2.917,3.039c1.212,1.264,2.585,2.728,3.787,4.039
		c0.517,0.563,1.148,0.647,1.478,0.647c0.384,0,0.745-0.104,1.067-0.31l2.531-1.613c22.093-14.091,47.133-30.061,76.359-30.061
		c1.103,0,2-0.897,2-2v-14.477l5.048-0.811c6.814-1.095,13.884-1.65,21.014-1.65c16.224,0,27.285,2.849,27.406,2.88
		c0.165,0.044,0.335,0.066,0.505,0.066c0.55,0,1.082-0.231,1.459-0.634c0.502-0.536,0.67-1.302,0.438-2l-7.118-21.355h29.208
		c0.669,0,1.291-0.332,1.663-0.889s0.441-1.258,0.186-1.876c-1.916-4.628-0.612-12.609,2.6-28.479
		c3.217-15.896,7.222-35.681,5.051-55.079C503.022,262.535,493.449,245.551,476.928,233.142z"/>
	<path style="fill:#F0EBE1;" d="M478.352,220c2.322-4.981,3.537-10.411,3.537-15.975c0-4.058-0.651-8.074-1.935-11.938l-1.627-4.9
		l4.603-2.34c6.899-3.508,22.947-14.504,22.947-40.792c0-0.809-0.394-1.832-2.266-2.111c-0.388-0.058-0.96-0.127-1.691-0.207
		c-1.406-0.153-3.438-0.353-5.944-0.596c-9.175-0.893-24.531-2.388-38.745-4.603c-7.44-1.16-13.739-2.396-18.721-3.676
		l-10.718-2.753l8.155-7.48c6.185-5.673,5.996-10.223,5.954-10.725c-0.078-0.939-0.813-1.704-1.741-1.818
		c-0.428-0.053-43.304-5.521-87.184-31.718c-18.889-11.276-54.048-32.267-96.978-32.267c-42.928,0-78.088,20.99-96.979,32.267
		c-43.737,26.111-86.744,31.663-87.176,31.717c-0.935,0.115-1.67,0.88-1.749,1.821c-0.042,0.5-0.23,5.05,5.955,10.723l8.155,7.48
		l-10.718,2.753c-4.982,1.279-11.281,2.516-18.721,3.676c-14.213,2.215-29.57,3.71-38.747,4.603
		c-2.504,0.243-4.536,0.442-5.937,0.595c-0.736,0.081-1.308,0.15-1.694,0.208c-1.875,0.279-2.268,1.303-2.268,2.111
		c0,26.288,16.048,37.284,22.947,40.792l4.603,2.34l-1.627,4.9c-1.284,3.864-1.935,7.881-1.935,11.938
		c0,5.563,1.215,10.993,3.537,15.975h222.354L478.352,220L478.352,220z"/>
</g>
<g>
	<path style="fill:#E6E1D7;" d="M75.999,172c28,0,92,24,92,80c0,50.597-88,48-112-16C50.113,220.305,59.236,172,75.999,172z"/>
	<path style="fill:#E6E1D7;" d="M435.999,172c-28,0-92,24-92,80c0,50.597,88,48,112-16C461.885,220.305,452.762,172,435.999,172z"/>
</g>
<circle style="fill:#74666B;" cx="67.998" cy="208" r="36"/>
<circle style="fill:#464655;" cx="67.998" cy="204" r="20"/>
<circle style="fill:#74666B;" cx="443.998" cy="208" r="36"/>
<circle style="fill:#464655;" cx="443.998" cy="204" r="20"/>
<path style="fill:#E6E1D7;" d="M255.999,356.773c-45.214,0-111.277-15.73-168.736,35.619c0.587,0.086,1.183,0.152,1.766,0.246
	l5.048,0.811v14.477c0,1.103,0.897,2,2,2c29.227,0,54.267,15.97,76.357,30.06l2.529,1.611c0.406,0.259,0.806,0.313,1.07,0.313
	c0.33,0,0.961-0.084,1.478-0.647c1.203-1.312,2.575-2.775,3.788-4.039l2.917-3.039l70.977,31.545
	c0.052,0.023,0.105,0.042,0.144,0.054l0.145,0.038c0.067,0.019,0.134,0.033,0.255,0.055c0.087,0.012,0.174,0.024,0.263,0.025h0.002
	c0.086-0.001,0.172-0.014,0.196-0.017l0.119-0.02c0.068-0.011,0.135-0.026,0.211-0.047l0.124-0.032
	c0.052-0.017,0.105-0.035,0.159-0.059l70.971-31.543l2.917,3.039c1.212,1.264,2.585,2.728,3.787,4.039
	c0.517,0.563,1.148,0.647,1.478,0.647c0.384,0,0.745-0.104,1.067-0.31l2.531-1.613c22.093-14.091,47.133-30.061,76.359-30.061
	c1.103,0,2-0.897,2-2v-14.477l5.048-0.811c0.583-0.094,1.179-0.161,1.767-0.246C367.277,341.043,301.213,356.773,255.999,356.773z"
	/>
<path style="fill:#FFD2B9;" d="M71.999,316v8c0,0,48,40,72,40c5.972,0,60.29,35,114,35c52.377,0,104.177-35,110-35c24,0,72-40,72-40
	v-8H71.999z"/>
<path style="fill:#EBB4A0;" d="M451.359,292H60.639l-26.64,16c0,16,8.88,24,26.64,16s115.44,32,195.36,32s177.6-40,195.36-32
	s26.64,0,26.64-16L451.359,292z"/>
<path style="fill:#FFD2B9;" d="M467.999,284c-33.5-9-84-11-84-11s-7.001-129.511-128-129c-118.5,0.5-128,130-128,130s-47,2-85,12
	c-10.941,2.879-11,32-3,32s24-18,48-18c25.299,0,136,32,168,32l0,0c32,0,142.702-32,168-32c24,0,41,16,49,16
	S478.925,286.936,467.999,284z"/>
<path style="fill:#E3BCA9;" d="M255.999,244c-43.353,0-86.706,52.057-130.058,62.166C169.323,315.464,232.996,332,255.999,332l0,0
	c23.003,0,86.676-16.536,130.057-25.834C342.705,296.057,299.352,244,255.999,244z"/>
<g>
	<path style="fill:#74666B;" d="M164.999,256c0,2.407,0.462,4.686,1.122,6.878c2.193,0.66,4.471,1.122,6.878,1.122
		c13.255,0,24-10.745,24-24c0-2.408-0.462-4.686-1.122-6.879c-2.193-0.659-4.471-1.121-6.878-1.121
		C175.744,232,164.999,242.745,164.999,256z"/>
	<path style="fill:#74666B;" d="M347.121,254.061c0,2.125-0.408,4.136-0.99,6.071c-1.936,0.582-3.946,0.989-6.071,0.989
		c-11.699,0-21.182-9.483-21.182-21.182c0-2.125,0.408-4.136,0.99-6.071c1.936-0.582,3.946-0.989,6.071-0.989
		C337.637,232.879,347.121,242.362,347.121,254.061z"/>
</g>
<path d="M289.493,348.753c8.365-12.953,14.487-34.229,14.487-68.765c0-4.418-3.582-8-8-8c-4.419,0-8,3.582-8,8
	c0,26.875-4.155,71.961-31.98,71.961s-31.98-45.086-31.98-71.961c0-4.418-3.582-8-8-8s-8,3.582-8,8
	c0,34.536,6.122,55.812,14.487,68.765c-29.896-5.536-57.36-17.359-82.372-28.137c-29.407-12.671-57.184-24.64-84.037-24.64
	c-4.418,0-8,3.582-8,8s3.582,8,8,8c23.553,0,49.857,11.334,77.706,23.333c35.271,15.199,75.221,32.402,121.281,32.629
	c0.309,0.007,0.614,0.011,0.916,0.011c0.302,0,0.607-0.004,0.916-0.011c46.06-0.227,86.009-17.43,121.281-32.629
	c27.849-11.999,54.153-23.333,77.706-23.333c4.418,0,8-3.582,8-8s-3.582-8-8-8c-26.853,0-54.629,11.969-84.037,24.64
	C346.852,331.394,319.389,343.217,289.493,348.753z"/>
<path d="M455.901,271.988c-19.508,0-43.221-2.078-64.874-5.576c-8.474-43.707-23.189-75.483-44.926-97.052
	c-22.585-22.411-52.059-33.306-90.103-33.306c-73.593,0-117.791,42.652-135.019,130.356c-21.655,3.499-45.373,5.577-64.883,5.577
	c-17.638,0-31.988,14.35-31.988,31.988s14.35,31.988,31.988,31.988c7.589,0,33.354,11.979,58.27,23.563
	c46.379,21.564,104.1,48.401,141.633,48.401c37.532,0,95.253-26.837,141.633-48.401c24.916-11.584,50.68-23.563,58.269-23.563
	c17.638,0,31.988-14.35,31.988-31.988S473.54,271.988,455.901,271.988L455.901,271.988z M471.889,303.977
	c0,8.816-7.172,15.988-15.988,15.988c-10.61,0-30.598,9.054-65.015,25.056c-42.579,19.797-100.893,46.909-134.887,46.909
	s-92.308-27.112-134.887-46.909c-34.417-16.002-54.405-25.056-65.015-25.056c-8.816,0-15.988-7.172-15.988-15.988
	s7.172-15.988,15.988-15.988c25.194,0,57.093-3.317,83.248-8.657c51.192-10.453,57.702-23.472,59.841-27.749
	c3.509-7.019,2.671-14.729-2.186-20.123c-5.11-5.675-13.538-7.61-20.968-4.823c-4.703,1.766-15.674,8.148-15.989,29.245
	c-0.009,0.579,0.044,1.145,0.153,1.69c-6.116,1.933-13.493,3.864-22.228,5.7c16.441-75.803,54.138-111.217,118.03-111.217
	c64.064,0,101.767,35.415,118.053,111.221c-8.744-1.837-16.128-3.77-22.25-5.704c0.109-0.546,0.162-1.111,0.153-1.69
	c-0.315-21.097-11.286-27.479-15.989-29.245c-7.431-2.787-15.858-0.852-20.968,4.823c-4.857,5.394-5.695,13.104-2.186,20.123
	c2.139,4.277,8.648,17.296,59.841,27.749c26.154,5.34,58.053,8.657,83.248,8.657l0,0
	C464.717,287.988,471.889,295.16,471.889,303.977z M176.436,251.113c0.891-5.804,3.127-8.713,5.219-9.498
	c0.458-0.172,0.913-0.246,1.341-0.246c0.915,0,1.704,0.341,2.114,0.797c0.143,0.158,0.576,0.639-0.235,2.26
	C183.952,246.272,181.258,248.588,176.436,251.113z M335.562,251.113c-4.822-2.525-7.516-4.841-8.439-6.688
	c-0.811-1.621-0.377-2.102-0.235-2.26c0.411-0.456,1.199-0.797,2.114-0.797c0.428,0,0.884,0.074,1.341,0.246
	C332.435,242.4,334.672,245.31,335.562,251.113z"/>
<path d="M218.694,241.396c4.363,0.721,8.479-2.225,9.202-6.583c6.401-38.583,18.983-58.771,28.103-58.771
	c9.12,0,21.703,20.189,28.104,58.776c0.65,3.915,4.04,6.691,7.883,6.691c0.435,0,0.876-0.035,1.319-0.108
	c4.359-0.724,7.306-4.843,6.583-9.202c-7.607-45.856-23.604-72.157-43.888-72.157c-20.283,0-36.28,26.298-43.887,72.151
	C211.389,236.553,214.336,240.673,218.694,241.396z"/>
<path d="M68.091,216.023c6.616,0,11.998-5.382,11.998-11.998s-5.382-11.998-11.998-11.998s-11.998,5.382-11.998,11.998
	S61.475,216.023,68.091,216.023z M68.091,200.023c2.207,0,4.002,1.795,4.002,4.002s-1.795,4.002-4.002,4.002
	s-4.002-1.795-4.002-4.002S65.884,200.023,68.091,200.023z"/>
<path d="M443.907,192.027c-6.616,0-11.998,5.382-11.998,11.998s5.382,11.998,11.998,11.998s11.998-5.382,11.998-11.998
	S450.523,192.027,443.907,192.027z M443.907,208.027c-2.207,0-4.002-1.795-4.002-4.002s1.795-4.002,4.002-4.002
	s4.002,1.795,4.002,4.002S446.114,208.027,443.907,208.027z"/>
<path d="M511.344,282.955c-2.554-22.828-12.919-41.171-30.812-54.611c4.644-6.971,7.358-15.332,7.358-24.318
	c0-4.831-0.794-9.478-2.24-13.83c7.522-3.824,26.228-16.33,26.228-46.141c0-2.579-1.555-7.177-7.383-8.046
	c-0.44-0.065-1.088-0.146-1.922-0.237c-1.423-0.155-3.479-0.356-6.014-0.603c-9.111-0.887-24.361-2.371-38.402-4.56
	c-8.21-1.279-14.03-2.5-18.152-3.559c7.986-7.325,8.015-14.004,7.878-15.645c-0.314-3.775-3.234-6.813-6.995-7.276
	c-0.417-0.051-42.132-5.42-84.834-30.913C336.668,61.643,300.584,40.101,256,40.101s-80.668,21.542-100.054,33.115
	c-42.543,25.398-84.422,30.862-84.833,30.913c-3.76,0.463-6.68,3.501-6.995,7.276c-0.137,1.641-0.108,8.319,7.878,15.645
	c-4.122,1.059-9.943,2.279-18.152,3.559c-14.041,2.188-29.291,3.673-38.402,4.56c-2.535,0.246-4.591,0.447-6.014,0.603
	c-0.834,0.092-1.482,0.172-1.922,0.237c-5.828,0.869-7.383,5.467-7.383,8.046c0,29.811,18.706,42.316,26.228,46.141
	c-1.446,4.353-2.24,8.999-2.24,13.83c0,8.986,2.714,17.348,7.358,24.318c-17.893,13.44-28.258,31.783-30.812,54.611
	c-2.275,20.335,1.833,40.63,5.134,56.938c2.044,10.101,4.362,21.549,2.937,24.993c-1.021,2.468-0.743,5.283,0.741,7.504
	c1.484,2.222,3.979,3.555,6.651,3.555h20.884l-4.486,13.458c-0.927,2.782-0.251,5.846,1.75,7.988
	c2.001,2.145,5.024,3.021,7.86,2.282c0.219-0.056,20.562-5.189,45.952-1.111v9.363c0,4.418,3.582,8,8,8
	c27.474,0,51.731,15.47,73.133,29.119l2.533,1.614c3.272,2.082,7.569,1.517,10.191-1.343c1.173-1.279,2.512-2.707,3.694-3.939
	l67.121,29.832c0.307,0.137,0.618,0.246,0.932,0.342c0.076,0.022,0.153,0.04,0.23,0.061c0.267,0.072,0.534,0.131,0.803,0.175
	c0.086,0.014,0.171,0.028,0.257,0.04c0.342,0.044,0.683,0.074,1.023,0.074c0.001,0,0.003,0,0.004,0s0.003,0,0.004,0
	c0.34,0,0.681-0.03,1.022-0.074c0.086-0.012,0.172-0.026,0.258-0.04c0.269-0.044,0.536-0.103,0.803-0.175
	c0.076-0.021,0.153-0.038,0.229-0.061c0.313-0.096,0.625-0.205,0.932-0.342l67.121-29.832c1.183,1.232,2.521,2.66,3.694,3.939
	c2.622,2.859,6.918,3.425,10.192,1.343l2.533-1.614c21.401-13.649,45.659-29.119,73.133-29.119c4.418,0,8-3.582,8-8v-9.363
	c25.391-4.079,45.732,1.054,45.937,1.107c2.839,0.749,5.862-0.122,7.872-2.265s2.683-5.215,1.753-8.002l-4.486-13.458h20.884
	c2.671,0,5.167-1.333,6.651-3.555c1.484-2.221,1.763-5.036,0.741-7.504c-1.425-3.444,0.892-14.893,2.937-24.993
	C509.511,323.585,513.619,303.29,511.344,282.955z M443.907,232.008c-15.43,0-27.982-12.553-27.982-27.982
	s12.553-27.982,27.982-27.982s27.982,12.553,27.982,27.982S459.337,232.008,443.907,232.008z M40.108,204.025
	c0-15.43,12.553-27.982,27.982-27.982s27.982,12.553,27.982,27.982s-12.553,27.982-27.982,27.982S40.108,219.455,40.108,204.025z
	 M490.528,336.719c-1.86,9.192-3.411,16.852-3.635,23.227h-22.995c-2.572,0-4.986,1.236-6.49,3.322s-1.913,4.768-1.1,7.208
	l3.789,11.366c-10.983-1.219-27.496-1.723-45.875,2.274c-3.678,0.8-6.301,4.054-6.301,7.817v8.351
	c-27.28,2.435-50.995,16.808-70.649,29.304c-4.537-4.699-6.283-5.674-9.308-5.674c-1.119,0-2.226,0.235-3.249,0.689l-68.716,30.54
	l-68.716-30.54c-1.023-0.454-2.13-0.689-3.249-0.689c-3.024,0-4.771,0.975-9.308,5.674c-19.654-12.496-43.369-26.869-70.649-29.304
	v-8.351c0-3.764-2.623-7.018-6.301-7.817c-18.382-3.996-34.893-3.494-45.875-2.273l3.789-11.367c0.813-2.44,0.404-5.122-1.1-7.208
	c-1.503-2.086-3.918-3.322-6.49-3.322H25.105c-0.225-6.375-1.775-14.034-3.635-23.227c-6.12-30.236-14.463-71.463,21.252-96.798
	c7.174,5.085,15.925,8.087,25.368,8.087c24.252,0,43.982-19.73,43.982-43.982s-19.73-43.982-43.982-43.982
	c-13.697,0-25.949,6.296-34.021,16.143c-3.101-1.437-14.821-7.939-17.431-25.058c0.117-0.012,0.234-0.023,0.352-0.034
	c60.547-5.894,74.212-11.384,78.247-19.453c0.01-0.02,0.016-0.039,0.025-0.058c0.01-0.021,0.022-0.038,0.032-0.059
	c0.051-0.106,0.089-0.215,0.135-0.322c0.053-0.124,0.11-0.248,0.156-0.374c0.047-0.126,0.083-0.254,0.124-0.382
	s0.083-0.255,0.117-0.384c0.034-0.13,0.057-0.261,0.084-0.391c0.026-0.128,0.056-0.255,0.076-0.384
	c0.021-0.133,0.031-0.266,0.045-0.398c0.013-0.126,0.029-0.252,0.036-0.379c0.008-0.134,0.005-0.267,0.006-0.4
	c0.001-0.125,0.005-0.25,0-0.375c-0.006-0.134-0.021-0.266-0.033-0.398c-0.011-0.123-0.02-0.247-0.037-0.37
	c-0.018-0.131-0.045-0.26-0.07-0.39c-0.023-0.122-0.043-0.245-0.072-0.366c-0.03-0.126-0.069-0.25-0.105-0.374
	c-0.035-0.122-0.067-0.244-0.109-0.364c-0.041-0.12-0.09-0.236-0.137-0.354c-0.048-0.121-0.093-0.243-0.147-0.361
	c-0.051-0.113-0.11-0.223-0.167-0.334c-0.06-0.117-0.117-0.235-0.184-0.351c-0.062-0.107-0.131-0.21-0.198-0.315
	c-0.072-0.112-0.141-0.226-0.218-0.335c-0.072-0.101-0.151-0.196-0.228-0.295c-0.083-0.105-0.163-0.213-0.251-0.314
	c-0.083-0.096-0.173-0.185-0.261-0.276c-0.092-0.097-0.182-0.195-0.279-0.287c-0.095-0.09-0.198-0.173-0.298-0.259
	c-0.1-0.085-0.198-0.173-0.303-0.254c-0.106-0.083-0.22-0.157-0.332-0.235c-0.109-0.075-0.215-0.152-0.328-0.224
	c-0.115-0.071-0.238-0.136-0.358-0.202c-0.1-0.056-0.195-0.117-0.299-0.169c-0.021-0.01-0.042-0.018-0.062-0.027
	c-0.019-0.009-0.035-0.021-0.054-0.029c-2.3-1.104-4.144-2.165-5.622-3.147c16.58-3.574,46.958-12.081,78.225-30.748
	c19.33-11.54,51.681-30.854,91.853-30.854s72.523,19.313,91.852,30.854c31.268,18.667,61.646,27.174,78.226,30.748
	c-1.478,0.982-3.321,2.043-5.622,3.147c-0.019,0.009-0.035,0.021-0.054,0.029c-0.021,0.01-0.042,0.018-0.062,0.027
	c-0.104,0.052-0.199,0.113-0.299,0.169c-0.121,0.066-0.243,0.131-0.358,0.202c-0.113,0.071-0.219,0.148-0.328,0.224
	c-0.111,0.078-0.225,0.152-0.332,0.235c-0.105,0.081-0.203,0.169-0.303,0.254c-0.1,0.086-0.203,0.169-0.298,0.259
	c-0.098,0.092-0.187,0.19-0.28,0.287c-0.087,0.092-0.178,0.182-0.261,0.276c-0.088,0.102-0.168,0.209-0.251,0.314
	c-0.077,0.099-0.157,0.194-0.229,0.296c-0.078,0.108-0.146,0.222-0.218,0.334c-0.067,0.105-0.136,0.208-0.198,0.315
	c-0.066,0.115-0.124,0.233-0.184,0.351c-0.057,0.111-0.116,0.221-0.167,0.334c-0.054,0.118-0.099,0.24-0.147,0.361
	c-0.046,0.117-0.096,0.233-0.137,0.354c-0.042,0.12-0.074,0.242-0.109,0.364c-0.036,0.124-0.075,0.248-0.105,0.374
	c-0.029,0.121-0.049,0.244-0.072,0.366c-0.024,0.13-0.052,0.259-0.07,0.39c-0.017,0.123-0.025,0.247-0.037,0.37
	c-0.012,0.133-0.027,0.265-0.033,0.398c-0.005,0.125-0.001,0.25,0,0.375c0,0.134-0.002,0.267,0.006,0.4
	c0.007,0.126,0.023,0.252,0.036,0.378c0.014,0.134,0.025,0.267,0.045,0.4c0.02,0.128,0.05,0.255,0.076,0.383
	c0.027,0.13,0.05,0.261,0.084,0.391c0.034,0.129,0.077,0.256,0.117,0.384s0.077,0.256,0.124,0.382
	c0.046,0.126,0.103,0.25,0.156,0.374c0.046,0.107,0.084,0.216,0.135,0.322c0.008,0.017,0.019,0.03,0.026,0.046
	c0.011,0.023,0.019,0.047,0.031,0.07c4.035,8.069,17.699,13.56,78.247,19.453c0.116,0.011,0.233,0.022,0.35,0.033
	c-2.613,17.064-14.308,23.598-17.432,25.056c-8.073-9.846-20.324-16.14-34.019-16.14c-24.252,0-43.982,19.73-43.982,43.982
	s19.73,43.982,43.982,43.982c9.443,0,18.194-3.002,25.368-8.087C504.991,265.256,496.648,306.482,490.528,336.719z"/>
<g>
</g>
<g>
</g>
<g>
</g>
<g>
</g>
<g>
</g>
<g>
</g>
<g>
</g>
<g>
</g>
<g>
</g>
<g>
</g>
<g>
</g>
<g>
</g>
<g>
</g>
<g>
</g>
<g>
</g>
</svg>
