<?xml version="1.0" encoding="iso-8859-1"?>
<!-- Generator: Adobe Illustrator 19.0.0, SVG Export Plug-In . SVG Version: 6.00 Build 0)  -->
<svg version="1.1" id="Layer_1" xmlns="http://www.w3.org/2000/svg" xmlns:xlink="http://www.w3.org/1999/xlink" x="0px" y="0px"
	 viewBox="0 0 512 512" style="enable-background:new 0 0 512 512;" xml:space="preserve">
<path style="fill:#7C665D;" d="M504,152.726c0-76-8.746-106.063-32-112c-23.009-5.874-45.999,6.939-60.292,19.443
	c-31.876-7.883-78.667-16.977-129.557-18.938c-8.596-0.484-17.317-0.732-26.151-0.732s-17.556,0.249-26.151,0.732
	c-50.481,1.946-97.841,10.91-129.774,18.748C85.765,47.536,62.892,34.881,40,40.726c-23.254,5.938-32,36-32,112c0,0,0,44.545,0,72
	c0,0.736,0.015,1.474,0.022,2.21C8.019,227.459,8,227.972,8,228.498c0,40.393,10.673,78.411,29.468,111.653
	c26.609,49.908,70.054,90.757,125.461,107.146c4.029,1.553,8.107,3.012,12.238,4.367c26.369,17.565,59.778,21.062,80.833,21.062
	l-8.377-8.377c2.782,0.088,5.572,0.148,8.377,0.148s5.595-0.061,8.377-0.148L256,472.726c21.055,0,54.464-3.497,80.833-21.062
	c4.131-1.354,8.209-2.813,12.238-4.367c55.407-16.389,98.852-57.238,125.461-107.146C493.327,306.909,504,268.891,504,228.498
	c0-0.526-0.019-1.039-0.022-1.563c0.008-0.736,0.022-1.474,0.022-2.21C504,197.271,504,152.726,504,152.726z"/>
<ellipse style="fill:#896F60;" cx="256" cy="416.5" rx="104" ry="56"/>
<path style="fill:#957863;" d="M300,342.991c-16.416,0-71.584,0-88,0c-41.974,0-79.392,19.938-76,44
	c3.169,22.484,34.886,41.215,72,44c10.03,0.753,21-6.667,32.418-7.536c14.869-1.131,24.376-0.761,31.163,0
	c9.564,1.073,22.542,9.437,32.418,7.536c30.178-5.809,68.81-21.271,72-44C379.378,362.927,341.974,342.991,300,342.991z"/>
<path style="fill:#AB8389;" d="M256.341,328.955c16.794,0,27.802-6.669,40.306,0c20.153,10.749,19.481,31.573,8.062,40.307
	c-15.392,11.771-30.901,32.245-48.368,32.245s-32.976-20.475-48.368-32.245c-11.42-8.733-12.092-29.558,8.062-40.307
	C228.539,322.286,239.547,328.955,256.341,328.955z"/>
<g>
	<path style="fill:#C39B6E;" d="M40,40.954C16.746,46.892-0.333,93.658,9,173.991c17.443-22.298,38.586-40.953,55-58.61
		c18.333-19.723,37.28-36.999,48-42.427C102.667,59.621,71.334,32.954,40,40.954z"/>
	<path style="fill:#C39B6E;" d="M472,40.954c23.254,5.938,38.333,56.037,28,139.037c-10.262-12.725-25.59-40.73-25-40
		c16.713,20.685-42.813-39.444-75-67.037C409.333,59.621,440.666,32.954,472,40.954z"/>
</g>
<path d="M504.41,68.247c-5.728-19.969-15.682-31.506-30.431-35.272c-24.298-6.204-48.21,5.627-64.205,18.459
	C359.898,38.846,309.596,32.726,256,32.726s-103.897,6.12-153.773,18.708C86.233,38.602,62.323,26.77,38.021,32.974
	C23.271,36.74,13.317,48.278,7.59,68.247C2.412,86.301,0,113.144,0,152.726v72c0,49.786,15.853,100.483,44.638,142.753
	c30.44,44.7,73.523,76.301,121.311,88.979c0.688,0.183,1.377,0.27,2.057,0.27c0.114,0,0.223-0.023,0.337-0.028
	c2.731,1.933,5.586,3.76,8.573,5.469c28.209,16.146,61.657,18.557,79.085,18.557s50.876-2.411,79.085-18.557
	c2.986-1.709,5.841-3.536,8.573-5.469c0.113,0.005,0.223,0.028,0.337,0.028c0.679,0,1.37-0.087,2.057-0.27
	c47.788-12.678,90.871-44.279,121.311-88.979C496.147,325.208,512,274.511,512,224.726v-72
	C512,113.144,509.588,86.301,504.41,68.247z M256,464.726c-25.893,0-77.97-5.45-101.216-46.497
	c20.184,15.524,41.578,19.532,58.245,19.532c0.202,0,0.404,0,0.605-0.001c19.624-0.114,35.584-5.581,42.366-8.319
	c6.782,2.738,22.742,8.205,42.366,8.319c0.202,0.001,0.402,0.001,0.605,0.001c16.667,0,38.062-4.009,58.246-19.534
	C333.971,459.275,281.893,464.726,256,464.726z M226.244,373.981c-4.347-4-8.842-8.136-13.385-11.61
	c-3.282-2.509-5.092-6.866-4.725-11.37c0.496-6.077,4.626-11.481,11.63-15.217c2.594-1.383,5.189-2,8.417-2
	c3.112,0,6.519,0.555,10.464,1.196c5.026,0.818,10.722,1.745,17.354,1.745s12.328-0.927,17.354-1.745
	c3.946-0.642,7.353-1.196,10.465-1.196c3.228,0,5.823,0.617,8.417,2c7.003,3.735,11.134,9.14,11.63,15.217
	c0.367,4.503-1.443,8.86-4.725,11.37c-4.543,3.474-9.038,7.61-13.385,11.61c-10.014,9.215-20.37,18.745-29.756,18.745
	S236.258,383.196,226.244,373.981z M496,224.726c0,77.394-44.738,171.071-128.228,207.289c0.906-1.366,1.787-2.75,2.621-4.168
	c6.844-11.625,11.273-25.056,13.267-40.078c0.055-0.292,0.09-0.584,0.113-0.877c0.733-5.825,1.115-11.877,1.115-18.166
	c0-13.084,4.57-18.133,4.765-18.341c-0.114,0.122-0.182,0.177-0.182,0.177l-10.943-11.672c-0.986,0.925-9.64,9.62-9.64,29.836
	c0,5.168-0.289,10.052-0.824,14.684c-17.512,25.431-40.725,38.337-69.032,38.352c-0.016,0-0.029,0-0.045,0
	c-15.413,0-28.451-3.962-34.987-6.389v-7.675c12.085-3.082,22.48-12.64,32.59-21.943c4.271-3.93,8.305-7.643,12.269-10.674
	c7.676-5.87,11.771-15.358,10.952-25.381c-0.94-11.522-8.247-21.739-20.047-28.033c-4.898-2.613-10.114-3.883-15.946-3.883
	c-4.405,0-8.597,0.683-13.034,1.404c-4.644,0.756-9.446,1.537-14.784,1.537c-5.339,0-10.141-0.781-14.784-1.537
	c-4.438-0.722-8.628-1.404-13.034-1.404c-5.832,0-11.048,1.27-15.946,3.883c-11.8,6.293-19.107,16.511-20.047,28.033
	c-0.818,10.023,3.276,19.511,10.953,25.381c3.964,3.031,7.998,6.744,12.269,10.674c10.11,9.303,20.505,18.861,32.59,21.943v7.689
	c-6.429,2.4-19.169,6.285-34.459,6.373c-28.54,0.191-51.97-12.74-69.605-38.351c-0.536-4.632-0.824-9.516-0.824-14.684
	c0-20.216-8.653-28.911-9.64-29.836l-10.943,11.672c0,0-0.067-0.055-0.182-0.177c0.195,0.208,4.765,5.257,4.765,18.341
	c0,6.289,0.382,12.341,1.115,18.166c0.023,0.293,0.058,0.585,0.113,0.877c1.994,15.021,6.423,28.453,13.267,40.078
	c0.834,1.418,1.715,2.803,2.622,4.168C60.738,395.796,16,302.12,16,224.726v-16c0-41.989,12.271-52.211,32.599-69.147
	c10.717-8.928,24.054-20.04,37.761-38c2.68-3.513,2.006-8.533-1.506-11.213c-3.514-2.68-8.533-2.005-11.213,1.506
	c-12.612,16.527-24.656,26.562-35.282,35.414c-8.391,6.991-16.085,13.415-22.35,21.604c0.265-67.475,7.62-95.727,25.97-100.413
	c28.016-7.155,56.326,18.634,63.468,28.836c2.534,3.62,7.522,4.5,11.142,1.966s4.5-7.522,1.966-11.142
	c-0.773-1.104-1.698-2.299-2.732-3.544C161.243,53.926,207.211,48.726,256,48.726s94.757,5.2,140.179,15.868
	c-1.034,1.246-1.959,2.44-2.732,3.544c-2.534,3.62-1.654,8.608,1.966,11.142s8.608,1.654,11.142-1.966
	c7.143-10.203,35.452-35.989,63.467-28.836c18.351,4.686,25.706,32.938,25.971,100.413c-6.264-8.189-13.958-14.613-22.35-21.604
	c-10.626-8.852-22.67-18.886-35.282-35.414c-2.681-3.512-7.701-4.186-11.213-1.506c-3.512,2.681-4.187,7.701-1.506,11.213
	c13.707,17.96,27.044,29.071,37.761,38C483.729,156.514,496,166.736,496,208.726V224.726z"/>
<path d="M152,256.726c-8.822,0-16,7.178-16,16s7.178,16,16,16s16-7.178,16-16S160.822,256.726,152,256.726z"/>
<path d="M360,256.726c-8.822,0-16,7.178-16,16s7.178,16,16,16s16-7.178,16-16S368.822,256.726,360,256.726z"/>
<g>
</g>
<g>
</g>
<g>
</g>
<g>
</g>
<g>
</g>
<g>
</g>
<g>
</g>
<g>
</g>
<g>
</g>
<g>
</g>
<g>
</g>
<g>
</g>
<g>
</g>
<g>
</g>
<g>
</g>
</svg>
