<?xml version="1.0" encoding="iso-8859-1"?>
<!-- Generator: Adobe Illustrator 19.0.0, SVG Export Plug-In . SVG Version: 6.00 Build 0)  -->
<svg version="1.1" id="Layer_1" xmlns="http://www.w3.org/2000/svg" xmlns:xlink="http://www.w3.org/1999/xlink" x="0px" y="0px"
	 viewBox="0 0 512.001 512.001" style="enable-background:new 0 0 512.001 512.001;" xml:space="preserve">
<path style="fill:#74666B;" d="M368,40.001l8-16c-23.334-10.667-84-9.333-120,8v-24c-35.333,0-70,14-96,32l-8-16
	c-42,23-56,54.102-56,88l12.08,144.962c2.739,32.866,11.794,64.848,26.667,94.283c24.53,48.548,63.516,118.46,89.253,128.755h32h32
	c25.737-10.295,64.723-80.207,89.252-128.755c14.873-29.436,23.93-61.417,26.668-94.283L416,112.001
	C416,86.397,396.666,50.668,368,40.001z"/>
<path style="fill:#464655;" d="M296,464.001c0,24.853-9.072,40-40,40s-40-15.147-40-40H296z"/>
<path style="fill:#64555A;" d="M312,427.201c0,21.871-1,52.8-56,52.8c-56,0-56-30.93-56-52.8s25.072-35.2,56-35.2
	S312,405.331,312,427.201z"/>
<g>
	<path style="fill:#9E9EA6;" d="M111,169.297c0,0-72-20.16-72-48c0-48.924,21.98-86.859,33.353-103.213
		c1.542-2.217,4.992-0.756,4.485,1.896C72.964,40.254,65.717,84.166,71,105.297c3.153,12.612,40,16,40,16V169.297z"/>
	<path style="fill:#9E9EA6;" d="M389.627,167.884c0,0,77.621-12.943,80.373-40.647c4.836-48.685-17.266-88.606-26.967-106.005
		c-1.315-2.358-4.893-1.245-4.651,1.443c1.851,20.558,4.722,64.971-2.625,85.477c-4.384,12.238-41.386,11.967-41.386,11.967
		L389.627,167.884z"/>
</g>
<path d="M160,200.001c-8.822,0-16,7.178-16,16s7.178,16,16,16s16-7.178,16-16S168.822,200.001,160,200.001z"/>
<path d="M352,200.001c-8.822,0-16,7.178-16,16s7.178,16,16,16s16-7.178,16-16S360.822,200.001,352,200.001z"/>
<path d="M438.037,2.751c-2.4-2.76-6.366-3.541-9.634-1.896c-3.267,1.645-5.002,5.297-4.214,8.869
	c4.059,18.403,13.419,70.865,8.073,92.266c-0.013,0.028-1.223,2.277-8.476,4.902c-2.089-25.534-19.344-56.807-44.932-70.709
	l4.302-8.604c0.971-1.941,1.111-4.193,0.389-6.239s-2.244-3.712-4.218-4.614C356.337,6.216,302.169,6.395,264,20.034V8.001
	c0-4.418-3.582-8-8-8c-30.491,0-63.87,10.262-92.871,28.369l-3.974-7.947c-0.972-1.944-2.693-3.409-4.768-4.058
	c-2.075-0.649-4.324-0.426-6.23,0.619C109.36,38.23,89.685,67.671,88.115,106.855c-7.115-2.59-8.344-4.794-8.354-4.794
	c-5.363-21.452,3.993-73.927,8.051-92.337c0.787-3.572-0.948-7.224-4.216-8.868c-3.266-1.645-7.232-0.864-9.633,1.895
	C72.25,4.722,32,51.793,32,120.001c0,14.907,13.652,28.927,40.578,41.671c8.491,4.019,16.915,7.27,23.605,9.628
	c1.044,17.515,1.878,33.074,2.617,46.863c6.228,116.344,6.92,118.315,74.115,210.885c8.391,11.559,17.9,24.66,28.593,39.607
	c0.722,1.01,1.641,1.79,2.661,2.349c1.178,1.291,2.474,2.534,3.892,3.722c1.043,25.072,16.752,37.275,47.939,37.275
	c31.355,0,47.066-12.333,47.957-37.679c1.106-0.949,2.135-1.932,3.094-2.944c1.334-0.553,2.54-1.461,3.442-2.723
	c10.692-14.947,20.202-28.048,28.593-39.607c67.194-92.57,67.887-94.541,74.115-210.885c0.738-13.789,1.573-29.348,2.617-46.863
	c6.69-2.358,15.114-5.609,23.605-9.628C466.348,148.928,480,134.908,480,120.001C480,51.793,439.75,4.722,438.037,2.751z
	 M48,120.001c0-29.033,8.248-54.175,17.062-72.754c-2.743,20.612-4.443,44.216-0.823,58.695c2.107,8.43,10.935,14.496,26.986,18.546
	c5.764,1.455,11.342,2.369,15.148,2.894c-1.793,10.534-0.93,21.161,1.545,31.05C81.742,150.131,48,133.733,48,120.001z
	 M294.809,410.533c1.512,7.825-0.493,8.643-7.333,11.347c-5.788,2.287-15.476,6.116-15.476,18.121c0,4.418,3.582,8,8,8s8-3.582,8-8
	c0-0.391,0.049-0.599,0.052-0.617c0.515-0.731,3.514-1.917,5.306-2.625c3.039-1.201,7.131-2.821,10.632-5.758
	c-0.162,19.967-2.866,41-47.989,41c-44.599,0-47.758-19.662-47.982-40.115c3.499,2.498,7.334,3.921,10.078,4.936
	c1.981,0.733,5.297,1.959,5.86,2.693c0,0.001,0.045,0.138,0.045,0.485c0,4.418,3.582,8,8,8s8-3.582,8-8
	c0-12.135-10.237-15.922-16.354-18.185c-6.934-2.565-9.283-3.458-8.278-9.795c8.962-7.93,24.857-12.019,40.63-12.019
	C270.754,400.001,285.613,403.58,294.809,410.533z M256,496.001c-19.512,0-27.205-4.95-30.182-11.953
	c8.014,2.497,17.919,3.953,30.182,3.953c12.294,0,22.219-1.52,30.244-4.108C283.313,490.977,275.654,496.001,256,496.001z
	 M326.138,419.649c-1.981,2.73-4.031,5.553-6.138,8.459c0-0.307,0-0.609,0-0.907c0-25.436-26.318-43.2-64-43.2s-64,17.765-64,43.2
	c0,0.298,0,0.602,0,0.907c-2.107-2.906-4.156-5.729-6.138-8.459c-65.052-89.619-65.052-89.619-71.086-202.341
	c-0.66-12.324-1.396-26.058-2.291-41.345c0.55-0.034,1.089-0.123,1.612-0.266c2.205,4.687,4.69,9.008,7.299,12.821
	c1.55,2.265,4.058,3.483,6.61,3.483c1.556,0,3.129-0.454,4.51-1.398c3.646-2.495,4.58-7.474,2.085-11.12
	c-10.829-15.826-19.308-41.998-7.568-63.672c2.104-3.885,0.661-8.74-3.224-10.844c-3.885-2.105-8.74-0.662-10.844,3.224
	c-0.658,1.214-1.251,2.441-1.815,3.672c-1.537-0.18-4.083-0.512-7.134-1.036c0.347-32.293,14.972-57.112,44.645-75.615l4.183,8.366
	c1.037,2.074,2.923,3.597,5.17,4.172c2.245,0.575,4.632,0.147,6.539-1.172c25.6-17.724,55.576-28.553,83.446-30.321v15.744
	c0,2.751,1.414,5.31,3.744,6.773c2.329,1.464,5.247,1.628,7.727,0.435c29.34-14.127,79.575-17.257,105.298-10.635l-3.924,7.849
	c-1.016,2.031-1.12,4.398-0.288,6.511c0.833,2.113,2.524,3.772,4.653,4.564c24.792,9.225,42.184,40.443,42.763,63.329
	c-3.039,0.52-5.585,0.854-7.124,1.035c-0.564-1.231-1.157-2.457-1.815-3.671c-2.104-3.886-6.96-5.329-10.844-3.224
	c-3.885,2.104-5.329,6.959-3.224,10.844c11.74,21.674,3.26,47.846-7.568,63.672c-2.495,3.646-1.562,8.625,2.085,11.12
	c1.381,0.945,2.954,1.398,4.51,1.398c2.552,0,5.06-1.218,6.61-3.483c2.609-3.813,5.095-8.135,7.299-12.821
	c0.523,0.143,1.062,0.232,1.612,0.266c-0.895,15.287-1.631,29.021-2.291,41.345C391.189,330.03,391.189,330.03,326.138,419.649z
	 M404.082,158.427c2.475-9.888,3.338-20.514,1.544-31.046c3.806-0.525,9.384-1.439,15.148-2.894
	c16.052-4.05,24.879-10.116,26.986-18.546c3.62-14.479,1.919-38.082-0.823-58.694C455.753,65.828,464,90.968,464,120.001
	C464,133.707,430.258,150.112,404.082,158.427z"/>
<g>
</g>
<g>
</g>
<g>
</g>
<g>
</g>
<g>
</g>
<g>
</g>
<g>
</g>
<g>
</g>
<g>
</g>
<g>
</g>
<g>
</g>
<g>
</g>
<g>
</g>
<g>
</g>
<g>
</g>
</svg>
