<?xml version="1.0" encoding="iso-8859-1"?>
<!-- Generator: Adobe Illustrator 19.0.0, SVG Export Plug-In . SVG Version: 6.00 Build 0)  -->
<svg version="1.1" id="Layer_1" xmlns="http://www.w3.org/2000/svg" xmlns:xlink="http://www.w3.org/1999/xlink" x="0px" y="0px"
	 viewBox="0 0 512 512" style="enable-background:new 0 0 512 512;" xml:space="preserve">
<path style="fill:#6B676E;" d="M501.752,155.885c-11.978-39.57-189.383-98.556-242.264-73.846h-6.976
	c-52.881-24.71-230.287,34.276-242.264,73.846c-12.163,40.18,29.979,69.37,33.639,71.815c-16.244,32.501-23.908,69.307-8.216,96.15
	c22.598,38.659,110.165,63.987,110.165,63.987l9.522-10.54c2.8,23.995,24.207,49.519,103.642,26.12
	c73.177,21.557,97.105,1.593,102.611-20.445l4.554,4.865c0,0,87.567-25.328,110.165-63.987c15.691-26.844,8.026-63.649-8.216-96.15
	C471.775,225.255,513.916,196.065,501.752,155.885z"/>
<g>
	<path style="fill:#464655;" d="M43.887,227.702c0,0-29.504-8.022-35.836-53.192c-6.662-47.526,67.319-63.143,78.984-35.482
		l1,20.996L43.887,227.702z"/>
	<path style="fill:#464655;" d="M467.957,224.011c0,0,33.66-6.332,35.993-49.501c2.589-47.92-60.988-63.476-79.984-34.482l-1,19.996
		L467.957,224.011z"/>
</g>
<path style="fill:#897670;" d="M259,403.418c85.982,25.329,103.979-6.665,103.979-31.993c0-38.658-37.992-41.991-55.989-39.992
	h-95.98c-17.996-2-55.989,1.334-55.989,39.992C155.022,396.753,173.018,428.747,259,403.418"/>
<path style="fill:#AB8389;" d="M303.991,347.846c0,17.669-12.651,31.993-47.99,31.993s-47.99-14.324-47.99-31.993
	c0-17.67-0.601-31.993,47.99-31.993S303.991,330.177,303.991,347.846z"/>
<path style="fill:#7D6E69;" d="M200.012,419.831c21.329,10.665,37.992,15.997,55.988,15.997c17.996,0,34.66-5.332,55.989-15.997
	l-55.989-13.858L200.012,419.831z"/>
<path style="fill:#FFEBD2;" d="M256.001,123.892c-4.417,0-7.998,3.581-7.998,7.998v95.98c0,4.417,3.581,7.998,7.998,7.998
	c4.417,0,7.998-3.581,7.998-7.998v-95.98C263.999,127.473,260.418,123.892,256.001,123.892z"/>
<path d="M478.174,230.232c13.239-10.47,42.69-38.819,31.234-76.663c-7.406-24.468-56.205-46.307-84.636-57.147
	C366.563,74.226,290.573,58.676,256,74.855c-34.574-16.179-110.564-0.629-168.772,21.567c-28.43,10.841-77.229,32.679-84.636,57.147
	c-11.456,37.844,17.994,66.193,31.234,76.663c-3.516,7.633-6.478,15.269-8.761,22.703c-9.042,29.424-7.762,55.343,3.7,74.953
	c23.935,40.947,111.147,66.563,114.848,67.634c0.742,0.215,1.49,0.317,2.226,0.317c1.206,0,2.371-0.291,3.43-0.796
	c2.975,5.875,7.159,10.935,12.467,14.904c7.858,5.878,17.99,9.415,30.321,10.632c0.251,2.655,1.817,5.126,4.378,6.407
	c23.924,11.962,41.182,16.842,59.566,16.842c18.384,0,35.641-4.879,59.566-16.842c2.561-1.281,4.127-3.752,4.378-6.408
	c12.329-1.217,22.463-4.754,30.321-10.631c5.308-3.97,9.492-9.029,12.467-14.904c1.06,0.505,2.225,0.796,3.43,0.796
	c0.736,0,1.484-0.102,2.226-0.317c3.701-1.071,90.912-26.688,114.848-67.634c11.463-19.609,12.742-45.529,3.7-74.953
	C484.651,245.501,481.692,237.866,478.174,230.232z M171.317,397.137c-9.336-6.984-11.297-17.609-11.297-25.296
	c0-10.126,2.919-17.663,8.927-23.039c7.945-7.111,20.36-9.51,31.238-9.411c-0.169,2.647-0.174,5.279-0.173,7.818v0.637
	c0,11.358,4.875,36.936,48.003,39.737c-0.002,0.086-0.013,0.169-0.013,0.255v9.949C202.347,410.297,181.113,404.464,171.317,397.137
	z M216.009,347.846v-0.643c-0.003-8.352,0.157-13.23,3.485-16.376c4.9-4.629,17.183-6.978,36.507-6.978s31.606,2.349,36.507,6.978
	c3.329,3.145,3.489,8.023,3.485,16.376v0.643c0,15.922-13.455,23.995-39.992,23.995S216.009,363.769,216.009,347.846z
	 M256.001,427.83c-11.539,0-22.807-2.384-36.508-7.91c11.041-1.362,23.219-3.948,36.508-7.762
	c13.29,3.813,25.468,6.401,36.508,7.762C278.807,425.447,267.538,427.83,256.001,427.83z M340.684,397.137
	c-9.796,7.326-31.03,13.161-76.685,0.65v-9.949c0-0.086-0.01-0.169-0.013-0.255c43.128-2.8,48.003-28.379,48.003-39.737v-0.637
	c0.001-2.539-0.004-5.171-0.173-7.817c10.879-0.1,23.293,2.299,31.238,9.41c6.007,5.376,8.927,12.913,8.927,23.039
	C351.981,379.528,350.021,390.153,340.684,397.137z M469.425,319.815c-18.26,31.24-85.607,54.092-101.909,59.242
	c0.295-2.342,0.462-4.745,0.462-7.216c0-14.731-4.796-26.493-14.255-34.959c-14.82-13.264-36.164-13.923-46.565-13.317
	c-1.004-1.517-2.201-2.981-3.665-4.364c-8.305-7.847-22.952-11.347-47.491-11.347c-24.539,0-39.186,3.499-47.491,11.347
	c-1.465,1.383-2.661,2.847-3.665,4.364c-10.402-0.605-31.746,0.054-46.565,13.317c-9.459,8.466-14.255,20.228-14.255,34.959
	c0,2.47,0.167,4.873,0.462,7.216c-16.302-5.15-83.649-28.002-101.909-59.242c-13.595-23.258-7.394-56.137,7.339-86.426
	c0.347-0.363,0.674-0.751,0.956-1.189c0.614-0.954,0.996-1.99,1.167-3.042c6.716-12.999,14.93-25.407,23.734-36.23
	c0.93-1.143,1.844-2.26,2.738-3.353c14.975-18.306,27.908-34.115,14.674-54.1c-2.439-3.683-7.4-4.691-11.085-2.253
	c-3.683,2.438-4.691,7.401-2.253,11.085c6.062,9.155,2.585,15.21-13.718,35.139c-0.904,1.105-1.827,2.233-2.765,3.387
	c-8.234,10.122-15.727,21.294-22.102,32.778c-11.352-9.671-31.31-31.135-23.357-57.406c3.104-10.257,27.507-28.716,75.025-46.835
	c63.125-24.07,129.194-33.461,155.074-22.573v11.102c0,4.417,3.581,7.998,7.998,7.998c4.417,0,7.998-3.581,7.998-7.998V88.795
	c25.88-10.889,91.949-1.497,155.074,22.573c47.517,18.119,71.92,36.578,75.025,46.835c7.913,26.144-12.034,47.671-23.371,57.382
	c-6.373-11.477-13.86-22.639-22.089-32.754c-0.939-1.154-1.862-2.283-2.765-3.387c-16.304-19.93-19.781-25.984-13.718-35.139
	c2.439-3.683,1.431-8.645-2.253-11.085c-3.682-2.438-8.646-1.431-11.085,2.253c-13.234,19.985-0.301,35.795,14.674,54.1
	c0.895,1.095,1.81,2.212,2.738,3.353c8.805,10.823,17.018,23.23,23.734,36.23c0.171,1.053,0.553,2.089,1.167,3.042
	c0.282,0.438,0.609,0.826,0.956,1.189C476.82,263.678,483.02,296.558,469.425,319.815z"/>
<path d="M144.024,251.866c-8.82,0-15.997,7.177-15.997,15.997s7.177,15.997,15.997,15.997c8.82,0,15.997-7.177,15.997-15.997
	S152.844,251.866,144.024,251.866z"/>
<path d="M367.978,251.866c-8.82,0-15.997,7.177-15.997,15.997s7.177,15.997,15.997,15.997s15.997-7.177,15.997-15.997
	S376.798,251.866,367.978,251.866z"/>
<g>
</g>
<g>
</g>
<g>
</g>
<g>
</g>
<g>
</g>
<g>
</g>
<g>
</g>
<g>
</g>
<g>
</g>
<g>
</g>
<g>
</g>
<g>
</g>
<g>
</g>
<g>
</g>
<g>
</g>
</svg>
