<?xml version="1.0" encoding="iso-8859-1"?>
<!-- Generator: Adobe Illustrator 19.0.0, SVG Export Plug-In . SVG Version: 6.00 Build 0)  -->
<svg version="1.1" id="Layer_1" xmlns="http://www.w3.org/2000/svg" xmlns:xlink="http://www.w3.org/1999/xlink" x="0px" y="0px"
	 viewBox="0 0 512 512" style="enable-background:new 0 0 512 512;" xml:space="preserve">
<path style="fill:#BE9178;" d="M403,80.524V80.02c-3.71,0.477-7.51,0.098-11.072-1.158l-15.992-22.626
	c0.001-2.677,0.474-5.346,1.365-7.902h-11.579l6.77-0.084C341.929,22.785,303.298,8,256,8c-47.348,0-86.007,14.82-116.585,40.333
	h-4.716c0.892,2.556,1.364,5.225,1.365,7.902l-15.992,22.626c-4.206,1.483-8.743,1.757-13.072,0.824v3.568
	c-40.152,55.04-58.889,134.84-58.889,220.854c0,71.292,25.669,118.192,63.987,146.778l-0.367-47.218h288.556l-0.365,47.203
	c38.305-28.587,63.966-75.483,63.966-146.763C463.889,216.669,444.539,135.636,403,80.524z"/>
<g>
	<path style="fill:#7A645A;" d="M120.072,78.861l15.992-22.626c-0.001-2.677-0.474-5.346-1.365-7.902
		c-1.151-3.305-3.021-6.415-5.661-9.055c-9.368-9.368-24.555-9.368-33.923,0s-9.368,24.555,0,33.923
		c3.384,3.385,7.529,5.545,11.884,6.484C111.329,80.618,115.866,80.345,120.072,78.861z"/>
	<path style="fill:#7A645A;" d="M391.928,78.861c3.563,1.256,7.362,1.635,11.072,1.158c5.077-0.653,9.985-2.919,13.884-6.818
		c9.368-9.368,9.368-24.555,0-33.923s-24.555-9.368-33.923,0c-2.641,2.64-4.509,5.75-5.661,9.055
		c-0.891,2.556-1.364,5.225-1.365,7.902L391.928,78.861z"/>
</g>
<path style="fill:#9F8976;" d="M464,312c0,114.875-93.125,192-208,192S48,426.875,48,312S92.524,8,256,8S464,197.125,464,312z"/>
<path style="fill:#BE9178;" d="M404.385,88.486C313.031,65.273,321,249.5,336,272h-80h-80c15-22.5,22.969-206.727-68.385-183.514
	C63.063,153.69,48,245.324,48,312c0,114.875,93.125,192,208,192s208-77.125,208-192C464,245.324,448.938,153.69,404.385,88.486z"/>
<g>
	<path style="fill:#7A645A;" d="M398.616,376c0,45.729-7.159,79.734-142.5,79.734s-142.5-34.005-142.5-79.734H398.616z"/>
	<path style="fill:#7A645A;" d="M370.149,410.328c-0.762,0.446-1.649,0.615-2.521,0.479c-11.927-1.868-94.958-16.545-109.407-18.746
		h-4.217C238.509,394.394,144.596,410.836,142,411l-32.265-18.94h-3.533c0,64.201,28.482,111.94,149.92,111.94
		s149.92-47.739,149.92-111.94h-4.647L370.149,410.328z"/>
</g>
<path style="fill:#877364;" d="M254.003,392.06c1.184-0.178,1.926-0.277,2.119-0.277c0.191,0,0.922,0.098,2.099,0.277
	c14.449,2.201,97.48,16.878,109.407,18.746c0.873,0.136,1.759-0.033,2.521-0.479l31.245-18.268
	c16.912-27.378,25.702-101.458-16.331-128.209c-48.962-31.16-99.186-31.983-128.942-31.983c-29.984,0-80.593,0.823-129.931,31.983
	c-42.354,26.75-33.497,100.831-16.456,128.209L142,411C144.596,410.836,238.509,394.394,254.003,392.06z"/>
<g>
	<circle style="fill:#7A645A;" cx="215" cy="280" r="16"/>
	<circle style="fill:#7A645A;" cx="296" cy="280" r="16"/>
</g>
<path d="M128.068,112.206c-8.82,0-15.996,7.176-15.996,15.996s7.176,15.996,15.996,15.996s15.996-7.176,15.996-15.996
	S136.889,112.206,128.068,112.206z"/>
<path d="M383.932,112.206c-8.82,0-15.996,7.176-15.996,15.996s7.176,15.996,15.996,15.996s15.996-7.176,15.996-15.996
	S392.751,112.206,383.932,112.206z"/>
<path d="M415.447,84.179c2.57-1.419,4.967-3.194,7.094-5.321c12.472-12.472,12.472-32.765,0-45.236s-32.765-12.472-45.236,0
	c-1.533,1.534-2.89,3.197-4.064,4.962C340.546,12.983,301.137,0,256,0c-45.17,0-84.554,12.979-117.24,38.584
	c-1.174-1.766-2.531-3.429-4.064-4.962c-12.472-12.472-32.765-12.472-45.236,0s-12.472,32.765,0,45.236
	c2.127,2.127,4.523,3.902,7.093,5.321c-36.458,53.386-56.44,130.917-56.44,219.928c0,35.23,6.179,66.44,18.365,92.765
	c11.256,24.317,27.688,44.646,48.838,60.425c1.436,1.071,3.114,1.588,4.777,1.588c0.635,0,1.267-0.079,1.883-0.228
	c4.454,7.205,9.874,13.645,16.313,19.409C155.799,500.9,196.96,512,256.122,512s100.323-11.1,125.834-33.934
	c6.431-5.756,11.845-12.187,16.295-19.38c0.551,0.118,1.112,0.184,1.677,0.184c1.664,0,3.342-0.518,4.778-1.589
	c21.144-15.779,37.57-36.109,48.823-60.423c12.182-26.321,18.358-57.527,18.358-92.751
	C471.889,215.097,451.906,137.565,415.447,84.179z M389.961,393.55c-5.425,4.374-13.341,6.5-24.2,6.501
	c-14.519,0.001-31.926-3.71-50.356-7.64c-19.897-4.242-40.472-8.629-59.284-8.629c-18.943,0-39.671,4.385-59.716,8.626
	c-18.577,3.93-36.123,7.642-50.764,7.642c-10.966,0-18.963-2.133-24.447-6.52c-8.468-6.774-19.188-35.8-17.409-67.684
	c1.012-18.149,6.462-42.464,26.678-55.232c48.683-30.747,98.757-30.747,125.658-30.747c26.686,0,76.357,0,124.646,30.732
	c20.038,12.753,25.453,37.044,26.466,55.177C409.02,357.701,398.377,386.766,389.961,393.55z M371.286,466.144
	C348.84,486.234,311.17,496,256.122,496s-92.718-9.766-115.164-29.856c-15.134-13.546-23.558-32.049-25.998-57.469
	c7.939,4.952,18.026,7.376,30.681,7.376c16.315,0,34.657-3.88,54.076-7.989c19.24-4.071,39.135-8.28,56.405-8.28
	c17.125,0,36.861,4.208,55.947,8.277c19.276,4.109,37.481,7.991,53.686,7.991c0.002,0,0.005,0,0.007,0
	c13.169-0.001,23.54-2.663,31.592-8.103C395.007,433.744,386.564,452.469,371.286,466.144z M409.385,432.312
	c3.128-11.82,4.657-25.156,4.657-40.252c0-1.652-0.501-3.187-1.359-4.461c7.437-16.751,11.769-40.513,10.527-62.714
	c-1.728-30.917-13.75-54.99-33.851-67.782c-52.22-33.234-106.94-33.234-133.237-33.234c-26.488,0-81.605,0-134.202,33.219
	c-20.269,12.802-32.383,36.905-34.109,67.87c-1.265,22.68,3.324,46.997,11.12,63.784c-0.462,1.012-0.728,2.134-0.728,3.319
	c0,15.23,1.556,28.668,4.741,40.566c-31.091-30.065-46.832-73.198-46.832-128.519c0-88.711,20.291-165.166,57.189-215.921
	c3.177-0.113,6.358-0.695,9.433-1.78c4.167-1.469,6.354-6.038,4.884-10.205c-1.47-4.167-6.039-6.355-10.205-4.884
	c-5.779,2.037-12.31,0.557-16.64-3.772c-6.233-6.233-6.233-16.376,0-22.609s16.376-6.233,22.609,0
	c3.019,3.019,4.682,7.033,4.683,11.302c0.001,4.417,3.583,7.998,8,7.998h0.001c4.419-0.001,8-3.583,7.999-8.002
	c0-0.446-0.015-0.89-0.033-1.333C174.728,29.086,212.377,16,256,16c43.322,0,80.792,12.918,111.371,38.396
	c0.194,0.162,0.395,0.31,0.599,0.45c-0.02,0.461-0.034,0.924-0.034,1.388c-0.001,4.418,3.58,8.001,7.998,8.002
	c0.001,0,0.001,0,0.002,0c4.417,0,7.999-3.581,8-7.998c0.001-4.27,1.664-8.283,4.683-11.302c6.233-6.233,16.376-6.233,22.609,0
	s6.233,16.376,0,22.609c-4.33,4.329-10.862,5.808-16.64,3.772c-4.166-1.47-8.736,0.718-10.205,4.884
	c-1.47,4.167,0.717,8.736,4.884,10.205c3.075,1.084,6.256,1.667,9.433,1.78c36.898,50.756,57.189,127.21,57.189,215.921
	C455.889,359.234,440.26,402.261,409.385,432.312z"/>
<path d="M216.021,256.128c-13.229,0-23.992,10.763-23.992,23.992s10.763,23.991,23.992,23.991s23.991-10.762,23.991-23.991
	S229.25,256.128,216.021,256.128z M216.021,288.111c-4.407,0-7.992-3.585-7.992-7.991c0-4.407,3.585-7.992,7.992-7.992
	c4.406,0,7.991,3.585,7.991,7.992C224.013,284.526,220.428,288.111,216.021,288.111z"/>
<path d="M295.979,256.128c-13.229,0-23.991,10.763-23.991,23.992s10.762,23.991,23.991,23.991s23.992-10.762,23.992-23.991
	S309.208,256.128,295.979,256.128z M295.979,288.111c-4.406,0-7.991-3.585-7.991-7.991c0-4.407,3.585-7.992,7.991-7.992
	c4.407,0,7.992,3.585,7.992,7.992C303.97,284.526,300.385,288.111,295.979,288.111z"/>
<path d="M297.513,412.703c-11.75-2.297-27.073-4.933-41.391-4.933c-14.411,0-29.814,2.628-41.624,4.918
	c-4.337,0.841-7.172,5.039-6.331,9.376s5.039,7.172,9.376,6.331c11.107-2.153,25.529-4.625,38.578-4.625
	c12.945,0,27.28,2.478,38.322,4.636c0.519,0.101,1.034,0.15,1.543,0.15c3.749,0,7.096-2.649,7.843-6.467
	C304.678,417.753,301.85,413.551,297.513,412.703z"/>
<g>
</g>
<g>
</g>
<g>
</g>
<g>
</g>
<g>
</g>
<g>
</g>
<g>
</g>
<g>
</g>
<g>
</g>
<g>
</g>
<g>
</g>
<g>
</g>
<g>
</g>
<g>
</g>
<g>
</g>
</svg>
