<?xml version="1.0" encoding="iso-8859-1"?>
<!-- Generator: Adobe Illustrator 19.0.0, SVG Export Plug-In . SVG Version: 6.00 Build 0)  -->
<svg version="1.1" id="Layer_1" xmlns="http://www.w3.org/2000/svg" xmlns:xlink="http://www.w3.org/1999/xlink" x="0px" y="0px"
	 viewBox="0 0 512 512" style="enable-background:new 0 0 512 512;" xml:space="preserve">
<path style="fill:#464655;" d="M256.001,435.958h-71.984c23.995,38.392,63.986,47.989,71.984,47.989
	c7.998,0,47.989-9.598,71.984-47.989H256.001z"/>
<g>
	<path style="fill:#AA825A;" d="M182.015,117.92c0,0-69.914-95.173-101.596-90.721C36.991,33.303,2.201,102.807,8.88,150.329
		c4.452,31.681,57.54,64.605,114.096,64.734L182.015,117.92z"/>
	<path style="fill:#AA825A;" d="M336.609,115.026c0,0,68.457-93.19,99.478-88.83c42.525,5.977,76.589,74.033,70.05,120.564
		c-4.36,31.021-56.342,63.259-111.719,63.385L336.609,115.026z"/>
</g>
<path style="fill:#D7A055;" d="M311.988,120.027c-27.477-5.198-45.157-20.163-55.988-51.812
	c-9.331,33.816-24.639,39.985-51.989,45.813c-60.987,12.997-131.971,78.486-131.971,150.967c0,95.979,38.991,153.966,94.979,188.958
	l88.98,38.353l95.979-41.352c48.489-34.492,87.981-89.98,87.981-185.959C439.959,192.514,385.972,134.024,311.988,120.027z"/>
<g>
	
		<ellipse transform="matrix(0.7071 -0.7071 0.7071 0.7071 -148.5162 205.8641)" style="fill:#B08758;" cx="174.242" cy="282.207" rx="39.589" ry="51.988"/>
	
		<ellipse transform="matrix(0.7071 0.7071 -0.7071 0.7071 298.489 -156.1761)" style="fill:#B08758;" cx="337.766" cy="282.22" rx="39.589" ry="51.988"/>
</g>
<path style="fill:#7C665D;" d="M256.001,282.76c75.083,0,108.453,100.191,91.768,133.663c-21.07,42.27-63.09,25.463-91.768,25.463
	c-28.678,0-70.697,16.806-91.768-25.463C147.547,382.951,180.917,282.76,256.001,282.76z"/>
<circle cx="168.023" cy="271.999" r="19.996"/>
<circle cx="343.984" cy="271.999" r="19.996"/>
<path style="fill:#464655;" d="M304.056,376.606c-0.006,17.594-26.027,35.554-48.052,35.546v-0.005
	c-22.024-0.009-48.061-17.983-48.055-35.576c0.007-17.594,18.033-28.41,40.057-28.401l16.017,0.006
	C286.047,348.184,304.062,359.013,304.056,376.606z"/>
<path d="M347.431,412.98c-4.015-1.841-8.763-0.077-10.603,3.938c-11.539,25.179-31.48,24.818-60.581,21.392
	c-4.22-0.497-8.299-0.973-12.249-1.283V419.51c23.292-3.572,48.047-21.882,48.055-42.902c0.008-21.099-20.192-36.421-48.028-36.431
	l-16.045-0.006c-27.823,0-48.022,15.307-48.03,36.396c-0.007,21.022,24.748,39.348,48.052,42.935v17.525
	c-3.95,0.31-8.028,0.786-12.249,1.283c-29.103,3.426-49.04,3.786-60.58-21.392c-1.841-4.015-6.588-5.78-10.603-3.938
	c-4.016,1.84-5.78,6.587-3.938,10.603c17.252,37.646,51.781,33.582,76.992,30.615c6.654-0.784,12.939-1.523,18.377-1.523
	c5.438,0,11.723,0.74,18.378,1.523c7.315,0.86,15.414,1.814,23.648,1.814c20.145,0,41.097-5.707,53.343-32.429
	C353.21,419.566,351.446,414.82,347.431,412.98z M215.945,376.574c0.005-13.396,16.119-20.405,32.056-20.405l16.017,0.006
	c15.924,0.006,32.043,7.024,32.038,20.429c-0.005,12.302-21.881,27.412-39.792,27.55c-0.086-0.003-0.172-0.004-0.259-0.004
	C238.03,404.142,215.941,388.937,215.945,376.574z"/>
<path d="M506.442,94.948c-14.119-46.104-51.724-85.731-78.877-83.132c-21.601,2.064-50.654,34.082-88.817,97.885
	c-0.175,0.293-0.33,0.595-0.465,0.903c-2.43,3.573-5.378,4.869-10.779,4.869c-6.656,0-19.042-6.974-23.946-25.687
	c-1.12-4.273-5.49-6.827-9.765-5.71c-4.273,1.121-6.829,5.492-5.709,9.765c0.413,1.574,0.874,3.097,1.378,4.576
	c-11.652-5.424-23.011-19.235-25.259-31.629c-0.007-0.041-0.02-0.079-0.028-0.119c-0.033-0.167-0.072-0.33-0.115-0.493
	c-0.027-0.101-0.053-0.201-0.083-0.3c-0.044-0.142-0.093-0.281-0.145-0.42c-0.042-0.116-0.084-0.231-0.132-0.343
	c-0.048-0.114-0.102-0.226-0.155-0.338c-0.061-0.128-0.122-0.255-0.189-0.38c-0.052-0.095-0.108-0.187-0.164-0.279
	c-0.078-0.129-0.155-0.259-0.239-0.383c-0.061-0.089-0.126-0.175-0.19-0.263c-0.087-0.117-0.173-0.235-0.266-0.347
	c-0.078-0.095-0.162-0.185-0.244-0.275c-0.086-0.095-0.171-0.191-0.262-0.282c-0.102-0.102-0.209-0.197-0.315-0.293
	c-0.081-0.072-0.159-0.146-0.242-0.214c-0.122-0.101-0.249-0.195-0.376-0.289c-0.078-0.057-0.154-0.116-0.234-0.169
	c-0.132-0.089-0.269-0.172-0.406-0.253c-0.086-0.051-0.171-0.104-0.259-0.152c-0.128-0.069-0.261-0.133-0.394-0.196
	c-0.108-0.052-0.215-0.104-0.326-0.15c-0.113-0.048-0.23-0.091-0.347-0.134c-0.139-0.051-0.279-0.101-0.421-0.145
	c-0.096-0.029-0.194-0.055-0.292-0.08c-0.167-0.044-0.334-0.085-0.505-0.118c-0.038-0.008-0.075-0.02-0.113-0.026
	c-0.053-0.01-0.106-0.013-0.159-0.021c-0.17-0.028-0.341-0.051-0.513-0.067c-0.107-0.01-0.214-0.017-0.321-0.023
	c-0.147-0.008-0.295-0.013-0.443-0.012c-0.136,0-0.271,0.004-0.405,0.011c-0.119,0.007-0.238,0.015-0.358,0.026
	c-0.161,0.016-0.321,0.038-0.48,0.063c-0.059,0.01-0.117,0.012-0.176,0.023c-0.042,0.007-0.083,0.021-0.125,0.029
	c-0.161,0.032-0.319,0.07-0.477,0.111c-0.107,0.028-0.213,0.056-0.318,0.088c-0.134,0.041-0.265,0.087-0.396,0.136
	c-0.125,0.045-0.249,0.09-0.37,0.141c-0.104,0.044-0.205,0.093-0.307,0.142c-0.138,0.065-0.276,0.131-0.41,0.204
	c-0.084,0.046-0.165,0.097-0.247,0.145c-0.141,0.084-0.281,0.168-0.416,0.26c-0.078,0.053-0.152,0.11-0.228,0.166
	c-0.129,0.094-0.258,0.189-0.381,0.291c-0.083,0.069-0.162,0.143-0.242,0.215c-0.106,0.096-0.213,0.191-0.314,0.293
	c-0.092,0.092-0.179,0.189-0.266,0.286c-0.081,0.089-0.163,0.177-0.24,0.27c-0.095,0.114-0.183,0.234-0.271,0.354
	c-0.063,0.084-0.126,0.167-0.186,0.255c-0.086,0.127-0.165,0.259-0.244,0.391c-0.054,0.091-0.109,0.18-0.159,0.271
	c-0.068,0.126-0.131,0.257-0.193,0.387c-0.052,0.11-0.105,0.219-0.152,0.331c-0.048,0.114-0.091,0.231-0.134,0.348
	c-0.051,0.139-0.1,0.276-0.143,0.416c-0.03,0.101-0.057,0.201-0.083,0.303c-0.043,0.163-0.082,0.326-0.115,0.492
	c-0.008,0.041-0.021,0.079-0.028,0.119c-2.299,12.677-14.131,26.838-26.057,31.988c0.553-1.591,1.061-3.232,1.507-4.935
	c1.12-4.273-1.437-8.644-5.709-9.765c-4.276-1.121-8.645,1.437-9.765,5.71c-4.904,18.713-17.29,25.687-23.947,25.687
	c-5.397,0-8.344-1.294-10.774-4.863c-0.135-0.311-0.292-0.614-0.468-0.909c-38.165-63.803-67.216-95.822-88.818-97.885
	C57.288,9.218,19.677,48.843,5.558,94.948c-14.67,47.903,0.019,87.972,40.302,109.932c1.136,0.619,2.369,1.159,3.772,1.649
	c10.975,3.836,19.825,8.966,16.949,31.675c-0.023,0.126-0.05,0.249-0.073,0.375c-0.065,0.354-0.098,0.707-0.116,1.058
	c-0.12,0.835-0.252,1.689-0.403,2.57c-9.044,52.906,3.022,110.209,33.106,157.214c13.438,20.996,37.053,49.823,73.238,67.916
	c8.415,4.207,15.63,8.382,22.607,12.42c19.054,11.026,35.509,20.548,61.06,20.548c25.953,0,42.175-9.466,60.957-20.427
	c6.986-4.077,14.21-8.292,22.71-12.542c36.185-18.093,59.8-46.92,73.238-67.916c30.082-47.006,42.15-104.308,33.106-157.214
	c-0.149-0.871-0.28-1.716-0.399-2.541c-0.017-0.36-0.05-0.722-0.117-1.087c-0.026-0.142-0.056-0.278-0.083-0.42
	c-2.857-22.671,5.989-27.795,16.956-31.629c1.401-0.49,2.634-1.03,3.772-1.65C506.423,182.919,521.113,142.851,506.442,94.948z
	 M458.485,190.833c-0.362,0.197-0.832,0.397-1.396,0.595c-7.861,2.749-16.098,6.872-21.62,14.852
	c-7.171-15.907-16.211-27.88-24.043-38.246c-13.638-18.05-19.352-26.628-11.862-40.833c2.061-3.907,0.563-8.745-3.344-10.806
	c-3.907-2.06-8.745-0.563-10.806,3.345c-12.546,23.796-0.017,40.379,13.249,57.936c11.301,14.957,25.34,33.55,30.978,63.174
	c0.171,1.318,0.365,2.659,0.603,4.049c8.381,49.029-2.849,102.206-30.811,145.897c-12.353,19.303-33.993,45.768-66.918,62.23
	c-8.962,4.481-16.749,9.025-23.62,13.034c-18.151,10.593-31.266,18.246-52.893,18.246c-21.255,0-34.591-7.717-53.047-18.398
	c-6.85-3.964-14.615-8.457-23.466-12.882c-32.927-16.463-54.565-42.929-66.918-62.231c-27.962-43.69-39.192-96.868-30.811-145.897
	c0.235-1.377,0.427-2.705,0.598-4.011c5.633-29.645,19.681-48.248,30.986-63.212c13.266-17.557,25.795-34.14,13.248-57.936
	c-2.061-3.908-6.896-5.406-10.806-3.345c-3.907,2.061-5.405,6.897-3.344,10.806c7.489,14.205,1.776,22.783-11.862,40.833
	c-7.832,10.366-16.872,22.339-24.044,38.249c-5.523-7.982-13.76-12.105-21.621-14.854c-0.566-0.198-1.037-0.398-1.397-0.595
	c-45.178-24.628-39.856-67.712-32.663-91.202c12.252-40.009,44.88-73.523,62.059-71.892c7.196,0.688,28.965,10.764,75.95,89.07
	c0.153,0.378,0.336,0.747,0.549,1.103c5.457,9.122,13.66,13.557,25.08,13.557c10.097,0,21.881-6.108,30.364-17.951
	c1.48,1.479,3.499,2.357,5.643,2.357c0.662,0,1.334-0.083,2.005-0.255c12.829-3.312,25.707-14.015,33.831-26.789
	c8.123,12.774,21.001,23.477,33.831,26.789c0.671,0.173,1.343,0.255,2.005,0.255c1.959,0,3.806-0.744,5.242-1.996
	c8.462,11.601,20.102,17.589,30.094,17.589c11.42,0,19.625-4.435,25.08-13.557c0.212-0.354,0.394-0.72,0.546-1.094
	c46.986-78.308,68.758-88.392,75.955-89.078c17.146-1.638,49.807,31.882,62.059,71.892
	C498.34,123.121,503.663,166.205,458.485,190.833z"/>
<g>
</g>
<g>
</g>
<g>
</g>
<g>
</g>
<g>
</g>
<g>
</g>
<g>
</g>
<g>
</g>
<g>
</g>
<g>
</g>
<g>
</g>
<g>
</g>
<g>
</g>
<g>
</g>
<g>
</g>
</svg>
