<?xml version="1.0" encoding="iso-8859-1"?>
<!-- Generator: Adobe Illustrator 19.0.0, SVG Export Plug-In . SVG Version: 6.00 Build 0)  -->
<svg version="1.1" id="Layer_1" xmlns="http://www.w3.org/2000/svg" xmlns:xlink="http://www.w3.org/1999/xlink" x="0px" y="0px"
	 viewBox="0 0 512 512" style="enable-background:new 0 0 512 512;" xml:space="preserve">
<path style="fill:#CCCBCD;" d="M256,12C123.452,12,16,169.073,16,294.961c0,99.245,66.783,149.48,159.996,166.299h160.009
	C429.217,444.442,496,394.207,496,294.961C496,169.073,388.548,12,256,12z"/>
<path style="fill:#9F9CA1;" d="M256,380L256,380c-75.111,0-136-60.889-136-136V140c0-22.091,17.909-40,40-40h192
	c22.091,0,40,17.909,40,40v104C392,319.111,331.111,380,256,380z"/>
<path style="fill:#464655;" d="M256,441c-27.544-0.605-89.989-6.16-96-37.625V404c0,53.019,42.98,96,96,96l0,0
	c53.02,0,96-42.981,96-96v-3.687C346.958,434.034,271.01,441.33,256,441z"/>
<path style="fill:#6B676E;" d="M343.999,90L280,88l-24,10l-24-10l-63.998,2L121,106v64c0,17.756,24.667,33.223,39,41.526V368v25l0,0
	c-0.644,3.739-0.608,7.189,0,10.375c6.011,31.465,68.456,37.02,96,37.625c15.01,0.33,90.958-6.966,96-40.687
	c0.346-2.313,0.364-4.747,0-7.313V211.526c14.333-8.303,40-23.77,40-41.526v-64L343.999,90z"/>
<g>
	<circle style="fill:#FF825F;" cx="200" cy="124" r="16"/>
	<circle style="fill:#FF825F;" cx="312" cy="124" r="16"/>
</g>
<path style="fill:#464655;" d="M368,88c-4.617,0-10.531-2.656-17.383-5.734C340.445,77.688,327.789,72,312,72
	s-28.445,5.688-38.617,10.266C266.531,85.344,260.617,88,256,88s-10.531-2.656-17.383-5.734C228.445,77.688,215.789,72,200,72
	s-28.445,5.688-38.617,10.266C154.531,85.344,148.617,88,144,88c-6.625,0-12,5.375-12,12s5.375,12,12,12
	c9.766,0,18.641-3.992,27.219-7.844C180.141,100.148,189.359,96,200,96c24,0,32,28,56,28s32-28,56-28
	c10.641,0,19.859,4.148,28.781,8.156C349.359,108.008,358.234,112,368,112c6.625,0,12-5.375,12-12S374.625,88,368,88z"/>
<g>
	<path style="fill:#6B676E;" d="M400,72c0,0,20-32,32-32s16,96,16,96"/>
	<path style="fill:#6B676E;" d="M80,40c-12,0-16,96-16,96l48-64C112,72,92,40,80,40z"/>
</g>
<path d="M278.906,456.076c-8.673,1.198-16.808,1.857-22.906,1.857s-14.232-0.66-22.906-1.857c-4.373-0.604-8.414,2.454-9.019,6.831
	c-0.604,4.376,2.454,8.415,6.831,9.019c9.375,1.295,18.288,2.008,25.094,2.008c6.806,0,15.719-0.713,25.094-2.008
	c4.377-0.604,7.435-4.643,6.831-9.019C287.32,458.53,283.282,455.471,278.906,456.076z"/>
<path d="M236.833,346.425c-4.013-2.813-12.364-8.667-12.97-11.899c-0.814-4.343-4.992-7.209-9.337-6.389
	c-4.343,0.814-7.203,4.995-6.389,9.337c1.808,9.643,11.625,16.523,19.512,22.052c1.704,1.194,3.935,2.758,5.021,3.686
	c1.237,2.819,4.053,4.788,7.329,4.788c4.418,0,8-3.582,8-8C248,354.252,243.316,350.969,236.833,346.425z"/>
<path d="M297.474,328.137c-4.344-0.82-8.523,2.046-9.337,6.389c-0.606,3.232-8.957,9.085-12.97,11.899
	C268.684,350.969,264,354.252,264,360c0,4.418,3.582,8,8,8c3.276,0,6.092-1.969,7.329-4.788c1.086-0.927,3.317-2.491,5.021-3.686
	c7.888-5.529,17.705-12.41,19.512-22.052C304.677,333.132,301.817,328.951,297.474,328.137z"/>
<path d="M224,128c0-13.234-10.766-24-24-24s-24,10.766-24,24s10.766,24,24,24S224,141.234,224,128z M200,136c-4.411,0-8-3.589-8-8
	s3.589-8,8-8s8,3.589,8,8C208,132.411,204.411,136,200,136z"/>
<path d="M312,104c-13.234,0-24,10.766-24,24s10.766,24,24,24s24-10.766,24-24S325.234,104,312,104z M312,136c-4.411,0-8-3.589-8-8
	s3.589-8,8-8s8,3.589,8,8C320,132.411,316.411,136,312,136z"/>
<path d="M354.663,88.456C353.684,88.111,330.218,80,288,80c-14.688,0-25.162,3.487-32,10.631C249.162,83.487,238.688,80,224,80
	c-42.218,0-65.684,8.111-66.663,8.456c-4.16,1.468-6.337,6.023-4.879,10.186c1.459,4.163,6.019,6.357,10.187,4.908
	C162.862,103.475,184.808,96,224,96c10.188,0,17.16,2.009,20.72,5.971c1.61,1.792,2.673,4.172,3.208,7.173
	c-0.36,3.456-0.333,7.218,0.082,11.307c-0.042,4.014-0.065,21.522-0.009,103.554c0.003,4.417,3.584,7.995,8,7.995
	c0.001,0,0.004,0,0.005,0c4.418-0.003,7.998-3.587,7.995-8.005c-0.019-27.389-0.056-98.142-0.007-103.506
	c0.419-4.109,0.444-7.884,0.082-11.354c0.534-2.996,1.597-5.373,3.206-7.163C270.84,98.009,277.812,96,288,96
	c39.192,0,61.138,7.475,61.337,7.544c4.167,1.469,8.736-0.715,10.207-4.881S358.829,89.927,354.663,88.456z"/>
<path d="M455.921,134.084c-0.271-5.761-1.333-26.444-3.464-46.913c-1.485-14.256-3.2-25.681-5.097-33.958
	C445.782,46.328,442.499,32,432,32c-7.715,0-16.202,6.023-26.709,18.955c-2.987,3.677-5.655,7.327-7.721,10.285
	c-13.935-12.927-28.66-24.021-44.077-33.144C321.985,9.453,289.183,0,256,0s-65.985,9.453-97.493,28.097
	c-15.417,9.123-30.142,20.217-44.077,33.144c-2.066-2.958-4.734-6.608-7.721-10.285C96.202,38.023,87.715,32,80,32
	c-10.499,0-13.782,14.328-15.36,21.213c-1.897,8.277-3.612,19.703-5.097,33.958c-2.132,20.469-3.193,41.152-3.464,46.913
	C25.568,185.125,8,243.3,8,296c0,50.229,15.97,91.218,47.467,121.828c28.146,27.353,68.211,45.959,119.083,55.301
	c0.162,0.03,0.323,0.044,0.484,0.063C194.115,496.842,223.318,512,256,512c32.68,0,61.883-15.157,80.963-38.804
	c0.162-0.02,0.324-0.037,0.486-0.066c50.872-9.342,90.938-27.948,119.083-55.301C488.03,387.218,504,346.229,504,296
	C504,243.3,486.432,185.125,455.921,134.084z M429.577,49.09c1.669,4.4,4.72,15.945,7.502,45.121
	c0.426,4.471,0.801,8.887,1.127,13.084c-2.024-2.778-4.076-5.535-6.181-8.248c-7.321-9.437-14.952-18.264-22.868-26.464
	C416.305,61.9,424.729,52.271,429.577,49.09z M256,16c40.127,0,79.841,15.315,115.771,44C344.47,53.509,294.093,48,256,48
	c-38.094,0-88.471,5.51-115.771,12C176.159,31.316,215.873,16,256,16z M74.92,94.211c2.777-29.12,5.822-40.676,7.493-45.096
	c4.902,3.211,13.303,12.815,20.428,23.468c-7.916,8.2-15.546,17.027-22.868,26.464c-2.104,2.713-4.156,5.47-6.181,8.248
	C74.12,103.098,74.494,98.683,74.92,94.211z M256,496c-41.053,0-75.626-28.258-85.301-66.344C198.066,442.126,235.768,448,256,448
	s57.934-5.874,85.301-18.344C331.626,467.742,297.053,496,256,496z M349.066,454.379C356.058,440.408,360,424.657,360,408V240
	c0-0.207-0.009-0.423-0.025-0.628c-0.751-9.686,0.958-22.26,4.613-24.818c3.62-2.534,4.5-7.522,1.966-11.142
	c-2.534-3.619-7.522-4.5-11.142-1.966c-12.819,8.973-11.83,33.226-11.412,38.86V408c0,0.754-0.01,1.505-0.028,2.255
	C320.387,424.448,278.127,432,256,432s-64.387-7.552-87.971-21.745C168.01,409.505,168,408.754,168,408V240.307
	c0.417-5.635,1.407-29.887-11.412-38.86c-3.619-2.533-8.607-1.653-11.142,1.966c-2.534,3.62-1.654,8.608,1.966,11.142
	c3.654,2.558,5.364,15.132,4.613,24.808C152.008,239.574,152,239.787,152,240v168c0,16.657,3.942,32.408,10.934,46.379
	C96.428,438.946,24,398.58,24,296c0-61.802,25.65-131.763,68.615-187.145c6.368-8.208,12.961-15.893,19.736-23.074
	c-0.203,0.705-0.318,1.448-0.318,2.219v72c0,1.735-0.009,3.338-0.018,4.829c-0.085,14.552-0.124,21.194,10.072,32.522
	c1.58,1.755,3.76,2.648,5.949,2.648c1.907,0,3.82-0.678,5.349-2.054c3.284-2.956,3.55-8.014,0.595-11.298
	c-6.052-6.725-6.044-8.145-5.965-21.726c0.009-1.52,0.019-3.154,0.019-4.923v-56.015c3.076,0.173,6.11-1.445,7.592-4.37
	c1.997-3.941,0.421-8.755-3.521-10.752c-2.596-1.315-3.929-3.775-3.904-5.525c0.023-1.578,1.266-2.958,3.694-4.1
	C144.684,73.221,205.37,64,256,64s111.317,9.221,124.106,15.239c2.428,1.143,3.671,2.522,3.694,4.1
	c0.025,1.75-1.307,4.209-3.904,5.525c-3.941,1.997-5.517,6.811-3.52,10.752c1.41,2.782,4.223,4.386,7.143,4.386
	c0.16,0,0.321-0.018,0.481-0.028V160c0,1.769,0.01,3.403,0.019,4.923c0.079,13.581,0.087,15-5.965,21.726
	c-2.956,3.284-2.689,8.342,0.595,11.298c1.529,1.376,3.442,2.054,5.349,2.054c2.189,0,4.369-0.893,5.949-2.648
	c10.196-11.329,10.157-17.97,10.072-32.522c-0.01-1.493-0.019-3.096-0.019-4.831V88c0-0.754-0.111-1.48-0.306-2.171
	c6.76,7.168,13.337,14.836,19.691,23.026C462.35,164.237,488,234.198,488,296C488,398.58,415.572,438.946,349.066,454.379z"/>
<g>
</g>
<g>
</g>
<g>
</g>
<g>
</g>
<g>
</g>
<g>
</g>
<g>
</g>
<g>
</g>
<g>
</g>
<g>
</g>
<g>
</g>
<g>
</g>
<g>
</g>
<g>
</g>
<g>
</g>
</svg>
