<?xml version="1.0" encoding="iso-8859-1"?>
<!-- Generator: Adobe Illustrator 19.0.0, SVG Export Plug-In . SVG Version: 6.00 Build 0)  -->
<svg version="1.1" id="Layer_1" xmlns="http://www.w3.org/2000/svg" xmlns:xlink="http://www.w3.org/1999/xlink" x="0px" y="0px"
	 viewBox="0 0 512 512" style="enable-background:new 0 0 512 512;" xml:space="preserve">
<path style="fill:#FFCD9B;" d="M255.726,384.748c-11.644-0.08-32.129-3.814-51.858-11.98
	c-25.288-10.469-43.186-25.667-51.757-43.954c-0.628-1.34,0.153-3.68,0.674-4.955l4.51-11.028H119.88
	c-28.414,0-58.58-28.675-71.923-47.949C27.755,235.702,8,171.576,8,145.01c0-5.792,3.998-9.644,7.352-11.856
	c5.528-3.644,13.969-5.909,22.029-5.909c4.139,0,7.895,0.633,10.577,1.783c45.943,19.69,121.535,78.307,136.222,89.857l3.928,3.09
	l4.5-2.175c15.658-7.571,46.408-18.759,62.929-18.849c0.067,0.003,0.463,0.018,0.463,0.018s0.397-0.014,0.464-0.018
	c16.521,0.09,47.271,11.278,62.929,18.849l4.5,2.175l3.928-3.09c14.687-11.55,90.279-70.167,136.222-89.857
	c2.682-1.149,6.438-1.782,10.578-1.782c8.061,0,16.501,2.264,22.027,5.908c3.354,2.212,7.352,6.064,7.352,11.856
	c0,26.566-19.755,90.692-39.958,119.872c-13.343,19.274-43.509,47.949-71.923,47.949h-37.691l4.507,11.027
	c0.905,2.213,1.15,3.973,0.689,4.955c-8.572,18.287-26.469,33.486-51.758,43.955c-19.729,8.166-40.213,11.9-51.764,11.979
	l-0.285,0.004L255.726,384.748z"/>
<path style="fill:#FFBE64;" d="M323.056,222.771c-0.135-0.1-0.269-0.201-0.407-0.301c-0.788-0.565-1.629-1.124-2.517-1.675
	c-3.378-2.096-7.449-4.076-11.88-5.912c-14.873-6.76-34.069-11.343-46.482-12.563c0,0-2.266-0.319-5.515-0.319
	c-2.79,0-5.515,0.319-5.515,0.319c-12.414,1.22-31.61,5.803-46.482,12.563c-4.431,1.836-8.502,3.816-11.879,5.912
	c-0.888,0.551-1.729,1.109-2.517,1.675c-0.139,0.1-0.272,0.201-0.408,0.301c-4.76,3.521-7.453,7.312-6.7,11.229l0.477,0.497
	c-0.291,1.642,0.315,3.314,1.59,4.39l10.221,8.615c0.101,0.084,0.207,0.166,0.314,0.241C255.891,290.076,237.704,307,237.704,307
	h0.663h17.557h0.663h17.557h0.663c0,0-18.187-16.925,42.348-59.257c0,0,6.351-5.254,8.727-7.743c0.916-0.959,3.489-4.731,3.875-6
	C330.916,230.183,327.816,226.291,323.056,222.771z"/>
<g>
	<path style="fill:#FF9F82;" d="M334.393,215.028c-4.585,3.596-6.475,9.645-4.761,15.214c0,0,2.368,29.756,13.103,42.58
		c15.178,18.132,27.73,38.009,51.248,38.009c31.925,0,61.885-34.586,70.726-47.432c20.66-30.02,39.225-92.665,39.289-118.441
		c0-0.044,0.003-0.094,0.003-0.139c0-11.612-16.013-17.528-28.739-17.569c-4.061-0.013-7.791,0.567-10.553,1.758
		C423.091,146.951,357.687,196.762,334.393,215.028z"/>
	<path style="fill:#FF9F82;" d="M169.996,274.408c5.68-8.281,11.878-38.371,11.878-38.371c0.619-2,0.919-4.041,0.94-6.063
		c0.067-6.537-2.883-12.879-8.237-17.018c-26.433-20.434-88.432-66.705-128.619-83.929c-2.531-1.084-5.856-1.672-9.508-1.768
		C23.337,126.912,6,132.9,6,145.01c0,25.972,18.911,89.472,39.958,119.872c8.99,12.986,39.458,47.949,71.923,47.949l0,0
		c0.178-0.014,0.349-0.034,0.525-0.049C142.178,310.786,154.614,296.833,169.996,274.408z"/>
</g>
<path style="fill:#FFDEB7;" d="M255.736,304.839c-14.72,0-33.376,23.36-40.606,44.282c-1.225,2.347-1.948,4.837-2.092,7.425
	c-1.773,8.332-1.236,15.698,2.741,20.216c0,0,10.388,7.236,39.222,7.236c28.167,0,40.693-7.236,40.693-7.236
	C310.344,360.114,278.378,304.839,255.736,304.839z"/>
<path d="M243.331,367.936c-1.148,0.574-2.369,0.846-3.571,0.846c-2.935,0-5.76-1.621-7.162-4.424
	c-1.976-3.952-0.374-8.757,3.578-10.733l11.561-5.78v-11.03c-4.415-0.004-7.992-3.584-7.992-8c0-4.418,3.582-8,8-8h15.983
	c4.418,0,8,3.582,8,8c0,4.415-3.577,7.995-7.991,8v11.03l11.561,5.78c3.952,1.977,5.554,6.782,3.578,10.733
	c-1.401,2.803-4.227,4.424-7.162,4.424c-1.202,0-2.423-0.272-3.571-0.846l-12.405-6.203L243.331,367.936z M223.778,296.848
	c0,8.818-7.174,15.992-15.992,15.992c-8.817,0-15.991-7.174-15.991-15.992s7.174-15.991,15.991-15.991
	C216.604,280.857,223.778,288.03,223.778,296.848z M319.676,296.848c0,8.818-7.174,15.992-15.991,15.992
	c-8.818,0-15.992-7.174-15.992-15.992s7.174-15.991,15.992-15.991C312.502,280.857,319.676,288.03,319.676,296.848z M512,145.01
	c0,28.232-20.066,93.641-41.38,124.426c-12.307,17.776-44.551,51.396-78.5,51.396h-25.779c1.81,4.427,2.001,8.235,0.528,11.378
	c-9.434,20.125-28.778,36.706-55.941,47.95c-20.791,8.605-42.374,12.503-54.769,12.587c-0.053,0.001-0.104,0.008-0.158,0.008
	c-0.042,0-0.09-0.002-0.132-0.002s-0.09,0.002-0.132,0.002c-0.053,0-0.105-0.007-0.158-0.008
	c-12.396-0.084-33.979-3.982-54.769-12.587c-27.164-11.244-46.508-27.825-55.941-47.95c-1.474-3.145-1.298-6.949,0.513-11.378h-25.5
	c-33.95,0-66.194-33.619-78.5-51.396C20.066,238.65,0,173.242,0,145.01c0-7.297,3.888-13.879,10.948-18.535
	c10.968-7.232,29.359-9.43,40.161-4.801c46.246,19.82,119.792,76.59,138.016,90.923c15.254-7.375,47.78-19.646,66.611-19.646
	c0.089,0,0.176,0.011,0.264,0.014c0.088-0.003,0.175-0.014,0.264-0.014c18.831,0,51.357,12.272,66.611,19.646
	c18.224-14.333,91.771-71.103,138.016-90.923c10.803-4.628,29.194-2.431,40.161,4.801C508.112,131.13,512,137.713,512,145.01z
	 M221.113,370.437c14.489,4.436,27.6,6.294,34.755,6.316c7.103-0.022,20.077-1.855,34.441-6.222
	c1.991-3.758,1.568-12.68-4.033-25.072c-8.69-19.223-23.07-32.62-30.541-32.62s-21.851,13.396-30.541,32.619
	C219.639,357.749,219.178,366.626,221.113,370.437z M496,145.01c0-0.668,0-2.701-3.756-5.177c-7.023-4.631-19.644-5.77-25.05-3.452
	c-50,21.428-134.809,89.065-138.395,91.933c-0.022,0.018-0.045,0.032-0.068,0.049c-0.088,0.07-0.181,0.131-0.272,0.196
	c-0.177,0.127-0.356,0.248-0.541,0.358c-0.089,0.054-0.179,0.106-0.27,0.156c-0.227,0.125-0.458,0.238-0.693,0.339
	c-0.05,0.021-0.098,0.046-0.148,0.066c-0.303,0.123-0.61,0.227-0.921,0.31c-0.04,0.011-0.08,0.018-0.12,0.028
	c-0.266,0.067-0.533,0.119-0.803,0.158c-0.086,0.013-0.173,0.024-0.26,0.034c-0.247,0.028-0.494,0.044-0.741,0.049
	c-0.056,0.001-0.111,0.011-0.167,0.011c-0.019,0-0.038-0.003-0.057-0.003c-0.291-0.002-0.581-0.021-0.869-0.055
	c-0.097-0.011-0.193-0.031-0.289-0.046c-0.207-0.032-0.412-0.07-0.616-0.118c-0.106-0.025-0.211-0.053-0.317-0.082
	c-0.226-0.063-0.448-0.137-0.667-0.219c-0.066-0.026-0.133-0.046-0.199-0.073c-0.298-0.122-0.589-0.261-0.872-0.419
	c-0.009-0.005-0.019-0.008-0.028-0.013c-10.602-5.963-46.542-20.089-63.616-20.089c-0.089,0-0.176-0.01-0.264-0.013
	c-0.088,0.003-0.175,0.013-0.264,0.013c-17.073,0-53.014,14.126-63.616,20.089c-0.01,0.006-0.021,0.009-0.031,0.015
	c-0.281,0.156-0.57,0.295-0.866,0.415c-0.07,0.029-0.142,0.051-0.212,0.078c-0.215,0.081-0.431,0.153-0.651,0.214
	c-0.11,0.031-0.22,0.06-0.33,0.085c-0.196,0.046-0.394,0.083-0.593,0.114c-0.104,0.016-0.207,0.038-0.311,0.05
	c-0.285,0.033-0.571,0.051-0.858,0.054c-0.021,0-0.042,0.003-0.063,0.003c-0.061,0-0.121-0.011-0.182-0.012
	c-0.241-0.005-0.48-0.021-0.72-0.047c-0.091-0.011-0.181-0.022-0.271-0.036c-0.264-0.039-0.526-0.09-0.786-0.155
	c-0.045-0.011-0.09-0.02-0.135-0.031c-0.31-0.084-0.615-0.187-0.915-0.309c-0.054-0.021-0.105-0.048-0.159-0.071
	c-0.231-0.1-0.459-0.21-0.683-0.334c-0.093-0.051-0.184-0.104-0.275-0.159c-0.182-0.11-0.36-0.229-0.536-0.355
	c-0.092-0.066-0.186-0.128-0.275-0.199c-0.022-0.017-0.045-0.031-0.067-0.048c-3.586-2.868-88.395-70.505-138.395-91.933
	c-5.405-2.317-18.027-1.179-25.05,3.452C16,142.309,16,144.342,16,145.01c0,23.015,17.636,85.131,38.535,115.318
	c8.569,12.378,37.013,44.503,65.345,44.503h7.706c2.631-0.708,11.972-7.404,23.518-20.943c11.53-13.521,16.717-23.927,16.717-26.997
	v-8.139c0-4.418,3.582-8,8-8s8,3.582,8,8v0.148c0,2.604-1.244,4.917-3.171,6.378l3.171,1.613c0,12.434-15.17,31.217-21.693,38.715
	c-2.367,2.721-5.332,5.975-8.608,9.226h6.583c3.12,0,5.956,1.814,7.264,4.647s0.849,6.168-1.176,8.542
	c-2.56,3.014-5.153,6.892-6.064,8.979c8.814,17.373,26.126,29.329,43.988,37.161c0.126-7.387,2.295-15.987,6.502-25.292
	c9.151-20.242,27.174-42.028,45.12-42.028c17.947,0,35.969,21.786,45.12,42.029c4.229,9.356,6.395,17.996,6.5,25.409
	c17.956-7.828,35.396-19.819,44.254-37.278c-0.911-2.087-3.505-5.966-6.069-8.984c-2.858-3.366-2.452-8.414,0.911-11.274
	c1.529-1.301,3.404-1.92,5.264-1.901c0.061-0.001,0.121-0.009,0.182-0.009h6.054c-3.276-3.25-6.242-6.505-8.608-9.226
	c-6.522-7.498-21.693-26.281-21.693-38.715v-8.139c0-4.418,3.582-8,8-8s8,3.582,8,8v0.148c0,2.604-1.244,4.917-3.171,6.378
	l3.171,1.613c0,3.07,5.187,13.476,16.717,26.997c11.545,13.54,20.887,20.235,23.518,20.943h8.235
	c28.332,0,56.776-32.125,65.345-44.502C478.365,230.141,496,168.025,496,145.01z"/>
<g>
</g>
<g>
</g>
<g>
</g>
<g>
</g>
<g>
</g>
<g>
</g>
<g>
</g>
<g>
</g>
<g>
</g>
<g>
</g>
<g>
</g>
<g>
</g>
<g>
</g>
<g>
</g>
<g>
</g>
</svg>
