<?xml version="1.0" encoding="iso-8859-1"?>
<!-- Generator: Adobe Illustrator 19.0.0, SVG Export Plug-In . SVG Version: 6.00 Build 0)  -->
<svg version="1.1" id="Layer_1" xmlns="http://www.w3.org/2000/svg" xmlns:xlink="http://www.w3.org/1999/xlink" x="0px" y="0px"
	 viewBox="0 0 512.002 512.002" style="enable-background:new 0 0 512.002 512.002;" xml:space="preserve">
<path style="fill:#E6E1D7;" d="M320.005,344c2.606-13.74,51.99-9.75,87.99-96c26.652-63.854-20-174.666-40-205.333
	S291.208,8,255.995,8h0.01c-35.213,0-92,4-112,34.667s-66.652,141.479-40,205.333c36,86.25,85.394,82.26,88,96H320.005z"/>
<g>
	<path style="fill:#F0EBE1;" d="M395.813,102.48c-9.572-26.529-20.483-48.569-27.817-59.814C347.996,12.002,291.214,8,256,8
		c-35.213,0-91.996,4.002-111.995,34.666c-7.331,11.242-18.238,33.271-27.809,59.791c-0.88,29.549,26.829,35.549,47.809,41.543v20
		h184v-20C368.978,138.008,396.676,132.008,395.813,102.48z"/>
	<polygon style="fill:#F0EBE1;" points="255.995,8 256,8 256.003,8 	"/>
</g>
<path style="fill:#FFAA55;" d="M328.005,272c-16-40-48-77-48-55.963c0,39.938,24.024,83.391,13.7,116.08
	c-1.195,3.784-6.537,3.536-7.701-0.258C281.865,318.372,271.438,304,256.005,304s-25.859,14.372-29.999,27.859
	c-1.164,3.794-6.506,4.042-7.701,0.258c-10.324-32.689,13.7-76.142,13.7-116.08c0-21.037-32,15.963-48,55.963
	c-10.81,27.025,8,36,8,168c0,44.666,22,64,64,64s64-19.334,64-64C320.005,308,338.815,299.025,328.005,272z"/>
<g>
	<path style="fill:#595966;" d="M256.005,472.125c-13.981,0-18.193,30.352-28.223,27.969c8.086,2.625,17.492,3.906,28.223,3.906
		s20.137-1.281,28.223-3.906C274.198,502.477,269.986,472.125,256.005,472.125z"/>
	<path style="fill:#595966;" d="M191.91,251.376c9.784-31.528,40.095-56.312,40.095-35.339c0,45.001-30.5,94.463-8,127.963
		c0-15,20.67-24,32-24c11.33,0,32,9,32,24c22.5-33.5-8-82.962-8-127.963c0-20.973,30.31,3.81,40.094,35.337
		C309.633,213.346,318.106,162.615,327,144c-20.907,4.352-53.121,15-70.995,15S205.907,148.352,185,144
		C193.894,162.615,202.377,213.347,191.91,251.376z"/>
</g>
<path d="M156.005,144c-7.402,0-12,7.663-12,20s4.598,20,12,20s12-7.663,12-20S163.407,144,156.005,144z"/>
<path d="M344.005,164c0,12.337,4.598,20,12,20s12-7.663,12-20s-4.598-20-12-20S344.005,151.663,344.005,164z"/>
<path d="M413.205,130.773c-10.859-39.62-27.574-75.71-38.509-92.477C358.124,12.887,318.191,0.002,256.007,0h-0.001
	c0,0,0,0.004-0.011,0c-62.185,0.002-102.118,12.887-118.689,38.297c-10.935,16.767-27.65,52.856-38.509,92.477
	c-9.473,34.563-17.54,83.491-2.173,120.308c26.215,62.807,56.933,80.072,73.435,89.349c3.292,1.851,7.364,4.14,8.294,5.33
	c0.267,1.185,0.792,2.245,1.495,3.147c2.253,21.353,4.158,50.384,4.158,91.093c0,35.954,13.725,58.564,40.876,67.555
	c0.309,0.118,0.624,0.225,0.953,0.306c0.031,0.008,0.061,0.01,0.092,0.017c8.692,2.734,18.71,4.123,30.079,4.123
	s21.387-1.389,30.08-4.123c0.031-0.007,0.06-0.009,0.091-0.017c0.329-0.081,0.645-0.188,0.953-0.306
	c27.151-8.99,40.876-31.601,40.876-67.555c0-40.711,1.906-69.744,4.159-91.097c0.7-0.901,1.219-1.963,1.485-3.144
	c0.93-1.19,5.002-3.479,8.294-5.33c16.502-9.276,47.22-26.542,73.435-89.349C430.745,214.265,422.678,165.336,413.205,130.773z
	 M204.993,197.065c-0.891-16.374-3.628-31.708-7.496-43.177C215.149,160.085,238.721,167,256.005,167s40.856-6.915,58.508-13.111
	c-3.868,11.469-6.605,26.803-7.496,43.177c-0.239,4.387-0.383,9.783-0.239,15.843c-7.802-8.333-16.342-13.58-23.632-12.489
	c-2.613,0.391-11.141,2.672-11.141,15.618c0,17.823,4.413,35.85,8.681,53.282c4.942,20.187,9.678,39.53,6.578,55.546
	C278.412,316.369,264.807,312,256.005,312s-22.407,4.369-31.259,12.865c-3.1-16.016,1.636-35.359,6.578-55.546
	c4.268-17.433,8.681-35.459,8.681-53.282c0-12.946-8.527-15.228-11.141-15.618c-7.293-1.085-15.832,4.161-23.632,12.49
	C205.376,206.849,205.232,201.452,204.993,197.065z M256.005,480.125c2.64,0,6.923,7.736,9.224,11.893
	c0.611,1.104,1.258,2.266,1.942,3.438c-3.499,0.357-7.209,0.545-11.166,0.545s-7.667-0.188-11.165-0.545
	c0.684-1.172,1.331-2.334,1.941-3.438C249.082,487.861,253.365,480.125,256.005,480.125z M298.188,483.005
	c-3.878,3.758-8.645,6.681-14.349,8.798c-1.353-1.656-3.263-5.096-4.612-7.534c-4.706-8.501-11.151-20.144-23.222-20.144
	s-18.516,11.643-23.222,20.144c-1.35,2.438-3.26,5.878-4.612,7.534c-5.704-2.117-10.471-5.04-14.349-8.798
	c-9.297-9.009-13.817-23.076-13.817-43.005c0-71.112-5.731-107.405-9.156-129.089c-2.907-18.413-4.002-25.357,0.425-35.563
	c3.553-6.959,6.247-14.268,8.273-21.589c5.568-17.958,17.873-31.873,24.444-36.147c-0.262,15.443-4.299,31.937-8.208,47.903
	c-7.109,29.037-14.46,59.063,1.581,82.946c1.514,2.253,4.026,3.54,6.642,3.54c0.776,0,1.561-0.113,2.331-0.349
	c3.367-1.025,5.668-4.132,5.668-7.652c0-9.083,15.996-16,24-16s24,6.917,24,16c0,3.521,2.301,6.627,5.668,7.652
	c0.771,0.235,1.555,0.349,2.331,0.349c2.615,0,5.128-1.287,6.642-3.54c16.041-23.883,8.689-53.909,1.581-82.946
	c-3.909-15.967-7.946-32.46-8.208-47.902c6.571,4.273,18.876,18.188,24.444,36.146c2.026,7.321,4.72,14.63,8.273,21.589
	c4.426,10.206,3.332,17.15,0.424,35.563c-3.424,21.684-9.156,57.977-9.156,129.089C312.005,459.929,307.485,473.996,298.188,483.005
	z M400.612,244.919c-23.623,56.597-49.609,72.047-65.569,81.034c0.681-4.686,1.336-8.841,1.921-12.547
	c3.036-19.227,4.709-29.887-1.499-44.29c-0.012-0.031-0.025-0.062-0.038-0.093c-0.034-0.077-0.06-0.151-0.094-0.229
	c-0.032-0.074-0.073-0.143-0.107-0.215c-0.038-0.081-0.069-0.163-0.11-0.243c-20.87-40.512-11.176-105.584-0.712-119.536
	c0.698-0.931,1.157-1.966,1.397-3.032c1.908-0.79,3.099-1.304,3.389-1.43c4.052-1.76,5.911-6.471,4.151-10.523
	c-1.759-4.052-6.471-5.91-10.523-4.153c-0.49,0.213-49.494,21.338-76.813,21.338s-76.323-21.125-76.815-21.339
	c-4.052-1.759-8.764,0.102-10.523,4.153c-1.759,4.053,0.099,8.764,4.151,10.523c0.29,0.126,1.481,0.64,3.389,1.43
	c0.241,1.066,0.7,2.102,1.398,3.032c10.464,13.952,20.158,79.024-0.712,119.536c-0.041,0.08-0.072,0.162-0.11,0.243
	c-0.035,0.072-0.075,0.141-0.107,0.215c-0.034,0.078-0.061,0.152-0.094,0.229c-0.012,0.031-0.026,0.062-0.038,0.093
	c-6.208,14.403-4.535,25.063-1.499,44.29c0.585,3.708,1.241,7.865,1.922,12.553c-15.958-8.986-41.951-24.432-65.579-81.04
	c-24.602-58.943,18.16-165.44,39.318-197.882C163.948,26.732,200.36,16,255.995,16c55.645,0,92.057,10.732,105.299,31.037
	C382.452,79.479,425.214,185.976,400.612,244.919z"/>
<g>
</g>
<g>
</g>
<g>
</g>
<g>
</g>
<g>
</g>
<g>
</g>
<g>
</g>
<g>
</g>
<g>
</g>
<g>
</g>
<g>
</g>
<g>
</g>
<g>
</g>
<g>
</g>
<g>
</g>
</svg>
