<?xml version="1.0" encoding="iso-8859-1"?>
<!-- Generator: Adobe Illustrator 19.0.0, SVG Export Plug-In . SVG Version: 6.00 Build 0)  -->
<svg version="1.1" id="Layer_1" xmlns="http://www.w3.org/2000/svg" xmlns:xlink="http://www.w3.org/1999/xlink" x="0px" y="0px"
	 viewBox="0 0 512 512" style="enable-background:new 0 0 512 512;" xml:space="preserve">
<path style="fill:#FFEBD2;" d="M495.965,60.033c-66.989,0-115.98,75.987-135.976,71.988
	c-29.324-16.649-64.591-23.996-103.982-23.996l0.207,1.016c-0.143,0-0.284,0.004-0.427,0.005l0.208-1.021
	c-39.39,0-74.658,7.348-103.982,23.996c-19.996,3.999-68.987-71.988-135.976-71.988c0,0-22.484,73.646,7.998,119.979
	c16.664,25.329,51.991,25.328,55.99,39.993c0,0.25,0,26.511,0,32.924c0,20.727,4.129,41.554,11.66,61.35
	c16.042,43.602,49.062,81.983,91.102,103.476c0.098,0.051,0.197,0.101,0.295,0.151c0.678,0.345,1.354,0.691,2.037,1.027
	c2.261,1.126,4.543,2.209,6.853,3.233l0.008-0.039c20.115,8.83,42.054,13.836,65.021,13.836
	c97.184,0,175.965-89.533,175.965-179.813c0-5.821-0.342-11.496-0.989-17.028c0-9.11,0-18.965,0-19.118
	c3.999-14.664,39.326-14.664,55.99-39.993C518.447,133.68,495.965,60.033,495.965,60.033z"/>
<circle style="fill:#DECDB6;" cx="258.799" cy="367.978" r="83.983"/>
<g>
	<circle style="fill:#595966;" cx="177.015" cy="275.996" r="55.989"/>
	<circle style="fill:#595966;" cx="335.983" cy="275.996" r="55.989"/>
</g>
<g>
	<circle style="fill:#FFD25F;" cx="177.015" cy="275.996" r="31.994"/>
	<circle style="fill:#FFD25F;" cx="336.983" cy="275.996" r="31.994"/>
</g>
<path style="fill:#595966;" d="M255.999,323.986c-26.245,0-69.986,36.238-69.986,81.535c0,36.916,40.673,31.713,60.459,23.619
	c6.144-2.513,12.91-2.513,19.053,0c19.787,8.093,60.46,13.296,60.46-23.619C325.985,360.224,282.244,323.986,255.999,323.986z"/>
<path style="fill:#BEAF9B;" d="M391.115,160.493c-9.625-12.849-25.847-29.097-50.944-39.168
	c-24.148-9.69-52.148-13.295-81.376-13.295s-57.228,3.605-81.376,13.295c-25.098,10.071-41.319,26.319-50.944,39.168
	c-4.885,6.521,1.22,15.396,9.075,13.237c64.452-17.711,123.245-17.711,123.245-17.711s58.792,0,123.245,17.711
	C389.895,175.889,396,167.013,391.115,160.493z"/>
<g>
	<path style="fill:#595966;" d="M56.028,148.018C20.702,124.921,14.112,95.697,14.009,77.43c-2.61-2.206-4.107-3.395-4.107-3.395
		c-0.761,8.739-22.868,120.833,65.744,140.972c2.075-6.296,3.122-8.945,6.294-14.687c2.832-5.127,4.664-10.591,5.521-16.154
		C84.269,167.259,72.177,158.577,56.028,148.018z"/>
	<path style="fill:#595966;" d="M497.684,59.403c0,0-0.543,0.451-1.536,1.303c1.585,6.128,11.775,53.345-40.176,87.314
		c-16.308,10.663-28.48,19.41-31.527,36.648c0.991,2.347,2.156,4.644,3.498,6.871c3.707,6.151,6.842,12.633,9.353,19.428
		C533.079,187.304,503.754,72.54,497.684,59.403z"/>
	<path style="fill:#595966;" d="M234.176,445.263c7.02,1.021,14.247,1.579,21.644,1.579c7.665,0,15.153-0.591,22.413-1.686
		c-9.487-2.922-16.53-6.72-21.762-10.976C251.128,438.488,243.924,442.328,234.176,445.263z"/>
</g>
<path d="M216,275.997c0-22.053-17.94-39.993-39.993-39.993c-22.052,0-39.992,17.94-39.992,39.993s17.94,39.993,39.992,39.993
	C198.06,315.99,216,298.049,216,275.997z M176.007,299.993c-13.231,0-23.995-10.765-23.995-23.996
	c0-13.231,10.765-23.996,23.995-23.996c13.231,0,23.996,10.765,23.996,23.996C200.003,289.228,189.238,299.993,176.007,299.993z"/>
<path d="M335.979,236.004c-22.052,0-39.992,17.94-39.992,39.993c0,22.053,17.94,39.993,39.992,39.993
	c22.053,0,39.993-17.94,39.993-39.993S358.032,236.004,335.979,236.004z M335.979,299.993c-13.231,0-23.995-10.765-23.995-23.996
	c0-13.231,10.765-23.996,23.995-23.996c13.231,0,23.996,10.765,23.996,23.996C359.976,289.228,349.211,299.993,335.979,299.993z"/>
<path d="M176.005,267.997c-2.1,0-4.169,0.85-5.659,2.34c-1.48,1.49-2.34,3.559-2.34,5.659c0,2.1,0.86,4.169,2.34,5.659
	c1.49,1.49,3.559,2.34,5.659,2.34c2.11,0,4.169-0.85,5.659-2.34c1.49-1.49,2.34-3.549,2.34-5.659c0-2.11-0.85-4.169-2.34-5.659
	C180.174,268.847,178.115,267.997,176.005,267.997z"/>
<path d="M335.983,267.997c-2.11,0-4.169,0.85-5.659,2.34c-1.49,1.49-2.34,3.549-2.34,5.659c0,2.11,0.85,4.169,2.34,5.659
	c1.49,1.49,3.549,2.34,5.659,2.34c2.1,0,4.159-0.85,5.649-2.34c1.49-1.49,2.35-3.549,2.35-5.659c0-2.11-0.86-4.169-2.35-5.659
	C340.143,268.847,338.083,267.997,335.983,267.997z"/>
<path d="M316.118,349.302c-6.599-3.985-12.477-8.652-18.161-13.166c-12.725-10.104-24.744-19.648-41.964-19.648
	c-17.395,0-30.303,10.254-42.786,20.17c-5.511,4.378-11.21,8.904-17.371,12.664c-3.77,2.302-4.962,7.224-2.661,10.995
	c2.302,3.77,7.223,4.963,10.995,2.661c7.004-4.274,13.096-9.114,18.987-13.793c11.28-8.96,21.021-16.699,32.836-16.699
	c11.641,0,20.633,7.14,32.016,16.179c6.079,4.827,12.365,9.818,19.839,14.332c1.293,0.781,2.719,1.153,4.127,1.153
	c2.708,0,5.352-1.377,6.855-3.864C321.114,356.503,319.9,351.586,316.118,349.302z"/>
<path d="M503.614,57.698c-0.002-0.008-0.006-0.015-0.009-0.022c-0.115-0.372-0.261-0.725-0.423-1.067
	c-0.032-0.068-0.063-0.136-0.097-0.203c-0.172-0.339-0.364-0.664-0.579-0.969c-0.03-0.042-0.063-0.081-0.093-0.123
	c-0.213-0.291-0.443-0.566-0.69-0.823c-0.027-0.028-0.052-0.059-0.08-0.086c-0.261-0.263-0.542-0.503-0.836-0.727
	c-0.062-0.047-0.125-0.093-0.188-0.139c-0.297-0.213-0.605-0.41-0.928-0.581c-0.042-0.022-0.086-0.04-0.129-0.061
	c-0.303-0.153-0.616-0.285-0.937-0.398c-0.065-0.023-0.129-0.05-0.196-0.071c-0.351-0.114-0.711-0.201-1.077-0.266
	c-0.068-0.012-0.137-0.022-0.206-0.032c-0.387-0.058-0.778-0.095-1.174-0.096c-0.003,0-0.006,0-0.009,0
	c-44.607,0-80.466,30.383-106.65,52.569c-7.324,6.206-13.648,11.564-18.975,15.226c-4.639,3.19-7.074,4.045-8.126,4.271
	c-28.962-15.976-64.68-24.074-106.207-24.074c-0.002,0-0.004,0-0.006,0c-0.002,0-0.004,0-0.006,0
	c-41.524,0-77.241,8.097-106.202,24.071c-1.066-0.226-3.499-1.084-8.131-4.269c-5.326-3.662-11.651-9.021-18.975-15.226
	C96.502,82.419,60.642,52.035,16.035,52.035c-0.002,0-0.004,0-0.006,0c-0.399,0-0.793,0.037-1.182,0.096
	c-0.066,0.01-0.131,0.019-0.197,0.03c-0.369,0.065-0.731,0.153-1.084,0.269c-0.063,0.021-0.125,0.045-0.188,0.068
	c-0.325,0.115-0.642,0.248-0.948,0.403c-0.04,0.02-0.082,0.037-0.122,0.058c-0.324,0.171-0.633,0.369-0.931,0.583
	c-0.063,0.045-0.125,0.09-0.186,0.137c-0.294,0.224-0.575,0.464-0.837,0.728c-0.028,0.028-0.053,0.059-0.08,0.087
	c-0.247,0.256-0.476,0.531-0.689,0.821c-0.031,0.042-0.064,0.082-0.094,0.125c-0.214,0.305-0.406,0.629-0.578,0.968
	c-0.035,0.067-0.065,0.136-0.098,0.204c-0.162,0.342-0.308,0.694-0.422,1.066c-0.002,0.008-0.006,0.015-0.009,0.022
	c-0.963,3.153-23.21,77.802,8.967,126.711c10.344,15.723,26.281,22.627,39.086,28.173c6.551,2.837,13.914,6.027,15.588,8.878v31.47
	c0,35.221,11.622,72.222,32.723,104.185c21.049,31.883,50.723,57.502,83.592,72.186c14.181,18.404,39.197,30.662,67.653,30.662
	c28.451,0,53.463-12.254,67.646-30.654c32.878-14.683,62.559-40.306,83.612-72.195c21.102-31.964,32.723-68.964,32.723-104.185
	v-31.47c1.674-2.851,9.037-6.041,15.588-8.878c12.805-5.547,28.742-12.452,39.086-28.173
	C526.825,135.5,504.577,60.852,503.614,57.698z M255.993,443.968c-4.039,0-7.986-0.305-11.82-0.862
	c5.324-1.603,9.258-3.699,12.176-6.053c2.857,2.325,6.704,4.397,11.885,5.994C264.269,443.645,260.179,443.968,255.993,443.968z
	 M481.284,175.617c-7.719,11.734-20.663,17.341-32.081,22.288c-11.366,4.923-22.101,9.574-24.944,19.997
	c-0.187,0.686-0.282,1.394-0.282,2.105v32.924c0,59.655-36.546,120.796-89.158,152.511c0.57-2.738,0.938-5.531,1.078-8.373
	c0.049-0.358,0.083-0.721,0.083-1.093c0-11.84,9.771-16.091,10.808-16.507c4.136-1.551,6.232-6.162,4.681-10.298
	c-1.552-4.135-6.161-6.231-10.298-4.681c-0.827,0.31-19.409,7.539-21.058,28.487c-0.08,0.455-0.13,0.92-0.13,1.398
	c0,6.917-1.842,13.504-5.157,19.491c-0.516,0.437-0.99,0.938-1.396,1.519c-0.117,0.166-10.182,14.197-28.688,14.195
	c-3.142,0-6.532-0.405-10.152-1.351c-8.532-2.229-10.148-4.55-10.206-8.646c27.256-2.609,31.603-18.058,31.603-27.607
	c0-9.45-4.064-16.984-11.753-21.786c-3.746-2.34-8.682-1.2-11.021,2.547c-2.341,3.747-1.2,8.681,2.547,11.021
	c2.964,1.852,4.229,4.31,4.229,8.218c0,3.281,0,11.998-23.996,11.998c-23.995,0-23.995-8.716-23.995-11.998
	c0-3.91,1.267-6.37,4.234-8.22c3.748-2.339,4.891-7.272,2.552-11.02c-2.339-3.748-7.273-4.891-11.02-2.553
	C220.067,374.985,216,382.521,216,391.976c0,9.637,4.435,25.282,32.375,27.674c-0.078,4.043-1.752,6.349-10.378,8.574
	c-25.053,6.464-38.917-12.123-39.466-12.875c-0.4-0.564-0.865-1.053-1.369-1.479c-3.315-5.987-5.158-12.577-5.158-19.493
	c0-0.478-0.05-0.943-0.13-1.398c-1.649-20.95-20.231-28.177-21.058-28.487c-4.136-1.551-8.746,0.545-10.298,4.681
	c-1.551,4.136,0.545,8.747,4.681,10.298c0.108,0.041,10.808,4.195,10.808,16.507c0,0.372,0.034,0.735,0.083,1.093
	c0.141,2.838,0.507,5.629,1.076,8.364c-52.605-31.718-89.143-92.853-89.143-152.504v-32.924c0-0.711-0.095-1.419-0.282-2.105
	c-2.843-10.424-13.578-15.074-24.944-19.997c-11.419-4.947-24.361-10.553-32.081-22.288c-11.278-17.143-14.641-38.712-14.631-58.42
	c6.672,12.506,17.641,25.796,35.567,37.517c18.154,11.87,26.876,19.104,28.414,34.115c0.422,4.117,3.896,7.183,7.947,7.183
	c0.273,0,0.548-0.014,0.826-0.042c4.394-0.451,7.592-4.378,7.141-8.772c-2.486-24.237-19.307-35.235-35.575-45.871
	C20.797,115.428,20.663,81.806,22.51,68.3c35.975,2.883,66.904,29.081,89.833,48.509c17.998,15.25,29.886,25.323,41.236,23.056
	c0.836-0.167,1.64-0.467,2.381-0.888c26.827-15.23,60.482-22.953,100.033-22.953c0.002,0,0.004,0,0.006,0c0.002,0,0.004,0,0.006,0
	c39.551,0,73.207,7.722,100.033,22.953c0.741,0.421,1.545,0.721,2.381,0.888c11.342,2.269,23.237-7.806,41.236-23.056
	c22.92-19.42,53.833-45.604,89.789-48.505c1.757,13.502,1.499,47.293-37.851,73.021c-16.268,10.636-33.088,21.635-35.575,45.871
	c-0.451,4.395,2.746,8.322,7.141,8.772c0.278,0.029,0.553,0.042,0.826,0.042c4.05,0,7.525-3.066,7.947-7.183
	c1.54-15.01,10.261-22.246,28.414-34.115c17.954-11.74,28.929-25.053,35.597-37.575C495.96,136.845,492.593,158.427,481.284,175.617
	z"/>
<g>
</g>
<g>
</g>
<g>
</g>
<g>
</g>
<g>
</g>
<g>
</g>
<g>
</g>
<g>
</g>
<g>
</g>
<g>
</g>
<g>
</g>
<g>
</g>
<g>
</g>
<g>
</g>
<g>
</g>
</svg>
