<?xml version="1.0" encoding="iso-8859-1"?>
<!-- Generator: Adobe Illustrator 19.0.0, SVG Export Plug-In . SVG Version: 6.00 Build 0)  -->
<svg version="1.1" id="Layer_1" xmlns="http://www.w3.org/2000/svg" xmlns:xlink="http://www.w3.org/1999/xlink" x="0px" y="0px"
	 viewBox="0 0 512 512" style="enable-background:new 0 0 512 512;" xml:space="preserve">
<path style="fill:#CDB987;" d="M328.959,448.95C368,433.057,423,401.057,432,380.057v24c17-16,37-42,40-64l16.01,8
	c10.656-24,15.99-62.667,15.99-92c0-112.666-67.066-236-248-196c-180.934-40-248,83.334-248,196c0,29.333,5.333,68,15.99,92l16.01-8
	c3,22,23,48,40,64v-24c9,21,64,53,103.041,68.894C233.458,461.425,283.12,468.595,328.959,448.95z"/>
<path style="fill:#C39B6E;" d="M256,252.057c57.088,0,106.339-31.391,135.418-16c11.729,6.208,16.582,14.667,16.582,24l24,16
	c0,20-15.641,38.42-24.65,48c-16.927,18-7.966,48-7.966,48l-23.897,8c0,0,11.36,52.34-55.76,72c-30.727,9-91.727,11-127.727,0
	c-67.149-20.518-56-72-56-72l-24-8c0,0,9.507-30.492-8-48c-7.333-7.333-14.735-26.163-16.349-40.005
	C84,252.724,98.667,214.724,144,204.057l-16,32C157.204,220.666,198.667,252.057,256,252.057"/>
<g>
	
		<line style="fill:none;stroke:#000000;stroke-width:16;stroke-linecap:round;stroke-linejoin:round;stroke-miterlimit:10;" x1="240" y1="356.06" x2="240" y2="348.06"/>
	
		<line style="fill:none;stroke:#000000;stroke-width:16;stroke-linecap:round;stroke-linejoin:round;stroke-miterlimit:10;" x1="272" y1="356.06" x2="272" y2="348.06"/>
</g>
<path style="fill:#464655;" d="M176,364.057c17.684,35.369,55.737,55.961,82.263,55.961s60.053-20.592,77.737-55.961
	C289.588,384.657,223.966,386.115,176,364.057z"/>
<g>
	<path style="fill:#746257;" d="M312,340.057c0,22.092-31.945,40-56,40s-56-17.908-56-40c0-31.667,25.072-32,56-32
		S312,308.057,312,340.057z"/>
	<path style="fill:#746257;" d="M185.34,319.972l-38.132,25.13c-10.789,7.11-25.299,4.128-32.409-6.661
		c-6.198-9.406-4.715-21.644,2.912-29.337l32.136-32.448c10.94-11.047,28.765-11.133,39.812-0.192
		c11.047,10.94,11.133,28.765,0.192,39.812C188.488,317.65,186.889,318.936,185.34,319.972z"/>
</g>
<circle cx="170.35" cy="295.94" r="17.684"/>
<path style="fill:#746257;" d="M328.66,318.972l38.132,25.13c10.789,7.11,25.299,4.128,32.409-6.661
	c6.198-9.406,4.715-21.644-2.912-29.337l-32.136-32.448c-10.94-11.047-28.765-11.133-39.812-0.192
	c-11.047,10.94-11.133,28.765-0.192,39.812C325.512,316.65,327.111,317.936,328.66,318.972z"/>
<circle cx="343.65" cy="294.94" r="17.684"/>
<path d="M439.407,82.417c-21.816-17.52-47.827-29.14-77.311-34.537c-31.501-5.767-67.194-4.41-106.097,4.002
	c-38.902-8.411-74.594-9.769-106.097-4.002c-29.483,5.397-55.495,17.018-77.311,34.537C26.459,119.466,0,182.755,0,256.057
	c0,28.713,5.157,69.299,16.678,95.247c0.887,1.997,2.551,3.544,4.607,4.283c2.057,0.739,4.326,0.604,6.28-0.373l6.952-3.474
	c6.781,21.326,24.286,43.354,40,58.143c2.325,2.188,5.727,2.783,8.656,1.518c2.93-1.265,4.827-4.152,4.827-7.344v-1.677
	c21.183,19.207,58.034,39.451,86.356,51.608c4.632,2.084,9.711,4.01,15.306,5.72c18.076,5.523,41.529,7.919,64.606,7.918
	c25.678,0,50.89-2.966,67.707-7.893c6.579-1.927,12.445-4.167,17.703-6.628c28.032-12.238,63.642-31.974,84.322-50.726v1.677
	c0,3.192,1.897,6.079,4.827,7.344c2.928,1.266,6.331,0.67,8.656-1.518c15.713-14.789,33.218-36.817,40-58.143l6.952,3.474
	c1.954,0.976,4.223,1.111,6.28,0.373c2.056-0.738,3.721-2.286,4.607-4.283C506.843,325.355,512,284.77,512,256.057
	C512,182.755,485.541,119.466,439.407,82.417z M483.79,337.005l-8.214-4.104c-2.308-1.153-5.031-1.122-7.312,0.083
	c-2.281,1.206-3.842,3.437-4.19,5.993c-1.892,13.873-12.122,30.703-24.073,44.941v-3.86c0-3.798-2.671-7.073-6.392-7.836
	c-3.72-0.762-7.465,1.194-8.961,4.686c-4.189,9.774-22.861,24.267-45.703,37.957c0.503-1.185,0.961-2.352,1.367-3.488
	c3.67-10.277,4.108-19.657,3.818-25.774l17.795-5.957c4.093-1.371,6.361-5.741,5.126-9.876c-0.077-0.256-7.269-25.984,6.128-40.23
	C431.227,310.345,440,292.851,440,276.057c0-4.418-3.582-8-8-8s-8,3.582-8,8c0,12.354-7.563,26.659-22.478,42.52
	c-14.338,15.246-13.3,36.821-11.458,48.164l-17.118,5.73c-3.87,1.295-6.144,5.295-5.278,9.283c0.023,0.108,2.225,11.215-2.426,24.24
	c-4.953,13.869-15.586,24.687-31.656,32.315c-2.579,1.129-5.131,2.208-7.644,3.231c-0.038,0.016-0.072,0.035-0.109,0.051
	c-2.667,1-5.444,1.935-8.356,2.788c-29.698,8.698-88.67,10.559-123.139,0.026c-2.89-0.883-5.614-1.828-8.19-2.823
	c-0.031-0.014-0.059-0.03-0.09-0.042c-1.762-0.717-3.543-1.463-5.339-2.233C136.748,419.4,143.49,383.37,143.82,381.75
	c0.864-3.991-1.416-7.992-5.289-9.283l-17.131-5.71c1.995-11.506,3.224-33.392-11.742-48.356
	c-5.788-5.788-12.62-22.931-14.059-35.275c-3.112-26.698,8.177-61.385,50.234-71.281c4.301-1.012,6.967-5.319,5.955-9.62
	c-1.013-4.301-5.318-6.969-9.62-5.955c-48.949,11.517-66.642,52.852-62.462,88.708c1.656,14.207,9.252,35.351,18.638,44.736
	c13.815,13.814,6.093,39.722,6.02,39.962c-1.297,4.16,0.974,8.593,5.107,9.971l17.908,5.969c-0.26,6.056,0.227,15.306,3.921,25.478
	c0.422,1.161,0.899,2.354,1.424,3.569c-22.691-13.631-41.203-28.031-45.371-37.757c-1.496-3.492-5.245-5.449-8.961-4.686
	c-3.721,0.763-6.392,4.039-6.392,7.836v3.86c-11.952-14.238-22.182-31.068-24.073-44.941c-0.349-2.557-1.909-4.788-4.19-5.993
	c-2.281-1.205-5.004-1.236-7.312-0.083l-8.214,4.104C19.804,313.282,16,280.289,16,256.057c0-68.426,24.279-127.168,66.611-161.164
	c42.097-33.807,99.854-42.899,171.662-27.024c0.034,0.007,0.067,0.01,0.101,0.017c0.17,0.036,0.342,0.063,0.515,0.087
	c0.098,0.014,0.195,0.029,0.292,0.039c0.148,0.015,0.298,0.023,0.449,0.03c0.125,0.006,0.251,0.013,0.375,0.013
	c0.116,0,0.232-0.006,0.348-0.011c0.16-0.007,0.318-0.016,0.476-0.032c0.088-0.01,0.177-0.023,0.265-0.035
	c0.183-0.026,0.364-0.055,0.543-0.092c0.03-0.006,0.06-0.008,0.089-0.015c71.809-15.876,129.564-6.782,171.662,27.024
	C471.721,128.888,496,187.631,496,256.057C496,280.289,492.196,313.282,483.79,337.005z"/>
<path d="M331.674,357.327c-5.385,3.462-13.772,6.239-23.143,8.412c7.02-7.42,11.469-16.22,11.469-25.683
	c0-17.895-7.222-29.819-21.465-35.441c-11.55-4.559-26.601-4.559-42.535-4.559c-15.138,0-30.792,0-42.562,4.694
	C199.213,310.425,192,322.303,192,340.057c0,9.463,4.449,18.263,11.469,25.683c-9.371-2.173-17.757-4.95-23.143-8.412
	c-3.717-2.388-8.666-1.313-11.056,2.404c-2.389,3.716-1.313,8.666,2.403,11.056c20.498,13.177,68.984,17.27,84.326,17.27
	s63.828-4.093,84.326-17.27c3.716-2.39,4.792-7.339,2.403-11.056C340.34,356.014,335.392,354.939,331.674,357.327z M208,340.057
	c0-21.931,13.164-24,48-24c35.558,0,48,1.966,48,24c0,16.482-27.042,32-48,32S208,356.539,208,340.057z"/>
<path d="M395.161,228.986c-18.856-9.981-42.813-3.722-70.549,3.527c-20.704,5.411-44.17,11.543-68.612,11.543
	c-24.872,0-46.896-6.249-66.327-11.763c-25.007-7.096-46.603-13.224-65.403-3.314c-3.909,2.06-5.407,6.898-3.347,10.807
	s6.897,5.408,10.807,3.347c13.135-6.923,30.981-1.858,53.576,4.553c20.435,5.798,43.596,12.37,70.694,12.37
	c26.498,0,51.021-6.408,72.657-12.063c24.502-6.404,45.665-11.935,59.019-4.867c8.293,4.389,12.324,9.927,12.324,16.929
	c0,4.419,3.582,8,8,8s8-3.581,8-8C416,250.915,412.385,238.104,395.161,228.986z"/>
<path d="M240,334.965c-4.418,0-8,3.582-8,8v8c0,4.418,3.582,8,8,8s8-3.582,8-8v-8C248,338.547,244.418,334.965,240,334.965z"/>
<path d="M272,334.965c-4.418,0-8,3.582-8,8v8c0,4.418,3.582,8,8,8s8-3.582,8-8v-8C280,338.547,276.418,334.965,272,334.965z"/>
<path d="M293.539,397.94c-10.017,8.443-25.102,14.116-37.539,14.116s-27.522-5.673-37.539-14.116
	c-3.378-2.849-8.425-2.417-11.273,0.96c-2.848,3.378-2.417,8.426,0.96,11.273c12.888,10.863,31.67,17.883,47.851,17.883
	s34.963-7.02,47.851-17.883c3.378-2.848,3.808-7.896,0.96-11.273S296.917,395.093,293.539,397.94z"/>
<g>
</g>
<g>
</g>
<g>
</g>
<g>
</g>
<g>
</g>
<g>
</g>
<g>
</g>
<g>
</g>
<g>
</g>
<g>
</g>
<g>
</g>
<g>
</g>
<g>
</g>
<g>
</g>
<g>
</g>
</svg>
