<?xml version="1.0" encoding="iso-8859-1"?>
<!-- Generator: Adobe Illustrator 19.0.0, SVG Export Plug-In . SVG Version: 6.00 Build 0)  -->
<svg version="1.1" id="Layer_1" xmlns="http://www.w3.org/2000/svg" xmlns:xlink="http://www.w3.org/1999/xlink" x="0px" y="0px"
	 viewBox="0 0 512 512" style="enable-background:new 0 0 512 512;" xml:space="preserve">
<path style="fill:#6EA58C;" d="M503.822,211.613c0.118-2.722,0.178-5.312,0.178-7.749c0-26.76-55.07-54.812-96-80c-13-8-17-32-40-32
	c-19,0-27.042,15.348-32,16c-19,2.5-42.231-8-80-8s-61,10.5-80,8c-4.957-0.652-13-16-32-16c-23,0-27,24-40,32
	c-40.93,25.188-96,53.24-96,80c0,2.437,0.061,5.027,0.178,7.749L8,211.365c0.077,0.829,0.173,1.634,0.283,2.424
	C10.431,254.544,24.537,322.498,40,355.865c11.312,24.41,42.832,39.603,92.021,47.902c0.747,5.347,1.88,10.768,3.479,16.098
	c0.393,1.308,2.003-5.395,5.613-14.673c14.823,2.16,31.108,3.756,48.794,4.845c1.04,6.548,1.928,10.842,2.109,9.992
	c0.598-2.801,1.628-6.107,2.936-9.698c18.839,1.042,39.206,1.534,61.047,1.534c21.741,0,42.021-0.487,60.787-1.52
	c1.305,3.584,2.333,6.886,2.931,9.683c0.181,0.849,1.068-3.438,2.106-9.976c18.599-1.138,35.656-2.835,51.091-5.159
	c3.691,9.432,5.333,16.293,5.729,14.971c1.637-5.457,2.79-11.008,3.536-16.479c47.925-8.379,78.678-23.478,89.82-47.521
	c15.463-33.367,29.57-101.321,31.717-142.076c0.109-0.79,0.206-1.595,0.283-2.424L503.822,211.613z"/>
<g>
	<path style="fill:#FFEBD2;" d="M136,354c-4.587,10.32-7.201,31.734-3.073,53.429c0.548,2.881,4.616,3.19,5.574,0.418
		c4.538-13.121,14.633-35.357,33.021-44.426L136,354z"/>
	<path style="fill:#FFEBD2;" d="M187,370.326c0,10.4,2.509,27.493,4.282,38.271c0.47,2.856,4.376,3.296,5.465,0.615
		c4.715-11.612,12.684-31.031,16.745-39.749L187,370.326z"/>
	<path style="fill:#FFEBD2;" d="M377.866,354c4.587,10.32,7.201,31.734,3.073,53.429c-0.548,2.881-4.616,3.19-5.574,0.418
		c-4.538-13.121-14.633-35.357-33.021-44.426L377.866,354z"/>
	<path style="fill:#FFEBD2;" d="M328,370.326c0,12.018-2.817,29.362-4.282,38.271c-0.47,2.856-4.376,3.296-5.465,0.615
		c-4.715-11.612-12.684-31.031-16.745-39.749L328,370.326z"/>
</g>
<path style="fill:#7DB9A0;" d="M472,163.714c-40-23.143-69.173-41.897-88-54c-24-15.429-40,0-48,0c-11.313,0-56-7.714-80-7.714
	s-68.687,7.714-80,7.714c-8,0-24-15.429-48,0c-18.827,12.103-48,30.857-88,54c-19.997,11.57-31.998,26.997-32,38.571
	C7.998,213.862,31.354,209,44,209c40,0,15,42,47,96c10.017,16.903,34.927,34.377,51,47c17.973,14.115,50.653,20,114,20
	c64.114,0,95.118-2.599,113-17c15.587-12.553,41.119-34.326,51-51c32-54,13-94,53-94c12.646,0,31.001,3.862,31-7.714
	C503.998,190.711,491.998,175.284,472,163.714z"/>
<path style="fill:#96D2AF;" d="M384,97c-22.689-13.177-40.266,8.829-48,8.829c-11.313,0-56-7.829-80-7.829s-68.687,7.829-80,7.829
	c-7.734,0-23-24.829-50-7.829c11.45,24.938,50,33.066,50,54.8c0,29.318-54.719,143.987-44,195.2c18.405,12.87,64.55,24,124,24
	s103.595-9.13,122-22c10.719-51.213-42-167.882-42-197.2C336,131.066,372.55,121.938,384,97z"/>
<path d="M136,131.865c-8.822,0-16,7.178-16,16s7.178,16,16,16s16-7.178,16-16S144.822,131.865,136,131.865z"/>
<path d="M376,131.865c-8.822,0-16,7.178-16,16s7.178,16,16,16s16-7.178,16-16S384.822,131.865,376,131.865z"/>
<path d="M511.881,210.035c0.078-2.155,0.119-4.219,0.119-6.17c0-27.298-41.068-51.736-80.784-75.37
	c-6.654-3.959-12.938-7.699-19.023-11.444c-3.3-2.031-6.331-6.312-9.539-10.844c-6.675-9.429-15.817-22.343-34.654-22.343
	c-15.982,0-25.62,8.695-31.378,13.89c-0.852,0.768-1.955,1.764-2.637,2.292c-7.734,0.791-16.826-0.838-28.214-2.882
	c-13.155-2.361-29.527-5.3-49.771-5.3s-36.615,2.938-49.771,5.3c-11.389,2.045-20.48,3.676-28.214,2.882
	c-0.682-0.529-1.786-1.524-2.637-2.292c-5.758-5.195-15.396-13.89-31.378-13.89c-18.837,0-27.979,12.914-34.654,22.343
	c-3.208,4.532-6.239,8.813-9.539,10.844c-6.084,3.745-12.369,7.484-19.023,11.444C41.068,152.129,0,176.567,0,203.865
	c0,1.951,0.042,4.015,0.119,6.17c-0.112,0.668-0.15,1.359-0.085,2.065c0.084,0.912,0.189,1.801,0.308,2.674
	c2.326,40.777,16.311,109.735,32.4,144.455c11.686,25.218,41.255,42.03,92.316,51.429c0.726,3.861,1.642,7.715,2.779,11.506
	c1.035,3.449,4.112,5.805,7.657,5.863c0.061,0.001,0.122,0.001,0.182,0.001c5.991,0,7.637-4.9,9.378-10.085
	c0.377-1.122,0.828-2.46,1.348-3.949c11.343,1.49,23.56,2.69,36.685,3.606c0.976,5.234,2.279,9.884,8.027,10.491
	c0.285,0.03,0.569,0.045,0.85,0.045c3.763,0,7.067-2.643,7.877-6.437c0.201-0.942,0.48-1.983,0.795-3.069
	c17.061,0.825,35.49,1.234,55.364,1.234c19.772,0,38.115-0.405,55.103-1.222c0.313,1.081,0.591,2.118,0.791,3.056
	c0.81,3.794,4.115,6.437,7.877,6.437c0.281,0,0.565-0.015,0.85-0.045c5.742-0.606,7.048-5.246,8.024-10.473
	c14.019-0.974,27.012-2.268,39.004-3.895c0.562,1.6,1.042,3.03,1.442,4.221c1.741,5.185,3.386,10.085,9.378,10.084
	c0.06,0,0.121,0,0.182-0.001c3.545-0.058,6.622-2.415,7.656-5.863c1.178-3.926,2.121-7.919,2.858-11.918
	c49.702-9.476,78.577-26.167,90.093-51.017c16.089-34.719,30.075-103.677,32.4-144.455c0.119-0.873,0.224-1.762,0.308-2.674
	C512.031,211.394,511.993,210.703,511.881,210.035z M141.575,364.194c3.571,1.721,7.567,3.299,12,4.733
	c-6.159,6.426-10.956,14.093-14.635,21.423C138.657,379.92,139.839,370.622,141.575,364.194z M172.757,373.742
	c1.725,0.333,3.499,0.649,5.309,0.954c0.256,8.659,1.568,19.728,2.499,26.691c-9.865-0.737-19.157-1.64-27.893-2.712
	C157.28,389.174,163.824,379.162,172.757,373.742z M194.17,376.931c2.082,0.233,4.195,0.458,6.366,0.663
	c-1.718,3.62-3.546,7.5-5.348,11.462C194.729,384.803,194.364,380.625,194.17,376.931z M256,403.865
	c-17.698,0-34.158-0.322-49.44-0.971c3.206-7.455,6.911-15.248,9.852-21.43c0.424-0.892,0.833-1.75,1.232-2.593
	c11.709,0.663,24.487,0.993,38.355,0.993c13.767,0,26.457-0.327,38.096-0.98c0.398,0.838,0.804,1.693,1.226,2.58
	c2.943,6.186,6.65,13.982,9.856,21.44C289.97,403.546,273.598,403.865,256,403.865z M311.21,377.618
	c2.166-0.203,4.274-0.425,6.353-0.656c-0.194,3.687-0.559,7.853-1.017,12.093C314.748,385.103,312.924,381.231,311.21,377.618z
	 M331.167,401.408c0.93-6.951,2.24-18.006,2.5-26.667c2.476-0.415,4.88-0.853,7.198-1.318c9.124,5.293,15.794,15.389,20.486,25
	C351.951,399.615,341.898,400.609,331.167,401.408z M372.307,363.254c1.878,6.442,3.194,16.148,2.898,27.096
	c-3.782-7.535-8.74-15.43-15.15-21.963C364.619,366.836,368.7,365.125,372.307,363.254z M464.742,352.501
	c-8.192,17.678-29.251,30.423-64.382,38.965c-2.988,0.727-6.081,1.418-9.267,2.08c0.805-16.246-1.498-31.112-5.345-40.236
	c0.673-0.75,1.318-1.51,1.898-2.293c3.516-4.741,5.326-10.088,5.413-15.783c16.703-2.717,41.545-14.539,46.886-59.905
	c5.001-42.478,15.442-54.136,21.222-57.305c1.523-0.835,6.16-3.377,15.35,1.067c3.978,1.923,8.761,0.258,10.685-3.718
	c1.924-3.978,0.259-8.762-3.718-10.685c-13.733-6.643-23.899-4.044-30.009-0.693c-15.28,8.378-24.903,31.1-29.419,69.463
	c-3.263,27.721-15.053,43.529-34.23,46.124c-4.362-14.557-7.652-26.886-6.029-33.919c0.994-4.305-1.691-8.601-5.996-9.594
	c-4.304-0.998-8.601,1.69-9.594,5.996c-2.674,11.585,1.15,25.185,8.139,48.225c1.356,4.47,0.878,7.923-1.548,11.195
	c-4.991,6.729-26.556,22.378-118.796,22.378s-113.805-15.65-118.796-22.378c-2.427-3.272-2.904-6.725-1.548-11.195
	c6.989-23.041,10.813-36.64,8.139-48.225c-0.993-4.306-5.293-6.993-9.594-5.996c-4.305,0.993-6.99,5.289-5.996,9.594
	c1.623,7.033-1.667,19.362-6.029,33.919c-19.177-2.594-30.967-18.403-34.23-46.124c-4.517-38.363-14.14-61.085-29.419-69.463
	c-6.11-3.351-16.276-5.95-30.009,0.693c-3.978,1.923-5.642,6.708-3.718,10.685c1.923,3.978,6.707,5.642,10.685,3.718
	c9.189-4.445,13.826-1.904,15.35-1.067c5.779,3.169,16.221,14.827,21.222,57.305c5.341,45.366,30.183,57.188,46.886,59.905
	c0.086,5.694,1.896,11.042,5.413,15.783c0.995,1.342,2.142,2.631,3.412,3.878c-3.497,9.296-5.512,23.584-4.691,39.091
	c-3.957-0.792-7.773-1.63-11.433-2.521c-35.13-8.542-56.189-21.288-64.382-38.965c-11.539-24.9-21.944-68.327-27.35-104.954
	c3.577,2.407,6.913,3.92,9.282,4.809c0.926,0.347,1.875,0.511,2.808,0.511c3.239,0,6.287-1.981,7.492-5.193
	c1.551-4.137-0.545-8.749-4.682-10.3c-6.046-2.268-16.22-8.422-18.557-24.4C16.086,209.729,16,206.68,16,203.865
	c0-18.2,40.458-42.275,72.966-61.62c6.412-3.815,13.042-7.76,19.227-11.566c6.084-3.745,10.216-9.581,14.212-15.226
	c6.841-9.664,11.545-15.587,21.595-15.587c9.832,0,15.836,5.417,20.661,9.77c3.348,3.02,6.239,5.628,10.296,6.162
	c10.406,1.371,21.387-0.602,34.1-2.883c13.183-2.366,28.124-5.048,46.943-5.048s33.761,2.682,46.943,5.048
	c12.713,2.282,23.694,4.253,34.101,2.883c4.057-0.534,6.948-3.142,10.295-6.162c4.825-4.353,10.829-9.77,20.661-9.77
	c10.05,0,14.753,5.923,21.595,15.587c3.996,5.645,8.128,11.481,14.212,15.226c6.186,3.807,12.815,7.751,19.227,11.566
	C455.542,161.59,496,185.665,496,203.865c0,2.815-0.086,5.864-0.252,9.109c-2.337,15.979-12.511,22.133-18.557,24.4
	c-4.137,1.551-6.233,6.163-4.682,10.3c1.205,3.211,4.252,5.193,7.492,5.193c0.933,0,1.883-0.165,2.808-0.511
	c2.37-0.889,5.706-2.401,9.282-4.809C486.686,284.174,476.281,327.601,464.742,352.501z"/>
<g>
</g>
<g>
</g>
<g>
</g>
<g>
</g>
<g>
</g>
<g>
</g>
<g>
</g>
<g>
</g>
<g>
</g>
<g>
</g>
<g>
</g>
<g>
</g>
<g>
</g>
<g>
</g>
<g>
</g>
</svg>
