<?xml version="1.0" encoding="iso-8859-1"?>
<!-- Generator: Adobe Illustrator 19.0.0, SVG Export Plug-In . SVG Version: 6.00 Build 0)  -->
<svg version="1.1" id="Layer_1" xmlns="http://www.w3.org/2000/svg" xmlns:xlink="http://www.w3.org/1999/xlink" x="0px" y="0px"
	 viewBox="0 0 512 512" style="enable-background:new 0 0 512 512;" xml:space="preserve">
<g>
	<path style="fill:#937E6D;" d="M8,208.842C8,255.93,48.667,320,80,320l12.894-166.714C84.458,147.392,74.571,144,64,144
		C33.072,144,8,173.031,8,208.842z"/>
	<path style="fill:#937E6D;" d="M448,144c-10.571,0-20.458,3.392-28.894,9.286L432,320c31.333,0,72-64.07,72-111.158
		C504,173.031,478.928,144,448,144z"/>
</g>
<ellipse style="fill:#877364;" cx="256" cy="228" rx="200" ry="196"/>
<g>
	<path style="fill:#937E6D;" d="M352.146,332c0-50.554,53.827-81.167,36.369-132.325c-10.323-30.251-38.134-52.413-69.984-51.654
		c-11.501,0.274-22.324,3.27-31.862,8.369c-9.501,5.079-19.968,7.633-30.42,7.612c-10.49,0.021-20.995-2.533-30.531-7.612
		c-9.574-5.099-20.436-8.095-31.979-8.369c-31.968-0.759-59.88,21.402-70.241,51.654C105.975,250.833,160,281.446,160,332H352.146z"
		/>
	<path style="fill:#937E6D;" d="M359.714,376.286C359.714,433.566,313.28,480,256,480s-103.714-46.434-103.714-103.714
		C152.286,319.006,198.72,240,256,240S359.714,319.006,359.714,376.286z"/>
</g>
<path style="fill:#CFB396;" d="M152,369v8l0,0c0,45.988,46.563,64,104,64s104-18.012,104-64v-8H152z"/>
<path style="fill:#9F8976;" d="M288.019,249.452c-18.842-11.814-39.854-13.391-64.038,0C182.373,271.297,152,330.264,152,361
	c0,38.187,46.72,48,104,48s104-9.813,104-48C360,330.264,329.627,271.297,288.019,249.452z"/>
<g>
	<path style="fill:#6E5550;" d="M239.994,320.002c-1.202,0-2.423-0.272-3.571-0.847l-16-8c-3.952-1.976-5.554-6.781-3.578-10.733
		c1.975-3.952,6.781-5.554,10.733-3.578l16,8c3.952,1.976,5.554,6.781,3.578,10.733
		C245.754,318.381,242.928,320.002,239.994,320.002z"/>
	<path style="fill:#6E5550;" d="M272.006,320.002c-2.935,0-5.76-1.621-7.162-4.424c-1.976-3.952-0.375-8.757,3.578-10.733l16-8
		c3.953-1.976,8.758-0.374,10.733,3.578c1.976,3.952,0.375,8.757-3.578,10.733l-16,8
		C274.429,319.729,273.208,320.002,272.006,320.002z"/>
</g>
<path d="M448,136c-0.978,0-1.952,0.035-2.925,0.085C411.187,67.881,337.376,24,256,24c-81.552,0-155.172,43.831-189.068,112.085
	C65.957,136.035,64.98,136,64,136c-35.29,0-64,32.677-64,72.842c0,23.714,9.541,52.709,25.521,77.563
	c15.436,24.007,33.231,38.713,49.573,41.211c17.32,30.071,42.118,55.452,72.003,73.62C158.463,450.865,202.975,488,256,488
	s97.538-37.135,108.903-86.764c29.868-18.157,54.684-43.553,72.002-73.619c16.342-2.497,34.138-17.204,49.574-41.211
	c15.98-24.854,25.521-53.85,25.521-77.563C512,168.677,483.29,136,448,136z M335.899,282.086
	c-20.449-29.321-45.719-46.68-71.899-49.632V216c0-4.418-3.582-8-8-8s-8,3.582-8,8v16.454c-26.18,2.952-51.45,20.312-71.899,49.633
	c-4.467,6.405-8.544,13.226-12.185,20.29c-4.176-13.25-10.976-25.208-17.635-36.916c-12.804-22.51-23.861-41.951-15.215-67.193
	c9.548-27.876,35.257-46.874,62.483-46.249c10.039,0.238,19.597,2.739,28.409,7.433c10.506,5.595,22.316,8.551,34.134,8.551
	c0.094,0,0.189,0,0.284,0c11.814,0,23.591-2.958,34.065-8.557c8.773-4.69,18.289-7.188,28.281-7.427
	c27.128-0.62,52.712,18.369,62.223,46.24c8.618,25.252-2.401,44.697-15.161,67.212c-6.66,11.753-13.462,23.757-17.618,37.066
	C344.505,295.416,340.4,288.541,335.899,282.086z M256,472c-52.777,0-95.714-42.938-95.714-95.714
	c0-26.864,11.089-59.452,28.939-85.046C208.389,263.76,232.728,248,256,248s47.611,15.76,66.775,43.239
	c17.85,25.595,28.939,58.183,28.939,85.046C351.714,429.063,308.777,472,256,472z M432,312c-3.329,0-6.181,2.034-7.386,4.925
	c-0.035,0.06-0.076,0.115-0.11,0.176c-13.899,25.02-33.408,46.643-56.871,63.213c0.048-1.338,0.081-2.68,0.081-4.029
	c0-14.405-2.824-30.226-7.93-45.899c0.235-0.754,0.362-1.555,0.362-2.386c0-20.129,9.5-36.893,19.558-54.64
	c13.433-23.703,27.322-48.213,16.383-80.269c-5.591-16.383-16.128-31.035-29.671-41.257c-14.247-10.754-30.879-16.224-48.075-15.811
	c-12.518,0.298-24.443,3.431-35.443,9.312c-8.162,4.363-17.33,6.667-26.554,6.667c-0.074,0-0.148,0-0.222,0
	c-9.234,0-18.446-2.307-26.644-6.673c-11.034-5.877-22.995-9.008-35.55-9.306c-17.253-0.415-33.931,5.054-48.221,15.802
	c-13.591,10.221-24.167,24.873-29.778,41.257c-10.983,32.066,2.96,56.581,16.444,80.288C142.466,291.116,152,307.878,152,328
	c0,0.741,0.108,1.456,0.297,2.137c-5.157,15.754-8.012,31.667-8.012,46.148c0,1.35,0.033,2.692,0.081,4.031
	c-23.602-16.665-43.176-38.432-57.093-63.634C86.012,313.922,83.233,312,80,312c-24.319,0-64-57.63-64-103.158
	C16,177.5,37.533,152,64,152c8.561,0,16.968,2.712,24.311,7.844c3.622,2.532,8.61,1.646,11.14-1.975
	c2.531-3.622,1.646-8.609-1.975-11.14c-4.48-3.13-9.265-5.598-14.243-7.376C115.27,78.715,182.064,40,256,40
	c73.775,0,140.728,38.759,172.767,99.353c-4.978,1.778-9.763,4.246-14.243,7.375c-3.622,2.531-4.506,7.518-1.975,11.14
	c2.53,3.622,7.518,4.505,11.14,1.975C431.032,154.712,439.439,152,448,152c26.467,0,48,25.5,48,56.842
	C496,254.37,456.319,312,432,312z"/>
<path d="M192,200c-8.822,0-16,7.178-16,16s7.178,16,16,16s16-7.178,16-16S200.822,200,192,200z"/>
<path d="M320,200c-8.822,0-16,7.178-16,16s7.178,16,16,16s16-7.178,16-16S328.822,200,320,200z"/>
<path d="M220.422,311.155l16,8c1.148,0.574,2.369,0.847,3.571,0.847c2.935,0,5.76-1.621,7.162-4.424
	c1.976-3.952,0.375-8.757-3.578-10.733l-16-8c-3.952-1.977-8.758-0.374-10.733,3.578C214.869,304.374,216.47,309.18,220.422,311.155
	z"/>
<path d="M272.006,320.002c1.202,0,2.423-0.272,3.571-0.847l16-8c3.952-1.976,5.554-6.781,3.578-10.733
	c-1.975-3.952-6.78-5.554-10.733-3.578l-16,8c-3.952,1.976-5.554,6.781-3.578,10.733
	C266.246,318.381,269.071,320.002,272.006,320.002z"/>
<path d="M317.238,373.63C298.793,380.414,277.618,384,256,384s-42.793-3.586-61.238-10.37c-4.148-1.524-8.745,0.601-10.27,4.747
	c-1.525,4.147,0.6,8.745,4.747,10.27C209.433,396.074,232.518,400,256,400s46.567-3.926,66.762-11.354
	c4.146-1.525,6.271-6.123,4.747-10.27C325.983,374.23,321.386,372.105,317.238,373.63z"/>
<path d="M279.04,414.635c-15.083,1.812-30.997,1.812-46.079,0c-4.382-0.528-8.37,2.602-8.897,6.989
	c-0.527,4.387,2.602,8.37,6.989,8.897C239.225,431.502,247.618,432,256,432c8.382,0,16.775-0.498,24.948-1.479
	c4.387-0.527,7.516-4.51,6.989-8.897C287.41,417.236,283.424,414.106,279.04,414.635z"/>
<path d="M69.435,234.13c-6.249-5.786-9.646-16.162-7.733-23.621c1.397-5.451,5.515-9.067,12.238-10.748
	c4.286-1.072,6.892-5.415,5.821-9.702s-5.414-6.892-9.702-5.821c-12.499,3.125-20.971,11.043-23.856,22.296
	c-3.403,13.27,1.681,29.445,12.361,39.335C71.513,257.859,80,266.712,80,280c0,4.418,3.582,8,8,8s8-3.582,8-8
	C96,258.727,81.887,245.66,69.435,234.13z"/>
<path d="M441.94,184.239c-4.286-1.071-8.63,1.535-9.702,5.821c-1.071,4.287,1.535,8.63,5.821,9.702
	c6.723,1.681,10.841,5.297,12.238,10.748c1.913,7.459-1.484,17.835-7.733,23.621C430.113,245.66,416,258.727,416,280
	c0,4.418,3.582,8,8,8s8-3.582,8-8c0-13.288,8.487-22.141,21.435-34.13c10.681-9.89,15.764-26.065,12.361-39.335
	C462.911,195.282,454.439,187.364,441.94,184.239z"/>
<g>
</g>
<g>
</g>
<g>
</g>
<g>
</g>
<g>
</g>
<g>
</g>
<g>
</g>
<g>
</g>
<g>
</g>
<g>
</g>
<g>
</g>
<g>
</g>
<g>
</g>
<g>
</g>
<g>
</g>
</svg>
