<?xml version="1.0" encoding="iso-8859-1"?>
<!-- Generator: Adobe Illustrator 19.0.0, SVG Export Plug-In . SVG Version: 6.00 Build 0)  -->
<svg version="1.1" id="Layer_1" xmlns="http://www.w3.org/2000/svg" xmlns:xlink="http://www.w3.org/1999/xlink" x="0px" y="0px"
	 viewBox="0 0 512 512" style="enable-background:new 0 0 512 512;" xml:space="preserve">
<g>
	<path style="fill:#B95F4B;" d="M347,138l-90,40l-91-40c-14,27.333-46.667,63.333-21,160c14.371,54.124,88,80,112,80
		s103.325-24.676,112-80C386.667,185.333,363.333,170,347,138z"/>
	<path style="fill:#B95F4B;" d="M273,184.538c0.796-5.051,1.913-10.102,3.271-15.104L257,178l-19.242-8.458
		c1.345,4.967,2.452,9.981,3.242,14.996H273z"/>
</g>
<path style="fill:#C86E55;" d="M161,226.846C193,260.692,201,303,201,303h56h56c0,0,8-42.308,40-76.154
	c12.921-13.666,16.804-31.027,15.392-47.002C362.587,162.755,354.127,151.964,347,138l-70.729,31.435
	c-1.358,5.002-2.476,10.053-3.271,15.104h-32c-0.79-5.015-1.897-10.029-3.242-14.996L166,138
	c-5.36,10.465-13.454,22.204-19.965,38.128C143.643,193.083,147.069,212.111,161,226.846z"/>
<path style="fill:#FF786E;" d="M258,8.811l-2.403-0.814c-0.007,0.001-0.014,0.002-0.021,0.004c-0.839,0.151-1.669,0.431-2.492,0.811
	c-14.569,24.296-40.584,118.557-44.562,162.233l20.885,121.832c1.724,2.541,3.657,4.621,5.593,6.124l20.597,21H256l19-21
	c3.882-3.015,7.675-7.782,11.458-14.053l16.755-111.701C299.388,112.099,284.573,57.649,258,8.811z"/>
<g>
	<path style="fill:#B95F4B;" d="M150.924,344.263c-1.328,8.177-3.059,16.526-4.734,24.601c-5.873,28.317-11.945,57.594,0.853,73.318
		c5.966,7.332,15.496,11.425,29.131,12.514l7.272,0.581l0.279-7.29c1.054-27.476,12.588-56.897,19.37-71.99l3.151-7.013
		l-7.277-2.481c-14.127-4.818-26.119-13.382-35.64-25.452l-9.855-12.494L150.924,344.263z"/>
	<path style="fill:#B95F4B;" d="M348.47,339.408c-9.612,12.876-21.592,21.964-35.606,27.011l-7.115,2.562l3.103,6.896
		c6.801,15.115,18.367,44.583,19.422,72.11l0.28,7.288l7.271-0.579c13.673-1.088,23.228-5.187,29.212-12.529
		c12.804-15.713,6.777-44.945,0.949-73.217c-1.79-8.681-3.64-17.656-4.987-26.419l-2.538-16.505L348.47,339.408z"/>
</g>
<path style="fill:#FF786E;" d="M256,418c-15.12,0-29.508-23.775-43.828-49.425c-7.032,16.375-19.234,32.243-26.49,70.425
	c-10.643,56,31.886,64,53.213,64c11.792,0,16.321-13.1,17.349-31.631C257.272,489.9,261.802,503,273.593,503
	c21.327,0,63.856-8,53.214-64c-7.33-38.566-19.707-54.367-26.703-70.92C285.693,393.918,271.217,418,256,418z"/>
<path style="fill:#FFA25F;" d="M257.107,268.018c-0.07-0.012-0.145-0.012-0.215,0c-66.364,11.084-75.297,33.643-74.511,46.482
	c0.006,0.092-0.012,0.181-0.05,0.265c-0.908,2.046-0.52,4.443,1.727,7.311c0.029,0.05,0.061,0.104,0.09,0.155
	C184.621,323.365,185,324,185,324c0.07-0.14,0.14-0.271,0.209-0.407c9.069,12.152,18.003,28.934,26.963,44.982
	C226.492,394.225,240.88,418,256,418c15.217,0,29.693-24.082,44.104-49.92c9.061-16.245,18.096-33.185,27.274-45.27
	c0.276-0.364,0.84-0.317,1.054,0.087c0.003,0.006,0.007,0.013,0.01,0.02c0.243,0.459,0.907,0.44,1.124-0.032
	C332.575,316.315,343.484,282.443,257.107,268.018z"/>
<path d="M340,272c7.851,0,12-8.299,12-24s-4.149-24-12-24s-12,8.299-12,24S332.149,272,340,272z"/>
<path d="M368,320c0-0.266-0.015-0.528-0.04-0.787C382.229,286.188,384,248.463,384,232c0-26.706-8.842-54.575-16.26-73.253
	c-4.33-10.902-8.519-19.604-11.27-24.986c-5.465-10.687-6.933-13.229-11.605-13.728c-4.069-0.443-7.82,2.279-8.684,6.276
	c-2.929,13.548-9.047,17.181-16.41,19.512C323.699,136.851,328,126.638,328,112c0-4.418-3.582-8-8-8s-8,3.582-8,8
	c0,9.548-2.228,16.385-5.152,23.378c-3.935-20.213-9.534-42.525-14.652-60.562c-5.477-19.3-11.233-36.762-16.208-49.169
	C268.395,6.712,263.164,0,256,0s-12.395,6.712-19.988,25.647c-4.975,12.407-10.731,29.869-16.208,49.169
	c-5.118,18.036-10.717,40.349-14.652,60.562C202.228,128.385,200,121.548,200,112c0-4.418-3.582-8-8-8s-8,3.582-8,8
	c0,14.638,4.3,24.851,8.229,33.821c-7.362-2.331-13.48-5.964-16.409-19.513c-0.865-3.997-4.629-6.718-8.684-6.275
	c-4.673,0.499-6.141,3.041-11.605,13.728c-2.751,5.382-6.94,14.084-11.27,24.986C136.842,177.425,128,205.294,128,232
	c0,10.559,0,42.691,9.616,73.392c1.926,6.15,4.124,11.91,6.578,17.294c-0.427,13.535-3.669,29.183-6.815,44.35
	c-6.59,31.773-12.814,61.783,2.685,80.827c7.865,9.665,20.128,14.897,37.341,15.935c1.116,8.354,3.541,16.221,7.738,23.103
	C195.302,503.555,213.769,512,240.031,512c6.56,0,11.963-1.715,15.969-4.898c4.006,3.184,9.409,4.898,15.969,4.898
	c26.262,0,44.729-8.445,54.889-25.101c4.197-6.881,6.622-14.749,7.737-23.103c17.247-1.035,29.535-6.271,37.417-15.945
	c15.505-19.026,9.327-48.993,2.787-80.72C371.457,350.916,368,334.148,368,320z M166.997,146.563
	c7.401,10.981,17.948,13.898,25.048,15.862c3.884,1.074,5.864,1.7,6.881,2.415c0.67,3.373,1.073,7.031,1.073,11.159
	c0,4.418,3.582,8,8,8s8-3.582,8-8c0-36.078,27.529-132.055,40-156.081C268.471,43.945,296,139.922,296,176c0,4.418,3.582,8,8,8
	s8-3.582,8-8c0-4.128,0.403-7.786,1.073-11.159c1.017-0.715,2.997-1.341,6.881-2.415c7.101-1.964,17.647-4.881,25.048-15.862
	C354.088,165.536,368,200.521,368,232c0,11.326-0.984,40.676-10.103,68.51c-9.078,27.713-23.485,46.237-42.915,55.276
	c6.426-11.472,12.965-22.649,19.343-30.889c4.597-5.938,4.207-11.077,3.07-14.343c-3.443-9.891-16.76-13.178-30.858-16.657
	c-4.681-1.155-11.744-2.898-13.465-4.083c-0.362-0.297-0.745-0.549-1.139-0.772c5.059-10.726,10.261-23.336,15.923-37.442
	c6.103-15.205,13.697-34.128,17.585-37.739c3.238-3.007,3.425-8.068,0.419-11.306c-3.006-3.237-8.067-3.426-11.306-0.419
	c-6.213,5.769-11.947,19.584-21.547,43.505c-6.312,15.727-13.466,33.551-20.758,46.949c-10.266,18.863-15.669,19.408-16.251,19.408
	c-0.008,0-0.016,0.001-0.024,0.001c-0.681-0.014-6.074-0.752-16.227-19.407c-7.292-13.398-14.446-31.223-20.758-46.949
	c-9.6-23.921-15.334-37.736-21.547-43.505c-3.237-3.008-8.299-2.818-11.306,0.419s-2.819,8.299,0.419,11.306
	c3.889,3.611,11.483,22.534,17.585,37.739c5.66,14.102,10.86,26.708,15.917,37.431c-0.384,0.223-0.758,0.473-1.112,0.768
	c-1.684,1.185-8.786,2.938-13.486,4.098c-14.098,3.479-27.415,6.767-30.858,16.657c-1.137,3.266-1.527,8.405,3.07,14.343
	c6.45,8.332,13.063,19.669,19.56,31.276c-17.046-7.282-28.901-20.58-37.016-36.92c-0.129-2.067-1.038-3.921-2.443-5.268
	C147.105,289.358,144,258.982,144,232C144,200.519,157.912,165.535,166.997,146.563z M256,408
	c-11.716,0-27.702-28.825-40.546-51.987c-8.045-14.508-16.362-29.504-24.879-40.587c3.639-2.271,13.254-4.645,18.721-5.994
	c8.45-2.086,14.212-3.598,18.127-6.063C236.324,319.005,245.256,328,256,328c0.276,0,0.549-0.014,0.818-0.041
	c10.379-0.448,19.085-9.356,27.757-24.592c3.915,2.467,9.678,3.979,18.129,6.064c5.467,1.35,15.082,3.723,18.721,5.994
	c-8.517,11.083-16.834,26.079-24.879,40.587C283.702,379.175,267.716,408,256,408z M152.472,437.763
	c-10.697-13.144-4.968-40.766,0.572-67.478c1.712-8.256,3.449-16.646,4.79-24.9c10.392,13.175,23.373,22.455,38.876,27.742
	c-6.641,14.779-18.869,45.639-19.979,74.591C165.137,446.792,157.155,443.518,152.472,437.763z M313.199,478.567
	c-7.155,11.73-20.642,17.433-41.23,17.433c-6.256,0-7.969-1.72-7.969-8v-40c0-4.418-3.582-8-8-8s-8,3.582-8,8v40
	c0,6.28-1.713,8-7.969,8c-20.582,0-34.066-5.699-41.223-17.422c-15.127-24.778,0.935-73.031,12.083-98.043
	C224.78,404.526,238.754,424,256,424c17.248,0,31.223-19.478,45.114-43.472C312.271,405.519,328.342,453.74,313.199,478.567z
	 M359.609,437.745c-4.699,5.767-12.708,9.048-24.341,9.974c-1.113-29.031-13.406-59.982-20.034-74.714
	c16.627-5.987,29.253-16.562,38.844-29.409c1.362,8.854,3.22,17.889,5.05,26.767C364.627,397.032,370.313,424.61,359.609,437.745z"
	/>
<path d="M172,272c7.851,0,12-8.299,12-24s-4.149-24-12-24s-12,8.299-12,24S164.149,272,172,272z"/>
<path d="M256,296c4.418,0,8-3.582,8-8V120c0-4.418-3.582-8-8-8s-8,3.582-8,8v168C248,292.418,251.582,296,256,296z"/>
<path d="M256,96c4.418,0,8-3.582,8-8v-8c0-4.418-3.582-8-8-8s-8,3.582-8,8v8C248,92.418,251.582,96,256,96z"/>
<g>
</g>
<g>
</g>
<g>
</g>
<g>
</g>
<g>
</g>
<g>
</g>
<g>
</g>
<g>
</g>
<g>
</g>
<g>
</g>
<g>
</g>
<g>
</g>
<g>
</g>
<g>
</g>
<g>
</g>
</svg>
