<?xml version="1.0" encoding="iso-8859-1"?>
<!-- Generator: Adobe Illustrator 19.0.0, SVG Export Plug-In . SVG Version: 6.00 Build 0)  -->
<svg version="1.1" id="Layer_1" xmlns="http://www.w3.org/2000/svg" xmlns:xlink="http://www.w3.org/1999/xlink" x="0px" y="0px"
	 viewBox="0 0 512 512" style="enable-background:new 0 0 512 512;" xml:space="preserve">
<g>
	<path style="fill:#FFD296;" d="M146,248l21,144c2.476,20.917,8.867,49.011,22.871,61.688L226.667,487V248H146z"/>
	<path style="fill:#FFD296;" d="M366,248l-22,143c-2.476,20.917-7.867,50.011-21.871,62.688L285.333,487V248H366z"/>
	<path style="fill:#FFD296;" d="M112,144L29.292,83.635C19.819,77.077,6.977,84.53,8.065,96C11.61,133.368,42.009,185.658,64,200
		c11.5,7.5,48,16,48,16l0.848-1.13C115.61,202.669,122.65,191.544,132,181C132,181,112,178.333,112,144z"/>
</g>
<g>
	<path style="fill:#FFB964;" d="M368,184v80c17.673,0,32-17.909,32-40S385.673,184,368,184z"/>
	<path style="fill:#FFB964;" d="M400,224c0-22.617-24.869-47.009-54.517-66.483c-0.118-0.124-0.232-0.254-0.351-0.378L352,160
		l-8-120c-2-20-14.327-32-32-32s-32,14.327-32,32v56l-24,24l0,0l0,0l0,0l0,0l-24-24V40c0-17.673-14.327-32-32-32s-30,12-32,32
		l-7.059,119.999l4.991-2.1C136.543,177.31,112,201.531,112,224c0,56,80,32,96,56s-8,120-8,152s24,56,56,56s56-24,56-56
		s-24-128-8-152S400,280,400,224z"/>
</g>
<path style="fill:#C3875A;" d="M292.565,424.002C280.494,433.982,266.667,440,256,440s-24.494-6.018-36.565-15.998h-10.69
	C208.255,427.897,208,431.906,208,436c0,37.556,21.49,68,48,68s48-30.444,48-68c0-4.094-0.255-8.103-0.745-11.998H292.565z"/>
<path style="fill:#FFD296;" d="M482.708,83.635L400,144c0,34.333-24,40-24,40c13.333,8,21.333,18.667,24,32c0,0,36.5-8.5,48-16
	c21.991-14.342,52.39-66.632,55.935-104C505.023,84.53,492.181,77.077,482.708,83.635z"/>
<g>
	<path style="fill:#CD965F;" d="M372,187.507c-30.135-35.716-70.356-66.988-114.928-67.484C256.705,120.008,256.347,120,256,120
		c-0.361,0-0.735,0.01-1.118,0.026c-41.334,0.556-84.776,31.8-114.882,67.481h29.95c13.298,2.948,26.375,10.847,34.498,28.493
		c14.729,32,36.823,40,51.553,40s36.824-8,51.553-40c8.123-17.646,21.199-25.545,34.498-28.493H372z"/>
	<path style="fill:#CD965F;" d="M128.498,192.299l5.106-0.321l1.082-2.338c0,0-30.055-21.929-27.581-52.64l-43.187,2.084
		c-7.017,0.338-11.625,6.686-9.317,12.742C71.953,197.365,128.498,192.299,128.498,192.299z"/>
	<path style="fill:#CD965F;" d="M384.187,192.299l-5.106-0.321L378,189.64c0,0,30.055-21.929,27.581-52.64l43.187,2.084
		c7.017,0.338,11.625,6.686,9.317,12.742C440.731,197.365,384.187,192.299,384.187,192.299z"/>
</g>
<g>
	<path style="fill:#FFB964;" d="M310.33,336.042l-2.643-0.001C302.148,345.581,291.826,352,280,352
		c-6.866,0-13.176-2.207-18.358-5.914c-3.441-2.461-7.842-2.461-11.283,0C245.176,349.793,238.867,352,232,352
		c-11.844,0-22.179-6.438-27.712-16.001l-2.592-0.001C195.551,346.438,192,358.779,192,372c0,20.863,12.346,39.528,27.435,52.002
		C231.506,433.982,245.333,440,256,440c10.667,0,24.494-6.018,36.565-15.998C307.654,411.528,320,392.863,320,372
		C320,358.797,316.458,346.473,310.33,336.042z"/>
	<path style="fill:#FFB964;" d="M232,352c6.867,0,13.176-2.207,18.358-5.914c3.441-2.461,7.842-2.461,11.283,0
		C266.824,349.793,273.134,352,280,352c11.826,0,22.148-6.419,27.687-15.959c3.882-6.686,5.418-14.903,3.464-23.526
		c-2.596-11.457-11.831-20.779-23.247-23.552c-12.777-3.104-24.473,1.571-31.905,10.073c-7.432-8.502-19.128-13.177-31.905-10.073
		c-11.415,2.772-20.65,12.095-23.247,23.552c-1.95,8.605-0.425,16.806,3.439,23.484C209.821,345.563,220.156,352,232,352z"/>
</g>
<g>
	<circle style="fill:#C3875A;" cx="228" cy="384" r="12"/>
	<circle style="fill:#C3875A;" cx="284" cy="384" r="12"/>
</g>
<path d="M152,208c-8.822,0-16,7.178-16,16s7.178,16,16,16s16-7.178,16-16S160.822,208,152,208z"/>
<path d="M360,208c-8.822,0-16,7.178-16,16s7.178,16,16,16s16-7.178,16-16S368.822,208,360,208z"/>
<path d="M501.363,76.176c-7.329-4.293-16.223-3.955-23.208,0.882c-0.055,0.038-0.109,0.077-0.163,0.116l-82.708,60.365
	C393.22,139.044,392,141.445,392,144c0,27.148-17.211,32.045-17.944,32.24l0.105-0.026l0.089,0.376
	c-1.733-0.328-3.505-0.511-5.304-0.561c-2.724-4.936-5.784-9.645-9.18-14.111c0.193-0.781,0.272-1.604,0.216-2.45l-8-120
	c-0.006-0.088-0.013-0.176-0.022-0.264C349.579,15.389,333.894,0,312,0c-22.056,0-40,17.944-40,40v52.687l-16,16l-16-16V40
	c0-22.056-17.944-40-40-40c-21.894,0-37.579,15.389-39.96,39.204c-0.011,0.108-0.02,0.217-0.026,0.326l-7.059,119.999
	c-0.027,0.468-0.006,0.928,0.045,1.378c-3.703,4.764-7.027,9.808-9.959,15.122c-1.491,0.042-2.962,0.181-4.409,0.416
	c-0.258-0.089-0.522-0.167-0.793-0.231C137.66,176.172,120,171.682,120,144c0-2.555-1.22-4.956-3.284-6.462L34.008,77.173
	c-0.054-0.039-0.108-0.078-0.163-0.116c-6.986-4.837-15.88-5.175-23.208-0.882C3.339,80.451-0.698,88.337,0.101,96.755
	c3.874,40.83,35.97,94.581,59.529,109.945c9.693,6.322,33.004,12.71,44.406,15.59C104.02,222.859,104,223.427,104,224
	c0,23.641,14.32,43.331,33.095,47.27c3.484,20.239,8.042,38.17,12.108,54.152c5.648,22.197,10.526,41.366,10.526,58.849
	c0,42.349,20.004,80.494,52.206,99.548c0.208,0.123,0.423,0.218,0.636,0.32c0.938,1.562,1.915,3.09,2.951,4.558
	C226.131,503.724,240.505,512,256,512s29.869-8.276,40.477-23.303c1.037-1.468,2.013-2.997,2.952-4.558
	c0.216-0.103,0.434-0.2,0.645-0.325c32.196-19.056,52.197-57.199,52.197-99.543c0-17.004,4.905-36.477,10.584-59.024
	c4.037-16.025,8.56-34.002,12.037-53.974C393.673,267.34,408,247.646,408,224c0-0.573-0.02-1.141-0.036-1.709
	c11.402-2.88,34.713-9.269,44.406-15.59c23.559-15.364,55.656-69.116,59.529-109.945C512.698,88.337,508.661,80.451,501.363,76.176z
	 M68.37,193.299c-20.032-13.064-49.012-62.961-52.341-98.055c-0.299-3.149,1.785-4.729,2.695-5.263
	c0.917-0.538,3.322-1.586,5.947,0.186l79.434,57.975c1.02,19.58,9.222,30.618,16.807,36.697c-6.31,5.373-11.268,12.879-14.141,21.64
	C93.042,202.956,74.714,197.437,68.37,193.299z M298.766,334.963C294.179,340.706,287.339,344,280,344
	c-1.127,0-2.243-0.09-3.345-0.249c3.579-2.719,6.839-6.149,9.636-10.224c2.5-3.643,1.574-8.623-2.068-11.123
	c-3.644-2.501-8.623-1.575-11.123,2.068C270.401,328.404,264.591,335,256,335s-14.401-6.596-17.1-10.527
	c-2.5-3.643-7.481-4.57-11.123-2.068c-3.643,2.5-4.569,7.48-2.068,11.123c2.797,4.075,6.058,7.505,9.636,10.224
	C234.243,343.91,233.127,344,232,344c-7.339,0-14.179-3.294-18.766-9.037c-4.656-5.83-6.284-13.174-4.583-20.681
	c1.913-8.441,8.878-15.493,17.333-17.546c2.013-0.489,4.037-0.737,6.018-0.737c6.912,0,13.296,2.948,17.976,8.301
	c1.519,1.738,3.715,2.735,6.023,2.735c2.308,0,4.504-0.997,6.023-2.735c4.68-5.353,11.064-8.301,17.976-8.301
	c1.98,0,4.005,0.248,6.018,0.737c8.454,2.053,15.42,9.104,17.333,17.546C305.05,321.789,303.422,329.134,298.766,334.963z
	 M204.324,348.867C211.732,355.99,221.558,360,232,360c8.28,0,16.237-2.562,23.012-7.407c0.655-0.468,1.321-0.468,1.975,0
	C263.763,357.438,271.72,360,280,360c10.442,0,20.268-4.01,27.676-11.133C310.517,356.15,312,363.999,312,372
	c0,19.898-12.844,35.026-20.5,42.273C280.299,424.876,266.033,432,256,432c-18.677,0-56-25.939-56-60
	C200,363.998,201.483,356.149,204.324,348.867z M256,496c-10.148,0-19.881-5.871-27.405-16.53C220.473,467.964,216,452.526,216,436
	c0-1.471,0.047-2.941,0.119-4.407C229.12,441.84,243.841,448,256,448c12.064,0,26.852-6.132,39.882-16.395
	c0.072,1.462,0.118,2.928,0.118,4.395c0,16.526-4.473,31.964-12.595,43.47C275.881,490.129,266.148,496,256,496z M368,256
	c-0.051,0-0.1,0.007-0.151,0.008c-0.163,0.002-0.324,0.012-0.484,0.024c-0.106,0.008-0.211,0.017-0.315,0.029
	c-0.159,0.019-0.315,0.044-0.471,0.072c-0.107,0.019-0.214,0.039-0.319,0.062c-0.146,0.033-0.29,0.071-0.434,0.111
	c-0.111,0.031-0.222,0.063-0.332,0.099c-0.134,0.044-0.265,0.094-0.396,0.145c-0.112,0.043-0.224,0.087-0.333,0.136
	c-0.126,0.056-0.249,0.117-0.371,0.179c-0.106,0.054-0.213,0.108-0.317,0.167c-0.122,0.069-0.241,0.143-0.359,0.218
	c-0.096,0.061-0.192,0.122-0.285,0.187c-0.122,0.085-0.239,0.175-0.356,0.267c-0.083,0.064-0.165,0.128-0.244,0.195
	c-0.12,0.102-0.235,0.208-0.349,0.317c-0.07,0.066-0.14,0.132-0.207,0.201c-0.114,0.117-0.222,0.238-0.329,0.361
	c-0.061,0.07-0.121,0.14-0.179,0.211c-0.102,0.126-0.197,0.257-0.291,0.389c-0.056,0.08-0.113,0.158-0.167,0.24
	c-0.084,0.128-0.162,0.26-0.239,0.394c-0.055,0.096-0.109,0.19-0.161,0.289c-0.064,0.124-0.124,0.25-0.182,0.377
	c-0.053,0.116-0.105,0.233-0.153,0.353c-0.045,0.115-0.087,0.231-0.128,0.349c-0.048,0.138-0.093,0.277-0.134,0.419
	c-0.031,0.108-0.058,0.219-0.084,0.329c-0.037,0.152-0.07,0.304-0.097,0.459c-0.009,0.051-0.024,0.1-0.032,0.151
	c-3.465,21.698-8.403,41.303-12.76,58.6c-5.94,23.58-11.069,43.944-11.069,62.932c0,27.637-9.63,53.089-26.056,70.893
	C311.384,448.976,312,442.55,312,436c0-4.36-0.271-8.732-0.807-12.995c-0.206-1.641-0.896-3.102-1.907-4.259
	C320.311,405.85,328,389.623,328,372c0-13.773-3.524-27.216-10.184-38.968c2.414-7.031,2.853-14.715,1.137-22.285
	c-3.274-14.448-14.721-26.05-29.161-29.558c-3.248-0.789-6.542-1.189-9.794-1.189c-8.692,0-17.104,2.904-23.999,8.144
	C249.103,282.904,240.692,280,232,280c-3.251,0-6.546,0.4-9.794,1.189c-14.44,3.507-25.886,15.109-29.161,29.558
	c-1.715,7.57-1.277,15.254,1.137,22.285C187.524,344.784,184,358.226,184,372c0,16.348,6.595,32.652,18.711,46.75
	c-1.01,1.157-1.698,2.617-1.904,4.255C200.271,427.268,200,431.64,200,436c0,6.55,0.616,12.977,1.786,19.165
	c-16.426-17.804-26.056-43.256-26.056-70.894c0-19.486-5.107-39.556-11.021-62.794c-4.38-17.214-9.345-36.725-12.806-58.72
	c-0.008-0.054-0.024-0.106-0.034-0.16c-0.027-0.155-0.06-0.308-0.096-0.459c-0.026-0.11-0.054-0.219-0.084-0.327
	c-0.041-0.144-0.087-0.286-0.136-0.426c-0.039-0.115-0.08-0.229-0.125-0.341c-0.049-0.124-0.103-0.245-0.158-0.366
	c-0.056-0.122-0.113-0.244-0.174-0.362c-0.055-0.104-0.112-0.207-0.171-0.309c-0.073-0.126-0.147-0.251-0.226-0.373
	c-0.059-0.09-0.121-0.178-0.184-0.265c-0.088-0.124-0.177-0.246-0.272-0.364c-0.065-0.081-0.133-0.16-0.202-0.238
	c-0.099-0.115-0.199-0.228-0.305-0.335c-0.075-0.077-0.153-0.151-0.231-0.226c-0.106-0.101-0.213-0.2-0.324-0.294
	c-0.087-0.074-0.177-0.145-0.267-0.215c-0.109-0.085-0.219-0.169-0.333-0.249c-0.1-0.07-0.202-0.135-0.306-0.201
	c-0.112-0.071-0.224-0.141-0.34-0.207c-0.108-0.062-0.22-0.119-0.332-0.175c-0.119-0.06-0.237-0.119-0.359-0.173
	c-0.112-0.05-0.226-0.095-0.339-0.14c-0.13-0.051-0.26-0.1-0.393-0.144c-0.109-0.036-0.219-0.068-0.33-0.1
	c-0.145-0.042-0.291-0.08-0.438-0.113c-0.103-0.023-0.208-0.042-0.313-0.062c-0.158-0.029-0.318-0.054-0.479-0.073
	c-0.101-0.012-0.203-0.021-0.306-0.029c-0.164-0.013-0.328-0.022-0.494-0.025c-0.05,0.001-0.1-0.006-0.152-0.006
	c-13.234,0-24-14.355-24-32s10.766-32,24-32c1.423,0,2.757-0.376,3.915-1.027c0.158,0.009,0.316,0.027,0.474,0.027
	c2.91,0,5.717-1.593,7.131-4.363c7.626-14.936,18.747-27.563,33.052-37.529c3.625-2.525,4.517-7.512,1.991-11.137
	s-7.513-4.516-11.137-1.991c-3.313,2.308-6.472,4.749-9.487,7.305l6.038-102.646C177.595,24.979,186.344,16,200,16
	c13.233,0,24,10.767,24,24v56c0,2.122,0.843,4.157,2.343,5.657l11.609,11.609c-5.352,0.741-10.691,1.797-15.985,3.188
	c-4.273,1.123-6.827,5.497-5.704,9.771c1.123,4.273,5.499,6.83,9.771,5.704C235.953,129.322,246.036,128,256,128
	c12.583,0,25.187,2.072,37.461,6.157c0.838,0.279,1.69,0.412,2.527,0.412c3.351,0,6.473-2.122,7.589-5.476
	c1.396-4.192-0.872-8.722-5.063-10.117c-8.049-2.679-16.233-4.569-24.471-5.707l11.613-11.613c1.5-1.5,2.343-3.535,2.343-5.657V40
	c0-13.234,10.766-24,24-24c13.665,0,22.417,8.99,24.027,24.67l6.89,103.347c-2.599-2.246-5.308-4.403-8.134-6.463
	c-3.57-2.603-8.574-1.818-11.177,1.752c-2.603,3.57-1.818,8.574,1.752,11.177c13.684,9.975,24.313,22.453,31.593,37.087
	c1.398,2.812,4.229,4.439,7.169,4.439c0.651,0,1.308-0.088,1.956-0.252c0.618,0.153,1.26,0.243,1.925,0.243
	c13.234,0,24,14.355,24,32S381.234,256,368,256z M495.971,95.245c-3.329,35.094-32.309,84.99-52.341,98.055
	c-6.336,4.132-24.668,9.654-38.401,13.179c-2.874-8.761-7.831-16.267-14.141-21.639c7.584-6.079,15.787-17.117,16.807-36.697
	l79.434-57.975c2.625-1.773,5.03-0.724,5.947-0.186C494.186,90.515,496.27,92.095,495.971,95.245z"/>
<g>
</g>
<g>
</g>
<g>
</g>
<g>
</g>
<g>
</g>
<g>
</g>
<g>
</g>
<g>
</g>
<g>
</g>
<g>
</g>
<g>
</g>
<g>
</g>
<g>
</g>
<g>
</g>
<g>
</g>
</svg>
