<?xml version="1.0" encoding="iso-8859-1"?>
<!-- Generator: Adobe Illustrator 19.0.0, SVG Export Plug-In . SVG Version: 6.00 Build 0)  -->
<svg version="1.1" id="Layer_1" xmlns="http://www.w3.org/2000/svg" xmlns:xlink="http://www.w3.org/1999/xlink" x="0px" y="0px"
	 viewBox="0 0 512 512" style="enable-background:new 0 0 512 512;" xml:space="preserve">
<path style="fill:#C39B6E;" d="M454.869,40c-12.334-31.396-43-32-56-32c-66.528,0-100.083,134.872-128.3,169.184
	C265.914,176.425,261.071,176,256,176s-9.914,0.425-14.569,1.184C213.214,142.872,179.659,8,113.131,8c-13,0-43.666,0.604-56,32
	C46.436,67.223,71.686,191.78,176.024,229.002C159.282,260.827,152,302.979,152,344c0,57.093,22.717,96.877,55.99,115.678
	l96.012,0.005C337.279,440.885,360,401.098,360,344c0-41.021-7.282-83.173-24.024-114.998C440.314,191.78,465.564,67.223,454.869,40
	z"/>
<g>
	<path style="fill:#9B7855;" d="M191.333,152c0,0-4-52.667-13.333-89c-8.051-31.343-19-41-61-55C96.72,1.24,56.333,20.333,56,47
		c-0.088,7.071-2.642,122.002,120.024,182.002C183.983,214.778,194.627,202.228,209,192C200,178,193.667,166,191.333,152z"/>
	<path style="fill:#9B7855;" d="M456,47c-0.333-26.667-40.72-45.76-61-39c-42,14-49.5,25-61,55c-13.427,35.027-14,89-14,89
		c-2.333,14-8,26-17,40c12.647,9.019,24.12,20.39,32.976,37.002C458.642,169.002,456.088,54.071,456,47z"/>
</g>
<path style="fill:#C39B6E;" d="M276,493c-4.483,0-12.249-6.316-16-9c-4.414-3.158-3.586-3.158-8,0c-3.751,2.684-11.517,9-16,9
	c-5.258,0-10.175-2.074-14.378-5.676c8.463,9.883,20.674,17.676,34.536,17.676c0,0,29.097,1.425,39.4-23.388
	C290.511,488.654,283.612,493,276,493z"/>
<path style="fill:#FFDEB7;" d="M290.021,418.382L291,424h-34.236c-0.258,0.35-0.516,0.701-0.764,1.064
	c-0.249-0.363-0.506-0.714-0.764-1.064H221l0.979-5.618C213.624,425.303,208,438.209,208,453c0,14.58,5.462,27.334,13.622,34.324
	c4.203,3.602,9.12,5.676,14.378,5.676c4.483,0,12.249-6.316,16-9c4.414-3.158,3.586-3.158,8,0c3.751,2.684,11.517,9,16,9
	c7.612,0,14.511-4.346,19.558-11.388C300.764,474.35,304,464.217,304,453C304,438.209,298.376,425.303,290.021,418.382z"/>
<path style="fill:#E1BD93;" d="M285.037,389.792l-11.494-65.94c-0.97-5.566-4.525-10.343-9.579-12.869
	c-5.014-2.507-10.914-2.507-15.928,0c-5.054,2.526-8.609,7.303-9.579,12.869l-11.494,65.94C234.253,385.703,244.562,384,256,384
	C267.438,384,277.747,385.703,285.037,389.792z"/>
<path style="fill:#9B7855;" d="M285.037,389.792C277.747,385.703,267.438,384,256,384s-21.747,1.703-29.037,5.792
	C220.173,393.6,216,399.478,216,408c0,17.673,17.909,40,40,40s40-22.327,40-40C296,399.478,291.827,393.6,285.037,389.792z"/>
<path d="M191.333,297.334c-8.455,0-15.333,6.878-15.333,15.333c0,8.455,6.878,15.333,15.333,15.333s15.333-6.878,15.333-15.333
	C206.667,304.212,199.788,297.334,191.333,297.334z M191.333,313.334c-0.368,0-0.667-0.3-0.667-0.667s0.299-0.667,0.667-0.667
	s0.667,0.299,0.667,0.667S191.701,313.334,191.333,313.334z"/>
<path d="M319.333,328c8.455,0,15.333-6.878,15.333-15.333c0-8.455-6.878-15.333-15.333-15.333c-8.455,0-15.333,6.878-15.333,15.333
	S310.878,328,319.333,328z M319.333,312c0.368,0,0.667,0.299,0.667,0.667s-0.299,0.667-0.667,0.667s-0.667-0.3-0.667-0.667
	S318.966,312,319.333,312z"/>
<path d="M462.315,37.075C447.75,0,410.959,0,398.869,0c-51.597,0-82.783,67.564-107.841,121.854
	c-8.606,18.646-16.788,36.37-24.021,46.767c-7.324-0.824-14.69-0.824-22.015,0c-7.233-10.396-15.414-28.12-24.021-46.767
	C195.914,67.564,164.728,0,113.131,0c-12.09,0-48.881,0-63.446,37.075c-6.211,15.809-2.678,54.89,16.103,96.178
	c10.35,22.755,23.822,42.789,40.041,59.547c17.153,17.723,37.024,31.326,59.171,40.521c-13.583,29.729-21,68.604-21,110.678
	c0,55.432,21.174,99.561,58.162,121.523c1.361,5.458,3.35,10.686,5.91,15.544c0.148,0.333,0.318,0.659,0.516,0.976
	c2.656,4.844,5.877,9.307,9.627,13.223C228.545,506.058,241.964,512,256,512c19.852,0,37.31-11.876,47.257-29.728
	c0.261-0.388,0.486-0.79,0.671-1.205c2.548-4.806,4.545-10.03,5.922-15.55C346.831,443.551,368,399.427,368,344
	c0-42.073-7.417-80.949-21-110.678c22.147-9.196,42.018-22.799,59.171-40.521c16.219-16.758,29.691-36.792,40.041-59.547
	C464.993,91.965,468.526,52.884,462.315,37.075z M248,455.19v13.705c-3.778,3.82-11.12,9.826-17.37,9.686
	c-1.137-0.027-4.526-0.125-8.495-5.113C218.174,465.902,216,457.1,216,448c0-4.556,0.522-8.997,1.553-13.276
	C224.781,444.685,235.569,452.707,248,455.19z M294.448,434.723c1.03,4.28,1.552,8.721,1.552,13.277
	c0,9.324-2.235,18.03-6.084,25.404c-3.991,5.052-7.404,5.15-8.546,5.177c-6.302,0.136-13.603-5.874-17.37-9.684V455.19
	C276.431,452.707,287.22,444.685,294.448,434.723z M256,440c-16.934,0-32-17.895-32-32c0-13.224,17.402-16,32-16s32,2.776,32,16
	C288,422.105,272.934,440,256,440z M241.243,492.587c5.935-2.232,11.052-5.962,14.756-9.225c3.708,3.266,8.83,6.999,14.772,9.231
	C266.198,494.783,261.217,496,256,496C250.907,496,245.906,494.817,241.243,492.587z M431.648,126.628
	c-14.229,31.281-41.667,72.096-92.176,92.474c-10.512-17.125-22.376-27.668-30.868-33.644c-3.612-2.542-8.603-1.675-11.146,1.938
	c-2.542,3.614-1.675,8.604,1.938,11.147c6.594,4.641,19.194,15.258,29.526,34.236C343.804,261.096,352,300.591,352,344
	c0,44.055-14.438,79.855-40.078,100.639c-0.367-8.224-2.083-16.156-5.119-23.624c-0.774-1.902-2.2-3.338-3.912-4.171
	c0.719-2.98,1.109-5.952,1.109-8.844c0-9.622-4.677-32-48-32s-48,22.378-48,32c0,2.886,0.388,5.851,1.104,8.823
	c-1.704,0.834-3.122,2.265-3.894,4.159c-3.045,7.477-4.765,15.42-5.132,23.656C174.438,423.855,160,388.056,160,344
	c0-43.408,8.195-82.903,23.078-111.22c9.304-17.087,21.733-28.049,30.526-34.237c3.613-2.542,4.481-7.533,1.938-11.147
	c-2.542-3.612-7.532-4.479-11.146-1.938c-9.113,6.413-21.591,17.269-31.84,33.656c-50.527-20.374-77.973-61.199-92.205-92.485
	C63.316,89.177,60.245,53.953,64.577,42.925C73.952,19.061,95.45,16,113.131,16c18.271,0,34.329,12.7,48.456,30.969
	c0.269,0.81,0.665,1.591,1.208,2.309c12.426,16.426,13.55,39.044,14.637,60.918c0.796,16.021,1.548,31.153,6.378,44.522
	c1.177,3.257,4.25,5.283,7.524,5.283c0.902,0,1.82-0.154,2.718-0.478c4.155-1.502,6.307-6.088,4.806-10.243
	c-4.017-11.118-4.711-25.088-5.446-39.879c-0.156-3.135-0.316-6.327-0.512-9.553c4.829,9.827,9.337,19.592,13.545,28.71
	c10.543,22.843,19.649,42.57,28.806,53.705c1.81,2.2,4.653,3.271,7.466,2.814c8.784-1.433,17.78-1.433,26.564,0
	c2.813,0.455,5.655-0.614,7.466-2.814c9.157-11.135,18.263-30.862,28.806-53.705c3.987-8.64,8.245-17.859,12.787-27.163
	c-0.155,2.7-0.289,5.374-0.42,8.006c-0.735,14.791-1.43,28.762-5.446,39.879c-1.501,4.155,0.65,8.741,4.806,10.243
	c0.898,0.324,1.815,0.478,2.718,0.478c3.275,0,6.348-2.026,7.524-5.283c4.83-13.369,5.582-28.501,6.378-44.521
	c1.014-20.412,2.064-41.471,12.296-57.541C361.324,31.387,378.756,16,398.869,16c17.681,0,39.179,3.061,48.554,26.925
	C451.755,53.953,448.684,89.177,431.648,126.628z"/>
<g>
</g>
<g>
</g>
<g>
</g>
<g>
</g>
<g>
</g>
<g>
</g>
<g>
</g>
<g>
</g>
<g>
</g>
<g>
</g>
<g>
</g>
<g>
</g>
<g>
</g>
<g>
</g>
<g>
</g>
</svg>
