<?xml version="1.0" encoding="iso-8859-1"?>
<!-- Generator: Adobe Illustrator 19.0.0, SVG Export Plug-In . SVG Version: 6.00 Build 0)  -->
<svg version="1.1" id="Layer_1" xmlns="http://www.w3.org/2000/svg" xmlns:xlink="http://www.w3.org/1999/xlink" x="0px" y="0px"
	 viewBox="0 0 512 512" style="enable-background:new 0 0 512 512;" xml:space="preserve">
<path style="fill:#A5A5AD;" d="M444.066,231.744l-0.307-0.108c-21.296-7.502-37.222-25.146-43.217-46.913
	C384.28,125.68,325.733,81.965,256,81.965c-70.244,0-129.136,44.357-144.892,104.058c-5.57,21.106-21.046,38.187-41.535,45.72l0,0
	c-2.881,13.595-4.319,27.722-4.147,42.215c1.253,105.096,86.289,189.072,191.393,189.072c105.71,0,191.405-85.696,191.405-191.406
	C448.226,257.947,446.792,244.608,444.066,231.744z"/>
<g>
	<path style="fill:#878791;" d="M105.29,199.845c-10.633,26.585-48.69,36.467-71.843,13.315
		c-35.984-35.984-33.593-96.713,5.338-135.646s114.193-44.558,157.202,15.454"/>
	<path style="fill:#878791;" d="M406.711,199.845c10.634,26.585,48.691,36.467,71.843,13.315
		c35.984-35.984,33.593-96.713-5.338-135.646S362.183,37.016,318.984,88.191"/>
</g>
<circle cx="173.987" cy="288.012" r="16.003"/>
<circle cx="338.022" cy="288.012" r="16.003"/>
<path style="fill:#464655;" d="M256,288.008c-17.677,0-32.007,14.329-32.007,32.007v64.014c0,17.677,14.33,24.005,32.007,24.005
	c17.677,0,32.007-6.328,32.007-24.005v-64.014C288.007,302.337,273.677,288.008,256,288.008z"/>
<path d="M288.321,424.663c1.421,4.184-0.817,8.729-5.001,10.15c-8.425,2.863-17.341,4.315-26.501,4.315
	c-9.16,0-18.076-1.452-26.501-4.315c-4.185-1.422-6.423-5.967-5.001-10.15c1.421-4.185,5.968-6.423,10.15-5.001
	c6.762,2.297,13.946,3.463,21.351,3.463c7.405,0,14.588-1.165,21.352-3.464C282.354,418.241,286.899,420.479,288.321,424.663z
	 M319.268,386.758c2.482,3.657,1.528,8.633-2.127,11.114c-21.197,14.383-39.444,17.331-60.321,17.331s-39.122-2.948-60.32-17.331
	c-3.657-2.482-4.609-7.458-2.127-11.114c2.482-3.657,7.458-4.609,11.114-2.128c4.284,2.907,8.402,5.252,12.443,7.146
	c-0.665-2.642-1.012-5.477-1.012-8.499v-63.802c0-22.003,17.9-39.903,39.902-39.903c22.003,0,39.903,17.901,39.903,39.903v63.802
	c0,3.022-0.347,5.857-1.012,8.499c4.042-1.893,8.16-4.238,12.443-7.146C311.811,382.148,316.786,383.101,319.268,386.758z
	 M256.82,399.2c23.9,0,23.9-11.986,23.9-15.924v-63.802c0-13.178-10.721-23.9-23.9-23.9c-13.179,0-23.899,10.722-23.899,23.9v63.802
	C232.921,387.214,232.921,399.2,256.82,399.2z M484.212,218.817c-8.758,8.758-19.77,13.939-31.559,15.101
	c2.365,12.362,3.575,25.024,3.575,37.704c0,109.953-89.455,199.407-199.408,199.407S57.412,381.576,57.412,271.622
	c0-12.639,1.201-25.259,3.551-37.585c-12.396-0.832-24.017-6.064-33.174-15.221C-11.258,179.77-8.862,113.845,33.126,71.855
	c20.871-20.87,50.662-32.086,81.716-30.779c31.887,1.345,61.156,15.567,82.691,40.108c19.128-5.951,39.033-8.971,59.285-8.971
	c19.795,0,39.261,2.883,57.992,8.57c21.503-24.297,50.631-38.37,82.345-39.708c31.053-1.312,60.846,9.909,81.716,30.779
	C520.862,113.845,523.258,179.771,484.212,218.817z M472.896,207.5c32.806-32.805,30.41-88.58-5.338-124.329
	c-8.091-8.091-17.791-14.465-28.474-18.902c-0.39,0.022-0.784,0.027-1.185-0.01c-22.339-1.999-36.732,1.123-44.005,9.548
	c-6.572,7.614-8.035,19.888-9.583,32.883c-2.084,17.502-4.447,37.339-20.135,51.283c-1.524,1.354-3.423,2.021-5.313,2.021
	c-2.206,0-4.402-0.906-5.983-2.686c-2.936-3.304-2.639-8.361,0.665-11.296c11.147-9.909,12.959-25.115,14.876-41.216
	c1.963-16.486,4.217-35.373,19.113-46.762c-22.502,3.303-43.056,14.238-59.06,31.508c0.275,1.368,0.205,2.824-0.294,4.235
	c-1.161,3.285-4.248,5.337-7.544,5.337c-0.885,0-1.785-0.148-2.668-0.46c-19.592-6.926-40.165-10.438-61.147-10.438
	c-20.977,0-41.546,3.511-61.135,10.434c-4.167,1.472-8.738-0.71-10.211-4.878c-0.302-0.855-0.442-1.728-0.451-2.588
	c-16.209-18.22-37.346-29.744-60.554-33.15c14.895,11.387,17.149,30.274,19.112,46.761c1.917,16.1,3.729,31.307,14.876,41.216
	c3.303,2.936,3.601,7.994,0.665,11.296c-1.581,1.777-3.778,2.686-5.983,2.686c-1.891,0-3.789-0.666-5.313-2.021
	c-15.688-13.944-18.051-33.781-20.135-51.283c-1.547-12.995-3.01-25.269-9.583-32.883c-7.273-8.425-21.667-11.548-44.005-9.548
	c-0.399,0.036-0.792,0.032-1.18,0.009C62.238,68.705,52.535,75.079,44.444,83.17C8.694,118.92,6.3,174.693,39.106,207.499
	c8.785,8.785,20.848,12.38,33.097,9.866c11.912-2.445,21.504-10.106,25.658-20.494c1.641-4.104,6.297-6.099,10.401-4.458
	c4.103,1.641,6.099,6.298,4.458,10.401c-5.903,14.759-18.968,25.733-35.185,29.728c-0.029,0.285-0.071,0.57-0.132,0.856
	c-2.646,12.482-3.987,25.341-3.987,38.221c0,101.128,82.274,183.404,183.405,183.404s183.405-82.275,183.405-183.404
	c0-12.88-1.341-25.738-3.986-38.218c-0.033-0.153-0.05-0.305-0.073-0.458c-17.004-3.626-30.774-14.857-36.883-30.129
	c-1.641-4.103,0.354-8.76,4.458-10.401c4.104-1.641,8.76,0.354,10.401,4.458c4.155,10.388,13.747,18.049,25.658,20.494
	C452.048,219.881,464.111,216.284,472.896,207.5z"/>
<g>
</g>
<g>
</g>
<g>
</g>
<g>
</g>
<g>
</g>
<g>
</g>
<g>
</g>
<g>
</g>
<g>
</g>
<g>
</g>
<g>
</g>
<g>
</g>
<g>
</g>
<g>
</g>
<g>
</g>
</svg>
