<?xml version="1.0" encoding="iso-8859-1"?>
<!-- Generator: Adobe Illustrator 19.0.0, SVG Export Plug-In . SVG Version: 6.00 Build 0)  -->
<svg version="1.1" id="Layer_1" xmlns="http://www.w3.org/2000/svg" xmlns:xlink="http://www.w3.org/1999/xlink" x="0px" y="0px"
	 viewBox="0 0 512 512" style="enable-background:new 0 0 512 512;" xml:space="preserve">
<path style="fill:#877364;" d="M128.353,29.977c-9.603,0-18.952,1.393-27.787,4.139l-5.621,1.747l5.522,2.039
	c5.511,2.035,10.768,5.305,15.626,9.718c1.187,1.078,1.882,2.553,1.959,4.153c0.077,1.601-0.475,3.136-1.552,4.322
	c-1.135,1.25-2.755,1.966-4.444,1.966c-1.493,0-2.925-0.553-4.031-1.559c-4.299-3.904-11.118-9.096-20.657-9.096
	c-8.465,0-17.651,4.183-27.303,12.433l-0.081,0.069l-0.073,0.077c-9.033,9.55-16.835,21.22-23.19,34.687
	c-11.813,25.026-19.106,53.17-21.675,83.649l3.741,1.14c2.119-3.81,4.488-7.459,7.043-10.844c1.145-1.517,2.892-2.387,4.796-2.387
	c1.311,0,2.558,0.418,3.607,1.211c2.641,1.993,3.168,5.763,1.176,8.404c-16.402,21.738-21.857,51.971-15.767,87.513l0.02,0.179
	l0.019,0.122c9.797,51.564,28.381,82.24,38.449,87.553c3.875,2.045,7.383,3.082,10.426,3.082c6.117,0,11.179-4.536,15.048-13.482
	l1.56-3.608l-3.835,0.863c-0.992,0.223-1.996,0.336-2.986,0.337c-14.318,0-19.235-21.543-20.852-28.624
	c-6.042-26.467-6.433-58.278-1.101-89.573c5.097-29.917,14.926-55.735,26.967-70.833c0.204-0.256,0.407-0.502,0.66-0.808l3.809-4.61
	l-5.817,1.391c-8.223,1.967-16.153,5.245-23.571,9.741c-0.939,0.569-2.012,0.87-3.103,0.87c-2.12,0-4.041-1.081-5.139-2.891
	c-0.831-1.371-1.078-2.982-0.696-4.539c0.381-1.557,1.347-2.871,2.717-3.702c14.214-8.616,31.034-13.557,46.148-13.557
	c9.388,0,17.505,1.931,23.474,5.585l0.134,0.075c6.838,3.495,13.425,10.094,19.579,19.615l3.674-1.236
	c-1.969-26.104-10.148-56.102-20.835-76.422c-0.746-1.418-0.895-3.042-0.419-4.573c0.476-1.53,1.519-2.784,2.938-3.53
	c0.872-0.459,1.809-0.691,2.785-0.691c2.239,0,4.277,1.229,5.319,3.209c15.636,29.73,22.692,69.082,22.633,93.063l-0.005,1.883
	l1.88,0.118c2.246,0.141,4.496,0.212,6.69,0.212c10.431,0,25.526-1.642,38.201-9.462c27.134-16.743,29.067-40.381,29.198-43.022
	l0.002-0.105C233.487,72.582,181.348,29.977,128.353,29.977z"/>
<g>
	<path style="fill:#CFBAA4;" d="M127.439,157.354c-3.542-4.496-7.109-7.711-10.684-9.597c-0.131-0.061-0.26-0.128-0.388-0.2
		l-0.112-0.059c-2.158-1.048-4.305-1.58-6.381-1.58c-5.054,0-10.299,3.061-15.593,9.098l-2.903,3.311l4.403,0.008
		c11.135,0.02,21.146,0.771,29.752,2.229l5.119,0.868L127.439,157.354z"/>
	<path style="fill:#CFBAA4;" d="M131.881,174.208c-12.233-3.339-28.618-3.837-37.295-3.837c-1.847,0-3.609,0.021-5.251,0.058
		l-2.244,0.05l0.307,2.224c4.078,29.524,21.616,41.81,31.708,46.506l2.578,1.199l0.258-2.831
		c1.29-14.159,5.064-27.809,11.214-40.569l1.043-2.165L131.881,174.208z"/>
</g>
<path style="fill:#877364;" d="M255.64,330.472c-37.233,0-66.111,30.77-66.111,57.24c0,21.689,19.527,33.39,58.039,34.776
	l2.072,0.075v-20.706l-1.394-0.443c-12.959-4.123-22.643-18.642-22.643-28.868c0-6.057,3.257-10.493,9.173-12.492
	c4.21-1.422,9.595-1.542,14.748-1.542c0.967,0,1.958,0.005,2.968,0.01c1.03,0.005,2.088,0.008,3.147,0.008s2.118-0.002,3.148-0.008
	c1.01-0.005,2.001-0.01,2.968-0.01c5.155,0,10.539,0.119,14.749,1.542c5.915,1.998,9.172,6.435,9.172,12.492
	c0,10.226-9.684,24.744-22.643,28.868l-1.394,0.443v20.706l2.072-0.075c38.512-1.387,58.039-13.087,58.039-34.776
	C321.752,361.242,292.873,330.472,255.64,330.472z"/>
<path style="fill:#FFEBD2;" d="M255.64,431.854c-22.428,0-41.108-2.867-55.523-8.522l-3.354-1.316l0.193,3.8
	c0.665,13.054,3.151,24.154,7.39,32.992l0.111,0.231l0.152,0.202c0.51,0.675,0.907,1.441,1.178,2.28l0.08,0.247l0.125,0.223
	c9.334,16.609,26.039,25.031,49.647,25.031s40.312-8.422,49.647-25.031l0.125-0.224l0.08-0.247c0.271-0.839,0.668-1.605,1.177-2.277
	l0.154-0.202l0.11-0.231c4.237-8.838,6.725-19.938,7.39-32.994l0.193-3.8l-3.354,1.316
	C296.749,428.987,278.068,431.854,255.64,431.854z"/>
<path style="fill:#464655;" d="M272.167,371.249c-1.812-0.495-5.217-0.736-10.41-0.736c-0.928,0-5.037,0.019-6.117,0.019
	c-1.079,0-2.159-0.003-3.266-0.009c-0.97-0.004-1.921-0.009-2.85-0.009c-5.194,0-8.599,0.241-10.41,0.736l-1.651,0.451l0.19,1.701
	c0.659,5.882,8.708,17.182,17.987,17.182c9.279,0,17.329-11.3,17.987-17.182l0.19-1.701L272.167,371.249z"/>
<path style="fill:#9F8976;" d="M366.325,180.219l-0.658-1.294l-1.434,0.225c-4.163,0.653-10.743,1.431-18.447,1.431
	c-17.432,0-32.404-3.785-44.503-11.25c-33.758-20.829-34.867-51.736-34.898-53.041l-0.001-2.151h-18.768l-2,0.012l-0.001,2.139
	c-0.031,1.305-1.14,32.212-34.898,53.041c-12.098,7.465-27.071,11.25-44.503,11.25c-8.008,0-14.805-0.835-19.099-1.535l-1.44-0.235
	l-0.663,1.3c-7.568,14.84-11.568,31.512-11.568,48.213c0,40.233,15.302,146.791,15.959,151.342
	c4.133,25.457,10.086,42.67,18.733,54.173c6.572,8.743,15.079,14.569,26.009,17.813l3.437,1.02l-0.937-3.46
	c-2.05-7.568-3.089-16.15-3.089-25.508c0-0.619,0.096-1.234,0.286-1.827l0.429-1.343l-1.121-0.855
	c-10.364-7.91-15.619-18.664-15.619-31.964c0-16.818,8.408-34.167,23.067-47.601c15.23-13.955,34.777-21.64,55.045-21.64
	s39.816,7.686,55.046,21.64c14.659,13.433,23.067,30.783,23.067,47.601c0,13.3-5.255,24.054-15.619,31.964l-1.121,0.855l0.429,1.343
	c0.189,0.593,0.286,1.208,0.286,1.827c0,9.357-1.039,17.94-3.089,25.508l-0.937,3.46l3.437-1.02
	c10.929-3.243,19.437-9.069,26.009-17.813c8.647-11.504,14.599-28.718,18.738-54.207c0.651-4.518,15.954-111.107,15.954-151.307
	C377.838,211.666,373.857,195.032,366.325,180.219z"/>
<g>
	<path style="fill:#CFBAA4;" d="M416.218,158.335l4.404-0.008l-2.903-3.311c-5.294-6.037-10.54-9.098-15.593-9.098
		c-2.076,0-4.222,0.531-6.38,1.58l-0.112,0.059c-0.13,0.074-0.262,0.141-0.476,0.244c-3.49,1.844-7.056,5.059-10.598,9.554
		l-3.213,4.078l5.119-0.868C395.076,159.104,405.086,158.354,416.218,158.335z"/>
	<path style="fill:#CFBAA4;" d="M422.669,170.428c-1.645-0.037-3.407-0.058-5.26-0.058c-8.901,0-25.669,0.521-37.947,4.017
		l-2.283,0.649l1.027,2.14c6.154,12.818,9.909,26.529,11.162,40.75l0.245,2.782l2.555-1.127
		c10.338-4.562,28.299-16.719,32.438-46.882l0.305-2.222L422.669,170.428z"/>
</g>
<path style="fill:#877364;" d="M477.766,167.444c1.05-0.792,2.297-1.211,3.608-1.211c1.903,0,3.651,0.87,4.796,2.387
	c2.555,3.386,4.924,7.035,7.043,10.844l3.741-1.14c-2.57-30.48-9.863-58.624-21.675-83.649
	c-6.357-13.466-14.158-25.137-23.19-34.686l-0.073-0.077l-0.081-0.069c-9.652-8.251-18.838-12.435-27.304-12.435
	c-9.54,0-16.358,5.192-20.657,9.096c-1.106,1.005-2.539,1.559-4.032,1.559c-1.689,0-3.309-0.716-4.443-1.966
	c-1.078-1.187-1.629-2.721-1.552-4.322c0.077-1.601,0.772-3.076,1.959-4.153c4.857-4.413,10.114-7.683,15.625-9.718l5.522-2.039
	l-5.621-1.747c-8.835-2.747-18.184-4.139-27.786-4.139c-53.014,0-105.153,42.616-105.259,86.135
	c0.123,2.633,1.987,26.216,29.198,43.006c12.675,7.82,27.771,9.462,38.202,9.462c2.192,0,4.443-0.071,6.69-0.212l1.88-0.118
	l-0.005-1.883c-0.059-23.981,6.999-63.334,22.633-93.063c1.041-1.979,3.079-3.209,5.319-3.209c0.976,0,1.914,0.232,2.785,0.691
	c1.419,0.746,2.462,2,2.938,3.53c0.476,1.531,0.327,3.155-0.419,4.573c-10.687,20.32-18.866,50.318-20.835,76.422l3.674,1.236
	c6.154-9.521,12.741-16.121,19.579-19.615l0.134-0.075c5.969-3.654,14.085-5.586,23.473-5.586c15.113,0,31.933,4.941,46.149,13.558
	c1.371,0.831,2.336,2.145,2.717,3.702c0.382,1.557,0.134,3.168-0.696,4.539c-1.097,1.811-3.018,2.891-5.143,2.891
	c-1.088,0-2.16-0.301-3.099-0.87c-7.419-4.496-15.351-7.774-23.572-9.742l-5.799-1.388l3.917,4.759
	c0.178,0.216,0.357,0.433,0.535,0.656c12.041,15.099,21.87,40.917,26.967,70.833c5.332,31.295,4.94,63.106-1.101,89.573
	c-1.616,7.08-6.534,28.623-20.853,28.623c-0.988,0-1.992-0.113-2.985-0.336l-3.834-0.862l1.56,3.607
	c3.868,8.946,8.932,13.482,15.047,13.481c3.044,0,6.553-1.037,10.427-3.082c10.067-5.314,28.652-35.99,38.449-87.553l0.012-0.061
	l0.036-0.322c6.083-35.46,0.627-65.693-15.775-87.431C474.597,173.207,475.125,169.436,477.766,167.444z"/>
<path d="M343.777,229.986c-8.83,0-16.014,7.184-16.014,16.014c0,8.83,7.184,16.014,16.014,16.014S359.79,254.83,359.79,246
	C359.79,237.17,352.607,229.986,343.777,229.986z"/>
<path d="M167.504,229.986c-8.83,0-16.014,7.184-16.014,16.014c0,8.83,7.184,16.014,16.014,16.014c8.83,0,16.013-7.184,16.013-16.014
	C183.517,237.17,176.333,229.986,167.504,229.986z"/>
<path d="M240.256,445.739c-4.398-0.352-8.263,2.929-8.617,7.334c-0.354,4.404,2.929,8.263,7.334,8.617
	c5.229,0.42,10.836,0.634,16.669,0.634c5.833,0,11.44-0.213,16.668-0.634c4.404-0.354,7.688-4.211,7.334-8.617
	c-0.354-4.404-4.202-7.686-8.617-7.334c-4.802,0.386-9.979,0.582-15.385,0.582C250.236,446.321,245.058,446.126,240.256,445.739z"/>
<path d="M487.942,90.349c-22.135-46.896-59.174-72.722-104.295-72.722c-54.89,0-107.093,39.032-117.415,84.161h-20.464
	c-10.323-45.129-62.524-84.161-117.415-84.161c-45.12,0-82.16,25.827-104.295,72.722C-7.1,156.362-1.298,226.524,4.934,262.472
	c8.781,50.648,27.969,92.912,46.662,102.778c5.91,3.119,11.616,4.7,16.961,4.7c24.74,0,33.526-32.245,34.817-51.297
	c0.256-3.781-2.179-7.217-5.829-8.239c-3.65-1.021-7.52,0.663-9.264,4.028c-3.01,5.806-7.818,11.09-9.789,11.585
	c-0.676-0.49-4.131-3.608-7.351-17.709c-8.471-37.111-4.038-81.977,6.531-114.63c5.531,15.724,14.584,25.75,22.473,31.901
	c7.236,5.644,14.414,8.8,19.389,10.494c1.287,45.137,15.385,142.938,16.013,147.274c0.006,0.045,0.013,0.089,0.021,0.134
	c6.6,40.694,19.378,79.091,66.963,85.888c10.567,16.347,28.564,24.993,53.109,24.993s42.541-8.647,53.109-24.993
	c47.585-6.798,60.363-45.194,66.963-85.888c0.007-0.045,0.014-0.089,0.021-0.134c0.626-4.326,14.675-101.786,16.006-147.031
	c4.987-1.629,12.52-4.813,20.115-10.737c7.888-6.153,16.942-16.179,22.473-31.901c10.569,32.653,15.001,77.52,6.531,114.63
	c-3.205,14.043-6.646,17.193-7.342,17.703c-2.031-0.544-6.803-5.804-9.791-11.565c-1.734-3.376-5.604-5.067-9.259-4.053
	c-3.657,1.017-6.097,4.462-5.841,8.25c1.292,19.053,10.078,51.299,34.818,51.297c5.346,0,11.051-1.582,16.961-4.7
	c18.693-9.866,37.881-52.13,46.662-102.778C513.298,226.524,519.099,156.362,487.942,90.349z M119.95,219.045
	c-10.37-4.826-26.676-16.773-30.57-44.966c11.668-0.262,29.34,0.26,41.974,3.709C125.122,190.716,121.256,204.707,119.95,219.045z
	 M95.785,157.986c3.659-4.174,8.704-8.417,14.088-8.417c1.788,0,3.629,0.467,5.508,1.379c0.172,0.097,0.346,0.187,0.522,0.27
	c3.25,1.716,6.602,4.755,9.964,9.025C115.448,158.476,104.443,158,95.785,157.986z M122.885,136.801
	c-16.665-10.201-47.232-6.866-71.702,7.968c-3.779,2.29-4.986,7.21-2.695,10.989c1.504,2.482,4.144,3.855,6.85,3.854
	c1.412,0,2.843-0.374,4.139-1.16c7.746-4.694,15.628-7.743,23-9.507c-0.227,0.276-0.454,0.549-0.682,0.834
	c-12.246,15.356-22.223,41.505-27.376,71.744c-5.375,31.547-4.976,63.635,1.123,90.354c1.704,7.465,6.888,30.179,22.801,30.178
	c0.001,0,0.003,0,0.004,0c1.171,0,2.313-0.136,3.421-0.386c-2.958,6.842-7.237,12.276-13.212,12.276
	c-2.714,0-5.909-0.959-9.493-2.851c-9.67-5.104-27.858-35.844-37.418-86.158c-0.015-0.116-0.021-0.231-0.042-0.348
	c-5.987-34.901-0.661-64.6,15.401-85.888c2.661-3.527,1.959-8.544-1.568-11.206c-3.525-2.661-8.544-1.96-11.206,1.568
	c-2.422,3.21-4.868,6.895-7.195,11.077c2.219-26.324,8.332-55.085,21.491-82.964c6.332-13.415,14.017-24.842,22.834-34.166
	c22.611-19.327,36.678-11.224,45.317-3.378c3.27,2.972,8.33,2.728,11.301-0.542c2.971-3.27,2.728-8.331-0.542-11.301
	c-3.991-3.626-9.486-7.605-16.278-10.113c8.602-2.674,17.694-4.049,27.193-4.049c52.063,0,103.161,41.609,103.261,84.046
	c-0.062,1.355-1.542,24.913-28.251,41.392c-12.274,7.574-26.976,9.164-37.148,9.164c0,0-0.001,0-0.002,0
	c-2.316,0-4.519-0.08-6.566-0.208c0.063-25.467-7.458-64.706-22.863-93.999c-2.058-3.91-6.895-5.414-10.806-3.356
	c-3.91,2.057-5.414,6.895-3.356,10.806c11.772,22.383,18.873,52.602,20.611,75.64C136.863,147.255,130.064,140.47,122.885,136.801z
	 M297.492,456.915c-0.581,0.72-1.032,1.542-1.337,2.427c-7.628,12.751-21.063,19.029-40.515,19.029s-32.886-6.278-40.515-19.029
	c-0.305-0.885-0.757-1.707-1.338-2.427c-3.497-6.853-5.516-15.36-6.069-25.564c12.475,4.598,28.541,6.934,47.922,6.934
	s35.447-2.335,47.922-6.934C303.009,441.555,300.99,450.063,297.492,456.915z M239.641,374.831c1.617-0.442,4.93-0.666,9.885-0.666
	c0.943,0,1.909,0.005,2.895,0.01c2.106,0.012,4.331,0.012,6.439,0c0.985-0.005,1.951-0.01,2.895-0.01c1.969,0,7.476,0,9.885,0.664
	c-0.585,5.246-8.048,15.406-16,15.406C247.69,390.234,240.229,380.077,239.641,374.831z M263.641,422.143v-17.171
	c14.147-4.5,24.037-20.09,24.037-30.774c0-6.882-3.839-12.126-10.534-14.387c-4.499-1.52-10.07-1.646-15.391-1.646
	c-0.97,0-1.964,0.005-2.978,0.01c-2.053,0.011-4.22,0.011-6.272,0c-1.013-0.005-2.007-0.01-2.978-0.01
	c-5.32,0-10.891,0.127-15.39,1.647c-6.695,2.261-10.534,7.506-10.534,14.387c0,10.684,9.889,26.274,24.037,30.774v17.171
	c-37.241-1.341-56.11-12.35-56.11-32.777c0-25.545,28.005-55.24,64.11-55.24s64.11,29.695,64.11,55.24
	C319.751,409.792,300.882,420.801,263.641,422.143z M359.905,380.996c-4.079,25.124-9.913,42.057-18.357,53.291
	c-6.305,8.388-14.417,13.963-24.979,17.097c2.088-7.712,3.158-16.401,3.158-26.031c0-0.85-0.135-1.667-0.38-2.435
	c10.763-8.215,16.406-19.64,16.406-33.554c0-17.377-8.645-35.265-23.716-49.076c-15.599-14.293-35.628-22.166-56.396-22.166
	s-40.797,7.872-56.396,22.166c-15.073,13.811-23.716,31.698-23.716,49.076c0,13.914,5.643,25.339,16.406,33.554
	c-0.246,0.768-0.38,1.585-0.38,2.435c0,9.63,1.07,18.319,3.158,26.031c-10.562-3.133-18.675-8.709-24.979-17.097
	c-8.444-11.234-14.277-28.169-18.357-53.292c-0.472-3.271-15.933-110.917-15.933-151.021c0-16.493,3.918-32.731,11.35-47.304
	c4.415,0.72,11.303,1.561,19.421,1.561c0.001,0,0.001,0,0.002,0c17.807,0,33.132-3.885,45.551-11.547
	c34.679-21.398,35.816-53.347,35.848-54.697c0.001-0.062,0.002-0.124,0.002-0.186c0-0.004,0-0.008,0-0.012h16.768
	c0,0.004,0,0.008,0,0.012c0,0.062,0,0.124,0.002,0.186c0.032,1.35,1.167,33.299,35.848,54.697
	c12.418,7.663,27.744,11.547,45.552,11.547c7.721,0,14.33-0.761,18.758-1.455c7.397,14.546,11.295,30.745,11.295,47.198
	C375.838,270.074,360.374,377.738,359.905,380.996z M391.361,219.403c-1.269-14.399-5.116-28.453-11.351-41.441
	c12.673-3.607,30.753-4.146,42.614-3.883C418.649,203.046,401.716,214.833,391.361,219.403z M386.131,160.244
	c3.362-4.269,6.714-7.309,9.962-9.024c0.177-0.083,0.352-0.174,0.525-0.271c1.877-0.912,3.719-1.379,5.507-1.379
	c5.385,0,10.429,4.242,14.088,8.416C407.556,158,396.552,158.476,386.131,160.244z M474.993,178.704
	c16.062,21.287,21.387,50.986,15.401,85.888c-0.02,0.117-0.027,0.232-0.042,0.348c-9.56,50.314-27.748,81.054-37.418,86.158
	c-3.583,1.891-6.778,2.85-9.493,2.851c-5.977,0-10.253-5.434-13.212-12.276c1.11,0.25,2.251,0.385,3.424,0.385
	c15.915,0,21.099-22.714,22.803-30.178c6.1-26.719,6.498-58.807,1.123-90.354c-5.151-30.239-15.129-56.389-27.376-71.744
	c-0.228-0.285-0.455-0.559-0.682-0.835c7.373,1.764,15.256,4.812,23.001,9.507c1.296,0.786,2.726,1.16,4.139,1.16
	c2.705,0,5.346-1.372,6.85-3.854c2.29-3.778,1.084-8.699-2.695-10.989c-24.471-14.833-55.039-18.169-71.702-7.968
	c-7.179,3.668-13.978,10.454-20.349,20.31c1.738-23.038,8.839-53.256,20.611-75.64c2.057-3.911,0.554-8.749-3.356-10.806
	c-3.911-2.058-8.749-0.553-10.806,3.356c-15.406,29.293-22.926,68.533-22.863,93.999c-2.047,0.129-4.25,0.208-6.566,0.208
	c-10.172,0-24.874-1.589-37.15-9.164c-26.632-16.433-28.177-39.828-28.25-41.398c0.106-42.434,51.202-84.041,103.261-84.041
	c9.5,0,18.591,1.375,27.193,4.049c-6.792,2.507-12.286,6.487-16.278,10.113c-3.271,2.971-3.514,8.031-0.542,11.301
	c2.97,3.271,8.031,3.514,11.301,0.542c8.639-7.847,22.706-15.949,45.316,3.377c8.817,9.324,16.503,20.751,22.834,34.166
	c13.159,27.879,19.272,56.641,21.491,82.964c-2.326-4.182-4.772-7.867-7.195-11.077c-2.662-3.527-7.679-4.228-11.206-1.568
	C473.034,170.16,472.332,175.177,474.993,178.704z"/>
<g>
</g>
<g>
</g>
<g>
</g>
<g>
</g>
<g>
</g>
<g>
</g>
<g>
</g>
<g>
</g>
<g>
</g>
<g>
</g>
<g>
</g>
<g>
</g>
<g>
</g>
<g>
</g>
<g>
</g>
</svg>
