<?xml version="1.0" encoding="iso-8859-1"?>
<!-- Generator: Adobe Illustrator 19.0.0, SVG Export Plug-In . SVG Version: 6.00 Build 0)  -->
<svg version="1.1" id="Layer_1" xmlns="http://www.w3.org/2000/svg" xmlns:xlink="http://www.w3.org/1999/xlink" x="0px" y="0px"
	 viewBox="0 0 512 512" style="enable-background:new 0 0 512 512;" xml:space="preserve">
<path style="fill:#FFEBD2;" d="M422.188,59.025l0.438-0.429c-4.861,0.216-9.307,1.011-13.375,2.253
	c-3.234,0.786-6.334,1.826-9.251,3.151c-49.5,22.5-87-8-144-8s-94.5,30.5-144,8c-2.917-1.326-6.017-2.365-9.251-3.151
	c-4.068-1.242-8.514-2.037-13.375-2.253l0.438,0.429C53.098,57.057,8,78.641,8,88c0,13,13.333,40,40,40c31.5,0,72,0.763,72,24
	c0,40,8,76.026,8,112.692c0,71,15,104.308,72,151.308l0.383-2.461C203.589,437.438,227.259,456,256,456s52.411-18.562,55.617-42.461
	L312,416c57-47,72-80.308,72-151.308c0-36.666,8-72.692,8-112.692c0-23.237,40.5-24,72-24c26.667,0,40-27,40-40
	C504,78.641,458.902,57.057,422.188,59.025z"/>
<g>
	<path style="fill:#EBB4A0;" d="M64.904,59.356C33.27,64.178,3.535,81.464,5.252,92.726C7.21,105.578,31.638,132.018,58,128
		c31.14-4.747,53.681,4.416,64,19.027L142.07,106c0,0-13.512-37.519-22.07-39.363C99.333,62.183,92.868,55.094,64.904,59.356z"/>
	<path style="fill:#EBB4A0;" d="M445.276,59.356c31.635,4.822,61.369,22.107,59.653,33.37
		c-1.959,12.852-26.386,39.292-52.749,35.274c-31.14-4.747-53.681,4.416-64,19.027L368.11,106c0,0,13.512-37.519,22.07-39.363
		C410.848,62.183,417.313,55.094,445.276,59.356z"/>
</g>
<path style="fill:#FFFFFF;" d="M300.258,235.741C297.836,213.139,278.763,196,256.031,196H256h-0.031
	c-22.731,0-41.805,17.139-44.227,39.741L194.31,398.436C193.076,409.954,202.103,420,213.688,420h13.092
	c8.694,0,17.268-2.024,25.044-5.912L256,412l4.176,2.088c7.776,3.888,16.35,5.912,25.044,5.912h13.092
	c11.585,0,20.612-10.046,19.377-21.564L300.258,235.741z"/>
<path d="M160,184c-8.822,0-16,7.178-16,16s7.178,16,16,16s16-7.178,16-16S168.822,184,160,184z"/>
<path d="M352,184c-8.822,0-16,7.178-16,16s7.178,16,16,16s16-7.178,16-16S360.822,184,352,184z"/>
<path d="M499.19,71.508c-14.441-9.299-45.678-21.151-74.295-20.575c-0.829-0.245-1.71-0.367-2.624-0.329
	c-5.337,0.237-10.442,1.104-15.284,2.576c-3.569,0.889-7.021,2.048-10.297,3.538c-27.887,12.676-51.903,6.958-79.709,0.337
	C299.155,52.811,278.952,48,256,48s-43.155,4.811-60.98,9.055c-27.807,6.621-51.821,12.339-79.709-0.338
	c-3.277-1.49-6.729-2.648-10.299-3.538c-4.841-1.472-9.945-2.338-15.282-2.575c-0.92-0.043-1.808,0.08-2.644,0.329
	c-28.612-0.57-59.838,11.279-74.275,20.575C4.07,77.136,0,82.376,0,88c0,16.751,16.485,48,48,48c16.199,0,33.101,0.239,46.093,3.099
	C112,143.041,112,149.55,112,152c0,20.864,2.123,40.589,4.176,59.665c1.966,18.268,3.824,35.523,3.824,53.028
	c0,73.779,16.6,109.125,73.833,156.584C200.666,445.766,225.938,464,256,464s55.334-18.234,62.167-42.723
	C375.4,373.818,392,338.472,392,264.693c0-17.505,1.857-34.76,3.824-53.028C397.877,192.589,400,172.864,400,152
	c0-2.45,0-8.959,17.907-12.901C430.899,136.239,447.801,136,464,136c31.515,0,48-31.249,48-48
	C512,82.376,507.93,77.136,499.19,71.508z M256,448c-21.883,0-40.378-12.271-46.134-28.985c0.539,0.311,1.079,0.62,1.63,0.908
	c7.424,3.878,14.718,5.093,20.946,5.093c3.459,0,6.591-0.375,9.231-0.877c4.163-0.792,9.772-2.491,14.328-5.173
	c4.555,2.683,10.165,4.382,14.328,5.173c2.64,0.502,5.771,0.877,9.231,0.877c6.228,0,13.522-1.215,20.946-5.093
	c0.551-0.288,1.09-0.598,1.63-0.908C296.378,435.729,277.883,448,256,448z M464,120c-17.079,0-34.972,0.268-49.532,3.473
	C389.286,129.016,384,142.045,384,152c0,20.006-2.077,39.296-4.084,57.953c-2.014,18.707-3.916,36.376-3.916,54.74
	c0,61.464-11.715,92.95-52.32,130.548c1.35-2.605,2.604-5.373,3.762-8.304c1.622-4.11-0.395-8.756-4.504-10.379
	c-4.112-1.623-8.757,0.395-10.379,4.504c-6.209,15.732-15.262,24.928-26.907,27.333c-9.711,2.005-18.324-1.337-21.652-3.329v-17.011
	c7.264-5.393,23.178-17.408,28.823-21.673c3.525-2.664,4.224-7.68,1.56-11.206c-2.663-3.525-7.681-4.224-11.206-1.56
	c-8.314,6.282-20.545,15.5-27.132,20.417L228.8,353.6c-3.534-2.652-8.549-1.936-11.2,1.6c-2.651,3.534-1.935,8.549,1.6,11.2L248,388
	v17.073c-3.339,1.992-11.957,5.325-21.652,3.323c-11.645-2.405-20.697-11.601-26.907-27.333c-1.622-4.109-6.267-6.126-10.379-4.504
	c-4.109,1.623-6.126,6.269-4.504,10.379c1.157,2.931,2.412,5.698,3.762,8.304C147.715,357.643,136,326.157,136,264.693
	c0-18.364-1.902-36.034-3.916-54.74C130.077,191.296,128,172.006,128,152c0-9.955-5.286-22.984-30.468-28.527
	C82.972,120.268,65.079,120,48,120c-20.284,0-31.13-20.704-31.95-30.816c3.01-3.585,16.474-11.688,36.201-17.297
	c18.436-5.242,35.525-6.348,48.408-3.294c28.209,8.835,35.167,43.258,35.481,44.898c0.727,3.835,4.082,6.511,7.851,6.511
	c0.488,0,0.984-0.045,1.481-0.138c4.343-0.813,7.204-4.993,6.391-9.336c-0.109-0.584-2.778-14.464-11.481-28.661
	c-0.45-0.734-0.911-1.452-1.376-2.162c20.562,2.229,39.767-2.335,59.72-7.085C216.523,68.382,234.927,64,256,64
	s39.477,4.382,57.274,8.62c19.954,4.751,39.157,9.314,59.72,7.085c-0.466,0.71-0.926,1.427-1.376,2.162
	c-8.703,14.196-11.372,28.077-11.481,28.661c-0.813,4.343,2.048,8.523,6.391,9.336c0.498,0.093,0.993,0.138,1.481,0.138
	c3.775,0,7.134-2.684,7.854-6.529c0.075-0.403,7.114-36.106,35.825-44.961c12.842-2.952,29.791-1.819,48.061,3.375
	c19.727,5.609,33.19,13.712,36.201,17.297C495.13,99.296,484.284,120,464,120z"/>
<g>
</g>
<g>
</g>
<g>
</g>
<g>
</g>
<g>
</g>
<g>
</g>
<g>
</g>
<g>
</g>
<g>
</g>
<g>
</g>
<g>
</g>
<g>
</g>
<g>
</g>
<g>
</g>
<g>
</g>
</svg>
