<?xml version="1.0" encoding="iso-8859-1"?>
<!-- Generator: Adobe Illustrator 19.0.0, SVG Export Plug-In . SVG Version: 6.00 Build 0)  -->
<svg version="1.1" id="Layer_1" xmlns="http://www.w3.org/2000/svg" xmlns:xlink="http://www.w3.org/1999/xlink" x="0px" y="0px"
	 viewBox="0 0 512 512" style="enable-background:new 0 0 512 512;" xml:space="preserve">
<path style="fill:#AC8A67;" d="M423.922,215.772l0.416,0.646c28.558-10.52,72.145-63.028,72.145-128.357
	c0-56.013-32.064-80.061-88.177-80.061c-16.955,0-33.038,4.991-46.78,13.773l-0.015-0.316c-0.306,0.302-0.602,0.61-0.897,0.919
	c-15.028,9.865-27.179,24.294-34.468,41.719c-16.038,35.088-47.101,32.082-70.146,32.082c0.21,0.087,0.41,0.163,0.619,0.25
	c-0.28-0.006-0.563-0.004-0.843-0.008c0.075-0.082,0.149-0.16,0.224-0.242c-23.046,0-54.108,3.006-70.146-32.082
	c-7.288-17.425-19.44-31.854-34.468-41.719c-0.296-0.309-0.592-0.618-0.898-0.92l-0.014,0.316
	c-13.743-8.781-29.826-13.772-46.781-13.772c-56.112,0-88.177,24.048-88.177,80.061c0,65.306,44.906,119.366,73.464,129.912
	l0.003,0.172c-26.283,38.893-49.419,82.596-49.419,137.931c0,92.025,60.225,126.526,144.286,137.008l-0.885-5.2
	c30.886,25.55,56.224,16.468,67.183,1.475c2.906,0.132,5.833,0.207,8.783,0.207c1.019,0,2.034-0.013,3.048-0.029
	c11.029,14.885,36.286,23.794,67.046-1.648l-0.884,5.195c84.063-10.48,144.291-44.981,144.291-137.008
	c0-55.975-23.672-100.049-50.329-139.281C422.714,216.463,423.321,216.122,423.922,215.772z"/>
<g>
	<path style="fill:#C39B6E;" d="M344.994,41.997c-24.299,42.087-40.337,142.833-5.903,162.714
		c16.289,9.403,55.599,22.775,83.013,12.085c30.54-11.908,49.075-49.627,61.88-71.806c24.299-42.087,11.436-105.11-22.998-124.991
		C426.551,0.118,369.293-0.09,344.994,41.997z"/>
	<path style="fill:#C39B6E;" d="M165.292,41.997c24.298,42.087,40.337,142.833,5.902,162.714
		c-16.288,9.403-55.599,22.775-83.013,12.085c-30.539-11.909-49.075-49.628-61.879-71.806C2.002,102.903,14.864,39.88,49.3,19.999
		C83.734,0.118,140.993-0.09,165.292,41.997z"/>
	<path style="fill:#C39B6E;" d="M305.942,369.728c-12.491-1.891-24.413-0.146-34.904,4.32c-9.597,4.085-20.48,4.085-30.077,0
		c-10.49-4.465-22.412-6.21-34.904-4.32c-28.067,4.248-50.411,27.526-53.622,55.73c-4.406,38.704,30.75,78.506,68.567,78.506
		c15.145,0,24.038-12.288,34.998-21.082c10.959,8.793,19.853,21.082,34.998,21.082c37.816,0,71.401-39.802,66.995-78.505
		C354.783,397.254,334.009,373.976,305.942,369.728z"/>
</g>
<ellipse style="fill:#EBB4A0;" cx="255.982" cy="441.969" rx="31.998" ry="23.998"/>
<path d="M504.482,88.061c0-29.685-8.683-52.255-25.809-67.083C462.596,7.059,438.922,0,408.306,0
	c-17.674,0-34.566,4.96-49.201,13.833c-1.169,0.368-2.274,1.004-3.208,1.924c-0.092,0.091-0.176,0.19-0.267,0.282
	c-15.91,10.594-28.855,25.968-36.758,44.726c0,0.001-0.001,0.002-0.001,0.003c-12.73,27.85-35.608,27.639-57.724,27.439
	c-1.752-0.016-3.471-0.031-5.148-0.031c-1.677,0-3.396,0.016-5.148,0.031c-22.111,0.198-44.994,0.411-57.724-27.439
	c0-0.001-0.001-0.002-0.001-0.003c-7.903-18.758-20.849-34.132-36.758-44.726c-0.091-0.091-0.175-0.191-0.267-0.282
	c-0.934-0.919-2.038-1.556-3.207-1.924C138.261,4.96,121.368,0,103.694,0c-30.616,0-54.29,7.059-70.367,20.978
	C16.201,35.805,7.518,58.376,7.518,88.061c0,64.042,39.27,116.029,70.196,132.595c-24.852,37.981-46.148,81.301-46.148,135.421
	c0,45.619,14.628,81.016,43.479,105.212c24.779,20.781,60.046,33.778,107.816,39.734c0.336,0.042,0.669,0.062,1,0.062
	c0.95,0,1.868-0.173,2.725-0.486C199.695,509.281,211.271,512,220.62,512c6.525,0,11.969-1.324,16.093-2.865
	c7.753-2.899,14.461-8.04,19.288-14.302c4.827,6.262,11.533,11.403,19.288,14.302c4.125,1.542,9.566,2.865,16.093,2.865
	c9.349,0,20.923-2.72,34.03-11.399c0.856,0.312,1.773,0.485,2.723,0.485c0.33,0,0.664-0.021,1-0.063
	c47.772-5.957,83.04-18.954,107.82-39.733c28.852-24.195,43.481-59.594,43.481-105.213c0-54.12-21.296-97.44-46.148-135.421
	C465.212,204.09,504.482,152.103,504.482,88.061z M256.001,456.917c-13.044,0-24.064-7.349-24.064-16.049
	s11.02-16.049,24.064-16.049c13.044,0,24.064,7.349,24.064,16.049S269.045,456.917,256.001,456.917z M346.607,482.188
	c1.195-1.288,2.397-2.615,3.608-4.009c2.898-3.335,2.544-8.387-0.791-11.285c-3.334-2.898-8.386-2.544-11.285,0.792
	c-19.953,22.958-40.819,32.605-57.249,26.463c-10.97-4.102-16.89-13.992-16.89-21.216v-0.66
	c18.271-2.974,32.064-15.924,32.064-31.405c0-17.672-17.973-32.048-40.063-32.048s-40.063,14.376-40.063,32.048
	c0,15.48,13.793,28.431,32.064,31.405v0.66c0,7.224-5.92,17.115-16.89,21.216c-16.43,6.142-37.297-3.504-57.249-26.463
	c-2.898-3.335-7.95-3.689-11.285-0.792c-3.335,2.898-3.689,7.95-0.791,11.285c1.211,1.394,2.412,2.72,3.607,4.008
	c-81.288-14.736-117.828-54.191-117.828-126.11c0-67.457,35.156-116.219,69.153-163.373c3.776-5.238,7.412-10.292,10.963-15.312
	c0.17,1.581,0.214,3.216,0.097,4.902c-0.308,4.408,3.016,8.229,7.422,8.537c0.19,0.013,0.378,0.02,0.565,0.02
	c4.165,0,7.676-3.226,7.971-7.442c1.76-25.219-18.995-44.218-30.151-46.911c-4.293-1.035-8.602,1.603-9.642,5.894
	c-1.041,4.29,1.6,8.613,5.889,9.659c1.856,0.452,6.277,3.417,10.275,8.252c-5.206,7.55-10.633,15.09-16.368,23.045
	c-5.617,7.79-11.356,15.759-17.026,23.955c-24.458-12.046-63.198-58.371-63.198-119.242c0-49.165,25.476-72.063,80.177-72.063
	c15.257,0,29.833,4.452,42.347,12.403c17.579,19.115,13.007,57.085-1.425,89.608c-3.504-4.554-7.493-8.719-12.033-12.169
	c-3.519-2.673-8.536-1.989-11.209,1.529c-2.674,3.518-1.989,8.535,1.528,11.208c6.305,4.792,11.363,11.604,15.378,18.907
	c0.169,0.373,0.36,0.735,0.585,1.08c9.601,18.029,12.967,38.561,13.038,39.005c0.616,3.948,4.02,6.769,7.894,6.769
	c0.409,0,0.823-0.031,1.239-0.096c4.366-0.679,7.353-4.769,6.675-9.133c-0.199-1.278-3.433-21.301-13.126-40.879
	c9.662-18.762,16.269-39.883,18.262-58.58c0.708-6.646,0.835-12.95,0.413-18.89c1.944,3.317,3.695,6.792,5.214,10.423
	c0.017,0.041,0.04,0.079,0.058,0.12c0.017,0.039,0.029,0.079,0.047,0.118c7.581,16.587,18.84,27.247,34.418,32.589
	c10.889,3.734,22.076,4.232,32.371,4.232c1.911,0,3.791-0.017,5.632-0.034c1.703-0.016,3.373-0.03,5.002-0.03
	c1.629,0,3.299,0.015,5.002,0.03c1.842,0.017,3.721,0.034,5.632,0.034c10.293,0,21.483-0.498,32.371-4.232
	c15.579-5.342,26.836-16.002,34.418-32.589c0.018-0.039,0.03-0.079,0.047-0.118c0.018-0.041,0.041-0.079,0.058-0.12
	c1.519-3.632,3.27-7.107,5.214-10.423c-0.422,5.94-0.295,12.244,0.413,18.89c1.994,18.697,8.599,39.818,18.262,58.58
	c-9.693,19.579-12.927,39.601-13.126,40.879c-0.679,4.366,2.31,8.454,6.675,9.133c0.417,0.065,0.831,0.096,1.239,0.096
	c3.875,0,7.28-2.822,7.894-6.771c0.046-0.293,3.35-20.809,12.952-38.883c0.311-0.457,0.575-0.941,0.784-1.448
	c3.994-7.2,9.015-13.909,15.265-18.659c3.518-2.673,4.202-7.691,1.528-11.208c-2.673-3.518-7.691-4.203-11.209-1.529
	c-4.54,3.451-8.529,7.616-12.033,12.169c-14.432-32.522-19.004-70.493-1.425-89.608c12.515-7.951,27.091-12.403,42.348-12.403
	c54.701,0,80.177,22.898,80.177,72.062c0,60.871-38.739,107.195-63.198,119.242c-5.67-8.196-11.409-16.165-17.026-23.955
	c-5.735-7.955-11.163-15.496-16.368-23.045c3.999-4.836,8.418-7.8,10.275-8.252c4.295-1.037,6.937-5.359,5.9-9.653
	c-1.037-4.295-5.358-6.936-9.653-5.9c-11.156,2.693-31.912,21.691-30.151,46.911c0.294,4.218,3.808,7.442,7.971,7.442
	c0.187,0,0.376-0.007,0.565-0.02c4.407-0.308,7.73-4.13,7.422-8.537c-0.118-1.686-0.074-3.321,0.097-4.902
	c3.552,5.02,7.187,10.074,10.963,15.312c33.998,47.155,69.153,95.915,69.153,163.374
	C464.435,427.996,427.894,467.451,346.607,482.188z"/>
<path d="M159.807,256.515c-11.808,0-16.016,16.555-16.016,32.048s4.208,32.048,16.016,32.048c11.808,0,16.016-16.555,16.016-32.048
	S171.615,256.515,159.807,256.515z M159.807,290.026c-0.011-0.479-0.017-0.967-0.017-1.463s0.006-0.984,0.017-1.463
	c0.01,0.479,0.017,0.967,0.017,1.463S159.817,289.547,159.807,290.026z"/>
<path d="M352.193,256.515c-11.808,0-16.016,16.555-16.016,32.048s4.208,32.048,16.016,32.048s16.016-16.555,16.016-32.048
	S364.001,256.515,352.193,256.515z M352.193,290.026c-0.011-0.479-0.017-0.967-0.017-1.463s0.006-0.984,0.017-1.463
	c0.011,0.479,0.017,0.967,0.017,1.463S352.204,289.547,352.193,290.026z"/>
<g>
</g>
<g>
</g>
<g>
</g>
<g>
</g>
<g>
</g>
<g>
</g>
<g>
</g>
<g>
</g>
<g>
</g>
<g>
</g>
<g>
</g>
<g>
</g>
<g>
</g>
<g>
</g>
<g>
</g>
</svg>
