<?xml version="1.0" encoding="utf-8"?>
<!-- Generator: Adobe Illustrator 19.0.0, SVG Export Plug-In . SVG Version: 6.00 Build 0)  -->
<svg version="1.1" id="Layer_1" xmlns="http://www.w3.org/2000/svg" xmlns:xlink="http://www.w3.org/1999/xlink" x="0px" y="0px"
	 viewBox="0 0 900 500" style="enable-background:new 0 0 900 500;" xml:space="preserve">
<style type="text/css">
	.st0{fill-rule:evenodd;clip-rule:evenodd;fill:#C8E3DA;}
	.st1{fill-rule:evenodd;clip-rule:evenodd;fill:#D8E8E0;}
	.st2{fill-rule:evenodd;clip-rule:evenodd;fill:#EAF2EE;}
	.st3{fill-rule:evenodd;clip-rule:evenodd;fill:#B0C25C;}
	.st4{fill-rule:evenodd;clip-rule:evenodd;fill:#439780;}
	.st5{fill-rule:evenodd;clip-rule:evenodd;fill:#719C90;}
	.st6{fill-rule:evenodd;clip-rule:evenodd;fill:#7BA89B;}
	.st7{fill-rule:evenodd;clip-rule:evenodd;fill:#FFFFFF;}
	.st8{fill-rule:evenodd;clip-rule:evenodd;fill:#FECB8C;}
	.st9{fill-rule:evenodd;clip-rule:evenodd;fill:#8FD0D9;}
	.st10{fill-rule:evenodd;clip-rule:evenodd;fill:#D6CCC0;}
	.st11{fill-rule:evenodd;clip-rule:evenodd;fill:#EBDECE;}
	.st12{fill-rule:evenodd;clip-rule:evenodd;fill:#FDA671;}
	.st13{fill-rule:evenodd;clip-rule:evenodd;fill:#1A1A1A;}
	.st14{fill-rule:evenodd;clip-rule:evenodd;fill:#E6E6E6;}
	.st15{fill-rule:evenodd;clip-rule:evenodd;fill:#B9DAEF;}
	.st16{fill-rule:evenodd;clip-rule:evenodd;fill:#D8EDF9;}
	.st17{fill:#FECB8C;}
	.st18{fill:#FDA671;}
	.st19{fill-rule:evenodd;clip-rule:evenodd;fill:#874343;}
	.st20{fill-rule:evenodd;clip-rule:evenodd;fill:#6B3030;}
	.st21{fill-rule:evenodd;clip-rule:evenodd;fill:#333333;}
	.st22{fill-rule:evenodd;clip-rule:evenodd;fill:#808080;}
	.st23{fill-rule:evenodd;clip-rule:evenodd;fill:#4E4B63;}
	.st24{fill-rule:evenodd;clip-rule:evenodd;fill:#F7ECDE;}
	.st25{fill-rule:evenodd;clip-rule:evenodd;fill:#FF6745;}
	.st26{fill-rule:evenodd;clip-rule:evenodd;fill:#FFA333;}
	.st27{fill-rule:evenodd;clip-rule:evenodd;fill:#C4973D;}
	.st28{fill-rule:evenodd;clip-rule:evenodd;fill:#9C6E11;}
	.st29{fill-rule:evenodd;clip-rule:evenodd;fill:#543F35;}
	.st30{fill-rule:evenodd;clip-rule:evenodd;}
	.st31{fill-rule:evenodd;clip-rule:evenodd;fill:#E0502F;}
	.st32{fill-rule:evenodd;clip-rule:evenodd;fill:#4A312B;}
	.st33{fill-rule:evenodd;clip-rule:evenodd;fill:#2B221E;}
	.st34{fill-rule:evenodd;clip-rule:evenodd;fill:#42342E;}
	.st35{fill:#FAC04B;}
	.st36{fill-rule:evenodd;clip-rule:evenodd;fill:#FAC04B;}
	.st37{fill-rule:evenodd;clip-rule:evenodd;fill:#4D4D4D;}
	.st38{fill-rule:evenodd;clip-rule:evenodd;fill:#472F20;}
	.st39{fill-rule:evenodd;clip-rule:evenodd;fill:#69452F;}
	.st40{fill-rule:evenodd;clip-rule:evenodd;fill:#FF9182;}
	.st41{fill-rule:evenodd;clip-rule:evenodd;fill:#2ABDA9;}
	.st42{fill-rule:evenodd;clip-rule:evenodd;fill:#FFF9E8;}
	.st43{fill-rule:evenodd;clip-rule:evenodd;fill:#7D5E4F;}
	.st44{fill-rule:evenodd;clip-rule:evenodd;fill:#52507D;}
	.st45{fill-rule:evenodd;clip-rule:evenodd;fill:#454570;}
	.st46{fill-rule:evenodd;clip-rule:evenodd;fill:#4A3731;}
	.st47{fill-rule:evenodd;clip-rule:evenodd;fill:#634A41;}
	.st48{fill-rule:evenodd;clip-rule:evenodd;fill:#CCCCCC;}
	.st49{fill-rule:evenodd;clip-rule:evenodd;fill:#F5F5F5;}
	.st50{fill-rule:evenodd;clip-rule:evenodd;fill:#E05A43;}
	.st51{fill-rule:evenodd;clip-rule:evenodd;fill:#A18974;}
	.st52{fill-rule:evenodd;clip-rule:evenodd;fill:#61564C;}
	.st53{fill-rule:evenodd;clip-rule:evenodd;fill:#63413A;}
</style>
<g>
	<g>
		<rect class="st0" width="900" height="500"/>
		<polygon class="st1" points="691.1,298.4 694.2,189.3 583.5,146.6 515.4,209.4 400.3,167.5 314.5,220.7 309.8,298.4 		"/>
		<polygon class="st2" points="0,298.4 0,100.5 54.7,157.1 101.8,146.6 232.7,240.8 285.1,188.5 385.3,298.4 		"/>
		<polygon class="st2" points="900,298.4 900,162.6 840,183.2 730.1,141.4 683,204.2 573,230.4 502.2,298.4 		"/>
	</g>
	<rect y="298.4" class="st3" width="900" height="201.6"/>
	<g>
		<rect y="298.4" class="st4" width="900" height="90.7"/>
		<polygon class="st5" points="691.1,298.4 694.2,339.5 583.5,355.6 515.4,331.9 400.3,347.7 314.5,327.7 309.8,298.4 		"/>
		<polygon class="st6" points="0,298.4 0,372.9 54.7,351.6 101.8,355.6 232.7,320.1 285.1,339.8 385.3,298.4 		"/>
		<polygon class="st6" points="900,298.4 900,349.6 840,341.8 730.1,357.6 683,333.9 573,324 502.2,298.4 		"/>
	</g>
	<g>
		<path class="st7" d="M224.5,100.2c-5.8,0-10.5,4.7-10.5,10.5c-4.2,0-7.5,3.3-7.5,7.5c0,4.2,3.3,7.5,7.5,7.5h24.7
			c5.4,0,9.7-4.3,9.7-9.7c0-5.4-4.3-9.7-9.7-9.7c-1.6,0-3,0.4-4.3,1C233,103.1,229.1,100.2,224.5,100.2L224.5,100.2z"/>
		<path class="st7" d="M147.7,43.5c-8.1,0-14.7,5.7-16.3,13.3c-2.4-3.2-6.3-5.3-10.7-5.3c-5.8,0-10.8,3.7-12.5,8.9
			c-1.7-0.8-3.5-1.3-5.5-1.3c-6.8,0-12.3,5.5-12.3,12.3c0,6.8,5.5,12.4,12.3,12.4h28.4h3h36.1c8.5,0,15.4-6.9,15.4-15.4
			c0-8.5-6.9-15.4-15.4-15.4c-2.5,0-4.8,0.6-6.9,1.6C161.1,48.1,154.9,43.5,147.7,43.5L147.7,43.5z"/>
		<path class="st7" d="M767.5,43.5c8.1,0,14.7,5.7,16.2,13.3c2.4-3.2,6.3-5.3,10.7-5.3c5.8,0,10.8,3.7,12.5,8.9
			c1.6-0.8,3.5-1.3,5.5-1.3c6.8,0,12.4,5.5,12.4,12.3c0,6.8-5.5,12.4-12.4,12.4h-28.4h-3h-21.4H745h-8.9h-8.4h-16.3
			c-4.2,0-7.5-3.3-7.5-7.5c0-4.1,3.3-7.5,7.5-7.5c0-5.8,4.7-10.5,10.5-10.5c3.6,0,6.8,1.8,8.7,4.6c2.2-5.8,7.8-10,14.4-10
			c2.5,0,4.8,0.6,6.9,1.6C754.1,48.1,760.3,43.5,767.5,43.5L767.5,43.5z"/>
		<path class="st7" d="M646.8,112.8c3.6,0,6.6,2.6,7.3,6c1.1-1.4,2.8-2.4,4.8-2.4c2.6,0,4.8,1.6,5.6,4c0.7-0.4,1.6-0.6,2.5-0.6
			c3.1,0,5.5,2.5,5.5,5.5c0,3.1-2.5,5.5-5.5,5.5h-12.7h-1.3h-16.2c-3.8,0-6.9-3.1-6.9-6.9c0-3.8,3.1-6.9,6.9-6.9
			c1.1,0,2.2,0.3,3.1,0.7C640.8,114.9,643.6,112.8,646.8,112.8L646.8,112.8z"/>
	</g>
</g>
<g>
	<g>
		<path class="st8" d="M207.7,265.2L207.7,265.2l4.5-2l0.8-0.4l4.5-2c0.6-0.3,0.9-1,0.6-1.6l0,0c-0.3-0.6-1-0.9-1.6-0.6l-4.5,2
			l-0.8,0.4l-4.5,2c-0.1,0.1-0.3,0-0.4-0.1l0,0c-0.1-0.1,0-0.3,0.1-0.4l0,0l3.7-1.6l0.8-0.4l3.7-1.6c0.6-0.3,0.9-1,0.6-1.6l0,0
			c-0.3-0.6-1-0.9-1.6-0.6l-3.7,1.6l-0.8,0.4l-3.7,1.6c-0.1,0.1-0.3,0-0.4-0.1l0,0c-0.1-0.1,0-0.3,0.1-0.4l0,0l4.5-2
			c0.6-0.3,0.9-1,0.6-1.6l0,0c-0.3-0.6-1-0.9-1.6-0.6l-4.5,2c-3.9,1.7-5.6,2.5-7.7,4.7l4.1,9.2l0.2,0.5c1.4-0.6,4.4,0.9,6.3,0.2
			c0,0,0,0,0,0l0.6-0.3l3.9-1.7c1.4-0.6,0.2-3-3.2-1.5l-1.8,0.8l-0.6,0.3l-0.1,0.1c-0.1,0.1-0.3,0-0.4-0.1h0c-0.1-0.1,0-0.3,0.2-0.4
			l3.1-1.4l3.7-1.6l0.8-0.4l3.7-1.6c0.6-0.3,0.9-1,0.6-1.6l0,0c-0.3-0.6-1-0.9-1.6-0.6l-3.7,1.6l-0.8,0.4l-3.7,1.6
			c-0.1,0.1-0.3,0-0.4-0.1l0,0C207.5,265.5,207.5,265.3,207.7,265.2L207.7,265.2z"/>
		<path class="st9" d="M196.7,262.3c-11.8,5.2-21.6,20.7-29.7,22.7c-15.1,3.8-21.5-20.4-39.6-22.5c-2.5,0-5,0-7.4,0
			c-2.5,0-5,0-7.4,0c-26.9,3.1-31.1,32.1-37.9,74c2.7,1.2,6.7,1.7,10.5,1.9c5-20,8.3-39,15.2-49.6c0.7,14.8,8.6,27.1,5.9,37.2
			c4.6,0,9.2,0,13.7,0c4.6,0,9.2,0,13.7,0c-2.7-10.1,5.3-22.4,5.9-37.2c7.5,7.7,21.8,12.5,32.4,7.9c10.7-4.6,19.5-17,28.9-24.7
			C201.1,269,198.8,263.8,196.7,262.3z"/>
		<path class="st10" d="M120,210.2c7.2,0,13.1-5.9,13.1-13.1c0-7.2-5.9-13.1-13.1-13.1c-7.2,0-13.1,5.9-13.1,13.1
			C106.9,204.4,112.8,210.2,120,210.2L120,210.2z"/>
		<path class="st11" d="M120,184.1c7.2,0,13.1,5.9,13.1,13.1c0,7.2-5.9,13.1-13.1,13.1V184.1z"/>
		<path class="st10" d="M120,197.1c42.6,0,30,58,0,58S77.4,197.1,120,197.1L120,197.1z"/>
		<path class="st11" d="M120,197.1c42.6,0,30,58,0,58V197.1z"/>
		<rect x="112.5" y="247.5" class="st12" width="7.4" height="15.1"/>
		<rect x="120" y="247.5" class="st8" width="7.4" height="15.1"/>
		<path class="st12" d="M120,270c4.1,0,7.4-3.3,7.4-7.4c0-4.1-3.4-7.4-7.4-7.4c-4.1,0-7.4,3.3-7.4,7.4
			C112.5,266.7,115.9,270,120,270L120,270z"/>
		<path class="st8" d="M120,255.1c4.1,0,7.4,3.3,7.4,7.4c0,4.1-3.3,7.4-7.4,7.4V255.1z"/>
		<path class="st12" d="M120,208.3c31.1,0,21.9,46.9,0,46.9C98.1,255.1,88.9,208.3,120,208.3L120,208.3z"/>
		<path class="st8" d="M120,208.3c31.1,0,21.9,46.9,0,46.9v-17.5l-4.8-1.6l4.8-6.2V208.3z"/>
		<path class="st11" d="M120,208c11,0,17,5.7,19.4,13.2l-19.4-7.4V208z"/>
		<path class="st7" d="M127.4,243.4c-1,2.7-3.9,4.7-7.5,4.7c-3.5,0-6.5-2-7.5-4.7H127.4z"/>
		<path class="st10" d="M120.2,207.7c6.7,0,11.7,2.1,15.1,5.3L99,226.9C99.9,216.7,106.2,207.7,120.2,207.7L120.2,207.7z"/>
		<path class="st11" d="M120.2,207.7c6.7,0,11.7,2.1,15.1,5.3l-15.2,5.8v-11.2C120,207.7,120.1,207.7,120.2,207.7L120.2,207.7z"/>
		<path class="st13" d="M133.6,228.4l-1.8-0.9c-0.3-0.3-0.7-0.6-1.1-0.6c-0.8,0-1.5,0.7-1.5,1.5c0,0.8,0.7,1.5,1.5,1.5
			c0.5,0,0.9-0.2,1.1-0.6L133.6,228.4z"/>
		<path class="st13" d="M109.2,226.9c-0.5,0-0.9,0.2-1.1,0.6l-1.8,0.9l1.8,0.9c0.3,0.3,0.7,0.6,1.1,0.6c0.8,0,1.5-0.7,1.5-1.5
			C110.7,227.6,110,226.9,109.2,226.9z"/>
		<path class="st7" d="M102.9,448.8h8.7v9.9H88.2C88.2,455.4,93,448.8,102.9,448.8L102.9,448.8z"/>
		<path class="st8" d="M102.9,448.8h8.7c0,2.8-6.7,5.2-15,5.2c-2.1,0-4.1-0.1-5.9-0.4C93.1,451,97.2,448.8,102.9,448.8L102.9,448.8z
			"/>
		<rect x="88.2" y="458.7" class="st14" width="23.4" height="2.9"/>
		<path class="st15" d="M133.7,326.1c-4.6,0-9.2,0-13.7,0c-4.6,0-9.2,0-13.7,0C90,344.3,103,384.4,103,448.8c3.5,0,5.2,0,8.7,0
			c3.3-47-0.9-102.4,8.3-102.4c9.2,0,5,55.3,8.3,102.4c3.5,0,5.2,0,8.7,0C137,384.4,149.9,344.3,133.7,326.1z"/>
		<polygon class="st16" points="112.2,448.8 102.1,448.8 101.9,443.7 113,444.2 		"/>
		<polygon class="st16" points="127.7,448.8 137.9,448.8 138.1,443.7 127,444.2 		"/>
		<path class="st7" d="M137,448.8h-8.7v9.9h23.4C151.7,455.4,147,448.8,137,448.8L137,448.8z"/>
		<path class="st8" d="M137,448.8h-8.7c0,2.8,6.7,5.2,15,5.2c2.1,0,4.1-0.1,5.9-0.4C146.8,451,142.8,448.8,137,448.8L137,448.8z"/>
		<rect x="128.3" y="458.7" class="st14" width="23.4" height="2.9"/>
		<path class="st8" d="M80,346.6L80,346.6l-0.9,4.8l-0.2,0.9l-0.9,4.8c-0.1,0.6-0.7,1.1-1.4,1l0,0c-0.6-0.1-1.1-0.7-1-1.4l0.9-4.8
			l0.2-0.9l0.9-4.8c0-0.2-0.1-0.3-0.2-0.3l0,0c-0.2,0-0.3,0.1-0.3,0.2v0l-0.7,4l-0.2,0.9l-0.7,4c-0.1,0.6-0.7,1.1-1.4,1l0,0
			c-0.6-0.1-1.1-0.7-1-1.4l0.7-4l0.2-0.9l0.7-4c0-0.2-0.1-0.3-0.2-0.3l0,0c-0.1,0-0.3,0.1-0.3,0.2v0l-0.9,4.9
			c-0.1,0.6-0.7,1.1-1.4,1l0,0c-0.6-0.1-1.1-0.7-1-1.4l0.9-4.9c0.8-4.3,1.1-6,2.8-8.5l9.9,1.8l0.6,0.1c-0.3,1.5,1.9,4.1,1.6,6
			c0,0,0,0,0,0l-0.1,0.6l-0.8,4.2c-0.3,1.5-2.9,0.9-2.2-2.8l0.3-1.9l0.1-0.6l0-0.2c0-0.2-0.1-0.3-0.2-0.3l0,0
			c-0.2,0-0.3,0.1-0.3,0.2l-0.6,3.3l-0.7,4l-0.2,0.9l-0.7,3.9c-0.1,0.6-0.7,1.1-1.4,1l0,0c-0.6-0.1-1.1-0.7-1-1.4l0.7-4l0.2-0.9
			l0.7-4c0-0.2-0.1-0.3-0.2-0.3l0,0C80.2,346.4,80.1,346.5,80,346.6L80,346.6z"/>
		<polygon class="st14" points="112.5,259.6 120,270 112.8,277.6 106.7,262.9 		"/>
		<polygon class="st7" points="127.4,259.6 120,270 127.2,277.6 133.3,262.9 		"/>
		<path class="st17" d="M113.7,237.9c0.2-0.2,0.5-0.2,0.7,0c0.2,0.2,0.2,0.5,0,0.7l-4.4,5c-0.2,0.2-0.5,0.2-0.7,0.1
			c-0.2-0.2-0.2-0.5-0.1-0.7L113.7,237.9z"/>
		<path class="st18" d="M125.5,238.6c-0.2-0.2-0.2-0.5,0.1-0.7c0.2-0.2,0.5-0.2,0.7,0l4.4,5c0.2,0.2,0.2,0.5-0.1,0.7
			c-0.2,0.2-0.5,0.2-0.7-0.1L125.5,238.6z"/>
	</g>
	<g>
		<path class="st10" d="M638.5,192.3c39.4,0,27.7,53,0,53C610.8,245.3,599.2,192.3,638.5,192.3L638.5,192.3z"/>
		<path class="st11" d="M638.5,192.3c39.4,0,27.7,53,0,53V192.3z"/>
		<rect x="631.1" y="247.5" class="st12" width="7.4" height="15.1"/>
		<rect x="638.5" y="247.5" class="st8" width="7.4" height="15.1"/>
		<path class="st12" d="M638.5,270c4.1,0,7.4-3.3,7.4-7.4c0-4.1-3.3-7.4-7.4-7.4c-4.1,0-7.4,3.3-7.4,7.4
			C631.1,266.7,634.4,270,638.5,270L638.5,270z"/>
		<path class="st8" d="M638.5,255.1c4.1,0,7.4,3.3,7.4,7.4c0,4.1-3.3,7.4-7.4,7.4V255.1z"/>
		<path class="st12" d="M638.5,208.3c31.1,0,21.9,46.9,0,46.9C616.6,255.1,607.4,208.3,638.5,208.3L638.5,208.3z"/>
		<path class="st8" d="M638.5,208.3c31.1,0,21.9,46.9,0,46.9v-17.5l-4.8-1.6l4.8-6.2V208.3z"/>
		<path class="st11" d="M638.5,208c11,0,17.1,5.7,19.4,13.2l-19.4-7.4V208z"/>
		<path class="st13" d="M627.8,226.9c0.8,0,1.5,0.6,1.5,1.5c0,0.8-0.6,1.5-1.5,1.5c-0.5,0-0.9-0.2-1.2-0.6l-1.7-0.9l1.7-0.9
			C626.9,227.1,627.3,226.9,627.8,226.9L627.8,226.9z"/>
		<path class="st7" d="M646,243.4c-0.9,2.7-3.9,4.7-7.5,4.7c-3.5,0-6.5-2-7.5-4.7H646z"/>
		<path class="st10" d="M638.7,207.7c6.7,0,11.6,2.1,15.1,5.3l-36.2,13.9C618.4,216.7,624.7,207.7,638.7,207.7L638.7,207.7z"/>
		<path class="st11" d="M638.7,207.7c6.7,0,11.6,2.1,15.1,5.3l-15.2,5.8v-11.2C638.6,207.7,638.6,207.7,638.7,207.7L638.7,207.7z"/>
		<path class="st13" d="M650.4,227.5l1.7,0.9l-1.7,0.9c-0.3,0.4-0.7,0.6-1.2,0.6c-0.8,0-1.5-0.7-1.5-1.5c0-0.8,0.6-1.5,1.5-1.5
			C649.7,226.9,650.2,227.1,650.4,227.5L650.4,227.5z"/>
		<path class="st19" d="M668.3,317.1l11.6-4.4c-5.4-28.8-12.5-47.7-33.9-50.1c-2.5,0-5,0-7.4,0c-2.5,0-5,0-7.4,0
			c-18.9,0-20.6,24.6-35.9,32.7c-11.6,6.1-19.7,5.1-35.1,1.2c-0.6,2.7-1,6-1,10.6c20.2,7,26,6.6,35.3,4c12.5-3.4,20.4-16,24.4-22.1
			c0.7,14.8,8.6,27.1,5.9,37.2c-16.2,18.2-3.2,51.6-3.2,116v6.6h8.7v-6.6c3.3-47-0.9-95.7,8.3-95.7c9.2,0,5,48.7,8.3,95.7v6.6h8.7
			v-6.6c0-64.4,13-97.8-3.2-116c-2.7-10.1,5.2-22.4,5.9-37.2C662.5,295.6,665.5,305.6,668.3,317.1z"/>
		<path class="st20" d="M651.7,320.5h-13.2h-13.2c0.1,1.9,0,3.8-0.5,5.6h13.7h13.7C651.8,324.3,651.6,322.4,651.7,320.5z"/>
		<path class="st21" d="M621.5,448.8h8.7v9.9h-23.5C606.8,455.4,611.5,448.8,621.5,448.8L621.5,448.8z"/>
		<path class="st8" d="M621.5,448.8h8.7c0,2.8-6.7,5.2-15,5.2c-2.1,0-4.1-0.1-5.9-0.4C611.7,451,615.7,448.8,621.5,448.8
			L621.5,448.8z"/>
		<rect x="606.8" y="458.7" class="st21" width="23.5" height="2.9"/>
		<path class="st21" d="M655.6,448.8h-8.7v9.9h23.5C670.3,455.4,665.5,448.8,655.6,448.8L655.6,448.8z"/>
		<path class="st8" d="M655.6,448.8h-8.7c0,2.8,6.7,5.2,15,5.2c2.1,0,4.1-0.1,5.9-0.4C665.4,451,661.3,448.8,655.6,448.8
			L655.6,448.8z"/>
		<rect x="646.8" y="458.7" class="st21" width="23.5" height="2.9"/>
		<path class="st8" d="M550.9,299.1L550.9,299.1l-4.9-0.5l-0.9-0.1l-4.9-0.5c-0.7-0.1-1.2,0.4-1.3,1.1l0,0c-0.1,0.7,0.4,1.2,1.1,1.3
			l4.9,0.5l0.9,0.1l4.9,0.5c0.2,0,0.3,0.2,0.3,0.3l0,0c0,0.2-0.2,0.3-0.3,0.3h0l-4-0.4l-0.9-0.1l-4-0.4c-0.7-0.1-1.2,0.4-1.3,1.1
			l0,0c-0.1,0.7,0.4,1.2,1.1,1.3l4,0.4l0.9,0.1l4,0.4c0.2,0,0.3,0.2,0.3,0.3l0,0c0,0.2-0.1,0.3-0.3,0.3h0l-4.9-0.5
			c-0.6-0.1-1.2,0.4-1.3,1.1l0,0c-0.1,0.6,0.4,1.2,1.1,1.3l4.9,0.5c4.3,0.4,6.1,0.6,9-0.4l0.9-10.1l0.1-0.6c-1.5-0.1-3.4-3-5.4-3.2
			c0,0,0,0,0,0l-0.7-0.1l-4.3-0.4c-1.6-0.1-1.6,2.5,2.1,2.9l1.9,0.2l0.7,0.1l0.2,0c0.2,0,0.3,0.1,0.3,0.3l0,0c0,0.2-0.2,0.3-0.3,0.3
			l-3.4-0.3l-4-0.4l-0.9-0.1l-4-0.4c-0.6-0.1-1.2,0.4-1.3,1.1l0,0c-0.1,0.6,0.4,1.2,1.1,1.3l4,0.4l0.9,0.1l4,0.4
			c0.2,0,0.3,0.2,0.3,0.3l0,0C551.2,299,551.1,299.1,550.9,299.1L550.9,299.1z"/>
		<path class="st17" d="M632,238c0.2-0.2,0.5-0.2,0.7,0c0.2,0.2,0.2,0.5,0,0.7l-4.4,5c-0.2,0.2-0.5,0.2-0.7,0.1
			c-0.2-0.2-0.2-0.5-0.1-0.7L632,238z"/>
		<path class="st18" d="M643.8,238.7c-0.2-0.2-0.2-0.5,0.1-0.7c0.2-0.2,0.5-0.2,0.7,0l4.4,5c0.2,0.2,0.2,0.5-0.1,0.7
			c-0.2,0.2-0.5,0.2-0.7-0.1L643.8,238.7z"/>
		<path class="st10" d="M713.1,243.2c-19.1,0-21.1-6.5-21.1-11.3c0-9.2-1.5-25,21.1-24.8c22.6-0.2,21.1,15.6,21.1,24.8
			C734.2,236.7,732.2,243.2,713.1,243.2L713.1,243.2z"/>
		<path class="st11" d="M713.1,207.2c22.6-0.2,21.1,15.6,21.1,24.8c0,4.8-2,11.3-21.1,11.3V207.2z"/>
		<path class="st21" d="M723.2,261.2c-2.4-0.1-7.8-0.1-10.1-0.1c-2.2,0-7.7-0.1-10.1,0.1c-47.6,2.1-80.7,50.9-31.3,81.1
			c3.1-4.2,5.3-8.9,5.8-11.7c-21.4-17.9-15.2-36.4,3.3-45.5l3.5,65.5h28.8h28.8l3.5-65.5c18.5,9.1,24.7,27.7,3.3,45.5
			c0.6,2.8,2.7,7.4,5.8,11.7C803.9,312.1,770.8,263.3,723.2,261.2z"/>
		<path class="st8" d="M685.4,339.4L685.4,339.4l5.4,2.7l1,0.5l5.4,2.7c0.7,0.4,1,1.2,0.6,1.9l0,0c-0.4,0.7-1.2,1-2,0.7l-5.4-2.7
			l-1-0.5l-5.4-2.7c-0.2-0.1-0.4,0-0.5,0.2l0,0c-0.1,0.2,0,0.4,0.1,0.5l0,0l4.4,2.2l1,0.5l4.4,2.2c0.7,0.4,1,1.2,0.6,2l0,0
			c-0.4,0.7-1.2,1-2,0.7l-4.4-2.2l-1-0.5l-4.4-2.2c-0.2-0.1-0.4,0-0.5,0.2l0,0c-0.1,0.2,0,0.4,0.1,0.5h0l5.4,2.7
			c0.7,0.4,1,1.2,0.7,2l0,0c-0.4,0.7-1.2,1-2,0.7l-5.4-2.7c-4.7-2.4-6.6-3.3-9.1-6.2l5.5-11l0.3-0.6c1.7,0.8,5.4-0.9,7.6,0.2
			c0,0,0,0,0,0l0.7,0.4l4.7,2.3c1.7,0.9,0.1,3.7-4.1,1.6l-2.1-1.1l-0.7-0.4l-0.2-0.1c-0.2-0.1-0.4,0-0.5,0.2l0,0
			c-0.1,0.2,0,0.4,0.2,0.5l3.7,1.8l4.4,2.2l1,0.5l4.4,2.2c0.7,0.4,1,1.2,0.7,2l0,0c-0.4,0.7-1.2,1-2,0.6l-4.4-2.2l-1-0.5l-4.4-2.2
			c-0.2-0.1-0.4,0-0.5,0.2l0,0C685.1,339.1,685.2,339.3,685.4,339.4L685.4,339.4z"/>
		<path class="st7" d="M740.7,445.4H725v12.5h34.3C759.3,451.1,747.5,445.4,740.7,445.4L740.7,445.4z"/>
		<path class="st22" d="M754.2,450.2c-0.4-0.3-0.8-0.5-1.2-0.8l-2.9,3.8c-0.3,0.3-0.2,0.8,0.1,1l0,0c0.3,0.3,0.8,0.2,1-0.1
			L754.2,450.2z M750.8,448.2c-0.4-0.2-0.9-0.4-1.3-0.6l-3,3.9c-0.2,0.3-0.2,0.8,0.1,1l0,0c0.3,0.3,0.8,0.2,1-0.1L750.8,448.2z
			 M747,446.6c-0.5-0.2-1-0.3-1.5-0.4l-2.8,3.6c-0.2,0.3-0.2,0.8,0.1,1l0,0c0.3,0.3,0.8,0.2,1-0.1L747,446.6z"/>
		<path class="st23" d="M741.9,350.6c-9.6,0-19.2,0-28.8,0c-9.6,0-19.2,0-28.8,0c-1.8,34.8,0.2,66,3.3,94.9c8.2,0,5.4,0,13.6,0
			c0.3-20.9-2.7-75.3,11.9-75.3c14.6,0,11.6,54.4,11.9,75.3c8.2,0,5.4,0,13.6,0C741.6,416.5,743.6,385.3,741.9,350.6z"/>
		<path class="st7" d="M685.6,445.4h15.6v12.5h-34.3C666.9,451.1,678.7,445.4,685.6,445.4L685.6,445.4z"/>
		<path class="st22" d="M672,450.2c0.4-0.3,0.8-0.5,1.2-0.8l2.9,3.8c0.2,0.3,0.2,0.8-0.1,1l0,0c-0.3,0.3-0.8,0.2-1-0.1L672,450.2z
			 M675.4,448.2c0.4-0.2,0.9-0.4,1.3-0.6l3,3.9c0.3,0.3,0.2,0.8-0.1,1l0,0c-0.3,0.3-0.8,0.2-1-0.1L675.4,448.2z M679.2,446.6
			c0.5-0.2,1-0.3,1.5-0.4l2.8,3.6c0.2,0.3,0.2,0.8-0.1,1l0,0c-0.3,0.3-0.8,0.2-1-0.1L679.2,446.6z"/>
		<path class="st8" d="M695.5,228.4c1.8,0,3.3-1.5,3.3-3.3c0-1.8-1.5-3.3-3.3-3.3c-1.8,0-3.3,1.5-3.3,3.3
			C692.2,226.9,693.7,228.4,695.5,228.4L695.5,228.4z"/>
		<path class="st8" d="M730.6,228.4c1.8,0,3.3-1.5,3.3-3.3c0-1.8-1.5-3.3-3.3-3.3c-1.8,0-3.3,1.5-3.3,3.3
			C727.2,226.9,728.7,228.4,730.6,228.4L730.6,228.4z"/>
		<rect x="705.7" y="246.1" class="st12" width="7.4" height="15.1"/>
		<rect x="713.1" y="246.1" class="st8" width="7.4" height="15.1"/>
		<path class="st12" d="M713.1,251.1c-4.9,0-12.6-2.7-14.9-11.3c-2.5-9.3-4.3-36.7,14.9-36.4c19.2-0.3,17.4,27.2,14.9,36.4
			C725.7,248.4,718,251.1,713.1,251.1L713.1,251.1z"/>
		<path class="st11" d="M713.1,251.1c-2.4,0-5.5-0.7-8.3-2.4c1.8-2.1,4.9-3.5,8.3-3.5c3.5,0,6.5,1.4,8.3,3.5
			C718.6,250.4,715.5,251.1,713.1,251.1L713.1,251.1z"/>
		<path class="st8" d="M713.1,203.4c19.2-0.3,17.4,27.2,14.9,36.4c-2.3,8.6-10,11.3-14.9,11.3v-16.7l-5.8-1.5l5.8-7.7V203.4z"/>
		<path class="st24" d="M721.4,248.7c-2.8,1.7-5.9,2.4-8.3,2.4v-5.9C716.6,245.2,719.6,246.6,721.4,248.7L721.4,248.7z"/>
		<path class="st7" d="M720.6,239c-1,3.6-4,6.2-7.5,6.2c-3.6,0-6.6-2.6-7.5-6.2H720.6z"/>
		<path class="st13" d="M702.3,225.3c0.8,0,1.5-0.7,1.5-1.5c0-0.8-0.7-1.5-1.5-1.5c-0.8,0-1.5,0.7-1.5,1.5
			C700.8,224.7,701.5,225.3,702.3,225.3L702.3,225.3z"/>
		<path class="st13" d="M723.9,225.3c0.8,0,1.5-0.7,1.5-1.5c0-0.8-0.7-1.5-1.5-1.5c-0.8,0-1.5,0.7-1.5,1.5
			C722.5,224.7,723.1,225.3,723.9,225.3L723.9,225.3z"/>
		<path class="st21" d="M713.1,221.1h2.1c0.1-0.2,0.2-0.3,0.3-0.5c0.3-0.4,0.8-0.8,1.2-1c0.5-0.2,1-0.3,1.5-0.3h12.3
			c0.5,0,1,0.1,1.5,0.3c0.5,0.2,0.9,0.5,1.2,0.9c1.1,1.3,0.6,3,0.5,4.6l-0.2,1.1c-0.5,2.6-2.1,4.5-4.1,5.6c-1.4,0.8-3,1.2-4.7,1.2
			c-1.6,0-3.3-0.3-4.7-1c-2.1-1-3.8-2.8-4.4-5.5l-0.3-1.5h-2.1H711l-0.3,1.5c-0.6,2.6-2.3,4.4-4.4,5.5c-1.5,0.7-3.1,1-4.7,1
			c-1.6,0-3.3-0.4-4.7-1.2c-2-1.1-3.6-3-4.1-5.6l-0.2-1.1c-0.2-1.5-0.6-3.3,0.5-4.6c0.3-0.4,0.7-0.7,1.2-0.9c0.5-0.2,1-0.3,1.5-0.3
			h12.3c0.5,0,1.1,0.1,1.5,0.3c0.5,0.2,0.9,0.6,1.2,1c0.1,0.2,0.2,0.3,0.3,0.5H713.1z M695.6,220.9L695.6,220.9h12.3
			c0.3,0,0.6,0.1,0.8,0.2c0.3,0.1,0.5,0.3,0.7,0.5c0.2,0.3,0.3,0.5,0.4,0.8c0.1,0.3,0.1,0.6,0,0.9l-0.7,3c-0.5,2.1-1.8,3.6-3.5,4.4
			c-1.2,0.6-2.6,0.9-4,0.8c-1.4,0-2.8-0.4-3.9-1c-1.6-0.9-2.9-2.4-3.3-4.5c-0.2-1.3-1-3.3-0.1-4.4c0.2-0.2,0.4-0.4,0.7-0.5
			C695.1,220.9,695.3,220.9,695.6,220.9L695.6,220.9z M730.6,220.9L730.6,220.9h-12.3c-0.3,0-0.6,0.1-0.8,0.2
			c-0.2,0.1-0.5,0.3-0.7,0.5c-0.2,0.3-0.3,0.5-0.4,0.8c-0.1,0.3-0.1,0.6,0,0.9l0.7,3c0.5,2.1,1.9,3.6,3.5,4.4c1.2,0.6,2.6,0.9,4,0.8
			c1.4,0,2.8-0.4,3.9-1c1.6-0.9,2.9-2.4,3.3-4.5c0.2-1.3,1-3.3,0.1-4.4c-0.2-0.2-0.4-0.4-0.7-0.5
			C731.2,220.9,730.9,220.9,730.6,220.9L730.6,220.9z"/>
		<path class="st8" d="M740.9,339.4L740.9,339.4l-5.4,2.7l-1,0.5l-5.4,2.7c-0.7,0.4-1,1.2-0.7,1.9l0,0c0.4,0.7,1.2,1,2,0.7l5.4-2.7
			l1-0.5l5.4-2.7c0.2-0.1,0.4,0,0.5,0.2l0,0c0.1,0.2,0,0.4-0.2,0.5v0l-4.4,2.2l-1,0.5l-4.4,2.2c-0.7,0.4-1,1.2-0.7,2l0,0
			c0.4,0.7,1.2,1,2,0.7l4.4-2.2l1-0.5l4.4-2.2c0.2-0.1,0.4,0,0.5,0.2l0,0c0.1,0.2,0,0.4-0.1,0.5h0l-5.4,2.7c-0.7,0.4-1,1.2-0.6,2
			l0,0c0.4,0.7,1.2,1,2,0.7l5.4-2.7c4.7-2.4,6.6-3.3,9.1-6.2l-5.5-11l-0.3-0.6c-1.7,0.8-5.4-0.9-7.6,0.2c0,0,0,0,0,0l-0.7,0.4
			l-4.7,2.3c-1.7,0.9-0.1,3.7,4,1.6l2.1-1.1l0.7-0.4l0.2-0.1c0.2-0.1,0.4,0,0.5,0.2l0,0c0.1,0.2,0,0.4-0.2,0.5l-3.7,1.8l-4.4,2.2
			l-1,0.5l-4.4,2.2c-0.7,0.4-1,1.2-0.6,2l0,0c0.4,0.7,1.2,1,2,0.6l4.4-2.2l1-0.5l4.4-2.2c0.2-0.1,0.4,0,0.5,0.2l0,0
			C741.1,339.1,741,339.3,740.9,339.4L740.9,339.4z"/>
		<path class="st7" d="M710.5,293.2c0.7,0,1.2,0.5,1.2,1.2c0,0.7-0.5,1.2-1.2,1.2c-0.7,0-1.2-0.5-1.2-1.2
			C709.3,293.7,709.9,293.2,710.5,293.2L710.5,293.2z M710.5,339.1c0.7,0,1.2,0.5,1.2,1.2c0,0.7-0.5,1.2-1.2,1.2
			c-0.7,0-1.2-0.5-1.2-1.2C709.3,339.6,709.9,339.1,710.5,339.1L710.5,339.1z M710.5,327.6c0.7,0,1.2,0.5,1.2,1.2
			c0,0.7-0.5,1.2-1.2,1.2c-0.7,0-1.2-0.5-1.2-1.2C709.3,328.2,709.9,327.6,710.5,327.6L710.5,327.6z M710.5,316.1
			c0.7,0,1.2,0.5,1.2,1.2c0,0.7-0.5,1.2-1.2,1.2c-0.7,0-1.2-0.5-1.2-1.2C709.3,316.7,709.9,316.1,710.5,316.1L710.5,316.1z
			 M710.5,304.7c0.7,0,1.2,0.5,1.2,1.2c0,0.7-0.5,1.2-1.2,1.2c-0.7,0-1.2-0.5-1.2-1.2C709.3,305.2,709.9,304.7,710.5,304.7
			L710.5,304.7z"/>
		<polygon class="st12" points="713.1,261.1 705.7,261.1 713.1,287.4 		"/>
		<polygon class="st8" points="713.1,261.1 720.5,261.1 713.1,287.4 		"/>
		<polygon class="st7" points="713.1,269.6 708.1,269.6 713.1,287.4 718.2,269.6 		"/>
		<rect x="725" y="457.9" class="st14" width="34.3" height="3.6"/>
		<rect x="666.9" y="457.9" class="st14" width="34.3" height="3.6"/>
		<path class="st17" d="M707.1,234.3c0.2-0.2,0.5-0.2,0.7,0c0.2,0.2,0.2,0.5,0.1,0.7l-4.4,5c-0.2,0.2-0.5,0.2-0.7,0.1
			c-0.2-0.2-0.2-0.5-0.1-0.7L707.1,234.3z"/>
		<path class="st18" d="M718.9,235c-0.2-0.2-0.2-0.5,0.1-0.7c0.2-0.2,0.5-0.2,0.7,0l4.4,5c0.2,0.2,0.2,0.6-0.1,0.7
			c-0.2,0.2-0.5,0.2-0.7-0.1L718.9,235z"/>
		<path class="st19" d="M679.8,312.7c1.4,7.3,2.7,15.3,4,23.9c-2.7,1.2-6.7,1.7-10.5,1.9c-1.8-7.4-3.5-14.6-5.1-21.4L679.8,312.7z"
			/>
		<path class="st8" d="M678.5,346.6L678.5,346.6l0.9,4.8l0.2,0.9l0.9,4.8c0.1,0.6,0.7,1.1,1.4,1l0,0c0.6-0.1,1.1-0.7,1-1.4l-0.9-4.8
			l-0.2-0.9l-0.9-4.8c0-0.2,0.1-0.3,0.2-0.3l0,0c0.2,0,0.3,0.1,0.3,0.2l0,0l0.7,4l0.2,0.9l0.7,4c0.1,0.6,0.7,1.1,1.4,1l0,0
			c0.6-0.1,1.1-0.7,1-1.4l-0.7-4l-0.2-0.9l-0.7-4c0-0.2,0.1-0.3,0.2-0.3l0,0c0.2,0,0.3,0.1,0.3,0.2v0l0.9,4.9c0.1,0.6,0.7,1.1,1.4,1
			l0,0c0.6-0.1,1.1-0.7,1-1.4l-0.9-4.9c-0.8-4.3-1.1-6-2.8-8.5l-9.9,1.8l-0.6,0.1c0.3,1.5-1.9,4.1-1.6,6c0,0,0,0,0,0l0.1,0.6
			l0.8,4.2c0.3,1.5,2.9,0.9,2.2-2.8l-0.4-1.9l-0.1-0.6l0-0.2c0-0.2,0.1-0.3,0.2-0.3l0,0c0.2,0,0.3,0.1,0.3,0.2l0.6,3.3l0.7,4
			l0.2,0.9l0.7,3.9c0.1,0.6,0.8,1.1,1.4,1l0,0c0.6-0.1,1.1-0.7,1-1.4l-0.7-4l-0.2-0.9l-0.7-4c0-0.2,0.1-0.3,0.2-0.3l0,0
			C678.3,346.4,678.4,346.5,678.5,346.6L678.5,346.6z"/>
		<path class="st25" d="M646,256.5c-2.5,0-5,0.4-7.4,0.4c-2.5,0-5-0.4-7.4-0.4c-1.7,0.3-3.7,2.1-5.5,6.9c4.4,3.5,6.5,19.3,13,19.3
			c6.5,0,8.6-15.8,13-19.3C649.6,258.6,647.7,256.9,646,256.5z"/>
	</g>
	<g>
		<path class="st26" d="M463.4,262.6c-2.5,0-5,0-7.4,0c-2.5,0-5,0-7.4,0c-15,1.8-23.9,24.7-35,40.6c-2.7,3.9-6.4,7.2-10.3,10.1
			l5.3,8.6c8.9-6.4,19.8-16.2,27.7-33c0.7,14.8,8.6,27.1,5.9,37.2c4.6,0,9.2,0,13.7,0c4.6,0,9.2,0,13.7,0
			c-2.7-10.1,5.2-22.4,5.9-37.2c6.9,10.7,10.2,29.6,15.2,49.6c3.8-0.3,7.8-0.7,10.5-1.9C494.5,294.7,490.3,265.7,463.4,262.6z"/>
		<path class="st8" d="M365.1,261.1c2.2,0,7.7-0.1,10.1,0.1c47.6,2.1,80.7,50.9,31.3,81.1c-3.1-4.2-5.3-8.9-5.8-11.7
			c31.4-26.2,3.4-53.9-35.5-51.1C365.1,273.4,365.1,267.3,365.1,261.1L365.1,261.1z"/>
		<path class="st8" d="M365.1,261.1c-2.2,0-7.7-0.1-10.1,0.1c-47.6,2.1-80.7,50.9-31.3,81.1c3.1-4.2,5.3-8.9,5.8-11.7
			c-31.4-26.2-3.4-53.9,35.5-51.1C365.1,273.4,365.1,267.3,365.1,261.1L365.1,261.1z"/>
		<path class="st25" d="M375.2,261.2c-2.4-0.1-7.8-0.1-10.1-0.1c-2.2,0-7.7-0.1-10.1,0.1c-29.5,1.3-53.4,20.5-55.6,42.1l16.7,1.9
			l0,0c0.9-8.3,7.2-15.5,16.7-20.1l3.5,65.5h28.8h28.8l3.5-65.5c9.5,4.7,15.8,11.9,16.7,20.1l0,0l16.7-1.9
			C428.6,281.7,404.7,262.5,375.2,261.2z"/>
		<path class="st8" d="M337.4,339.4L337.4,339.4l5.4,2.7l1,0.5l5.4,2.7c0.7,0.4,1,1.2,0.6,1.9l0,0c-0.4,0.7-1.2,1-2,0.7l-5.4-2.7
			l-1-0.5l-5.4-2.7c-0.2-0.1-0.4,0-0.5,0.2l0,0c-0.1,0.2,0,0.4,0.1,0.5l0,0l4.4,2.2l1,0.5l4.4,2.2c0.7,0.4,1,1.2,0.6,2l0,0
			c-0.4,0.7-1.2,1-2,0.7l-4.4-2.2l-1-0.5l-4.4-2.2c-0.2-0.1-0.4,0-0.5,0.2l0,0c-0.1,0.2,0,0.4,0.1,0.5h0l5.4,2.7
			c0.7,0.4,1,1.2,0.7,2l0,0c-0.4,0.7-1.2,1-2,0.7l-5.4-2.7c-4.7-2.4-6.6-3.3-9.1-6.2l5.5-11l0.3-0.6c1.7,0.8,5.4-0.9,7.6,0.2
			c0,0,0,0,0,0l0.7,0.4l4.7,2.3c1.7,0.9,0.1,3.7-4.1,1.6l-2.1-1.1l-0.7-0.4l-0.2-0.1c-0.2-0.1-0.4,0-0.5,0.2l0,0
			c-0.1,0.2,0,0.4,0.2,0.5l3.7,1.8l4.4,2.2l1,0.5l4.4,2.2c0.7,0.4,1,1.2,0.7,2l0,0c-0.4,0.7-1.2,1-2,0.6l-4.4-2.2l-1-0.5l-4.4-2.2
			c-0.2-0.1-0.4,0-0.5,0.2l0,0C337.1,339.1,337.2,339.3,337.4,339.4L337.4,339.4z"/>
		<path class="st27" d="M392.7,445.4H377v12.5h34.3C411.3,451.1,399.5,445.4,392.7,445.4L392.7,445.4z"/>
		<path class="st28" d="M406.2,450.2c-0.4-0.3-0.8-0.5-1.2-0.8l-2.9,3.8c-0.2,0.3-0.2,0.8,0.1,1l0,0c0.3,0.3,0.8,0.2,1-0.1
			L406.2,450.2z M402.8,448.2c-0.4-0.2-0.9-0.4-1.3-0.6l-3,3.9c-0.2,0.3-0.2,0.8,0.1,1l0,0c0.3,0.3,0.8,0.2,1-0.1L402.8,448.2z
			 M399,446.6c-0.5-0.2-1-0.3-1.5-0.4l-2.8,3.6c-0.2,0.3-0.2,0.8,0.1,1l0,0c0.3,0.3,0.8,0.2,1-0.1L399,446.6z"/>
		<path class="st15" d="M393.9,350.6c-9.6,0-19.2,0-28.8,0c-9.6,0-19.2,0-28.8,0c-1.8,34.8,0.2,66,3.3,94.9c8.2,0,5.4,0,13.6,0
			c0.3-20.9-2.7-75.3,11.9-75.3s11.6,54.4,11.9,75.3c8.2,0,5.4,0,13.6,0C393.6,416.5,395.6,385.3,393.9,350.6z"/>
		<path class="st29" d="M393.9,350.6c-9.6,0-19.2,0-28.8,0c-9.6,0-19.2,0-28.8,0c-0.1,2.5-0.2,5-0.3,7.5h29.1h29.1
			C394.1,355.6,394,353.1,393.9,350.6z"/>
		<path class="st27" d="M337.6,445.4h15.6v12.5h-34.3C318.9,451.1,330.7,445.4,337.6,445.4L337.6,445.4z"/>
		<path class="st28" d="M324,450.2c0.4-0.3,0.8-0.5,1.2-0.8l2.9,3.8c0.2,0.3,0.2,0.8-0.1,1l0,0c-0.3,0.3-0.8,0.2-1-0.1L324,450.2z
			 M327.4,448.2c0.4-0.2,0.9-0.4,1.3-0.6l3,3.9c0.3,0.3,0.2,0.8-0.1,1l0,0c-0.3,0.3-0.8,0.2-1-0.1L327.4,448.2z M331.2,446.6
			c0.5-0.2,1-0.3,1.5-0.4l2.8,3.6c0.2,0.3,0.2,0.8-0.1,1l0,0c-0.3,0.3-0.8,0.2-1-0.1L331.2,446.6z"/>
		<path class="st12" d="M347.5,228.4c1.8,0,3.3-1.5,3.3-3.3c0-1.8-1.5-3.3-3.3-3.3c-1.8,0-3.3,1.5-3.3,3.3
			C344.2,226.9,345.7,228.4,347.5,228.4L347.5,228.4z"/>
		<path class="st8" d="M382.6,228.4c1.8,0,3.3-1.5,3.3-3.3c0-1.8-1.5-3.3-3.3-3.3c-1.8,0-3.3,1.5-3.3,3.3
			C379.2,226.9,380.7,228.4,382.6,228.4L382.6,228.4z"/>
		<path class="st12" d="M365.1,251.1c-4.9,0-12.6-2.7-14.9-11.3c-2.5-9.3-4.3-36.7,14.9-36.4c19.2-0.3,17.3,27.2,14.9,36.4
			C377.7,248.4,370,251.1,365.1,251.1L365.1,251.1z"/>
		<rect x="357.7" y="246.1" class="st12" width="7.4" height="15.1"/>
		<rect x="365.1" y="246.1" class="st8" width="7.4" height="15.1"/>
		<path class="st8" d="M365.1,203.4c19.2-0.3,17.3,27.2,14.9,36.4c-2.3,8.6-10,11.3-14.9,11.3v-16.7l-5.8-1.5l5.8-7.7V203.4z"/>
		<path class="st7" d="M372.6,239c-1,3.6-4,6.2-7.5,6.2c-3.6,0-6.6-2.6-7.5-6.2H372.6z"/>
		<path class="st30" d="M354.3,225.3c0.8,0,1.5-0.7,1.5-1.5c0-0.8-0.7-1.5-1.5-1.5c-0.8,0-1.5,0.7-1.5,1.5
			C352.8,224.7,353.5,225.3,354.3,225.3L354.3,225.3z"/>
		<path class="st30" d="M375.9,225.3c0.8,0,1.5-0.7,1.5-1.5c0-0.8-0.7-1.5-1.5-1.5c-0.8,0-1.5,0.7-1.5,1.5
			C374.5,224.7,375.1,225.3,375.9,225.3L375.9,225.3z"/>
		<path class="st12" d="M365.1,268.6c4.1,0,7.4-3.4,7.4-7.4c0-4.1-3.3-7.4-7.4-7.4c-4.1,0-7.4,3.3-7.4,7.4
			C357.7,265.2,361,268.6,365.1,268.6L365.1,268.6z"/>
		<path class="st8" d="M365.1,253.7c4.1,0,7.4,3.3,7.4,7.4c0,4.1-3.3,7.4-7.4,7.4V253.7z"/>
		<path class="st28" d="M318.9,457.9h34.3v3.6h-1.9c0-0.9-0.8-1.7-1.7-1.7c-0.9,0-1.7,0.8-1.7,1.7h-2c0-0.9-0.8-1.7-1.7-1.7
			c-1,0-1.7,0.8-1.7,1.7h-2c0-0.9-0.8-1.7-1.7-1.7c-1,0-1.7,0.8-1.7,1.7h-2c0-0.9-0.8-1.7-1.7-1.7c-0.9,0-1.7,0.8-1.7,1.7h-2
			c0-0.9-0.8-1.7-1.7-1.7c-1,0-1.7,0.8-1.7,1.7h-2c0-0.9-0.8-1.7-1.7-1.7c-0.9,0-1.7,0.8-1.7,1.7h-1.8V457.9z"/>
		<path class="st8" d="M392.9,339.4L392.9,339.4l-5.4,2.7l-1,0.5l-5.4,2.7c-0.7,0.4-1,1.2-0.7,1.9l0,0c0.4,0.7,1.2,1,2,0.7l5.4-2.7
			l1-0.5l5.4-2.7c0.2-0.1,0.4,0,0.5,0.2l0,0c0.1,0.2,0,0.4-0.2,0.5v0l-4.4,2.2l-1,0.5l-4.4,2.2c-0.7,0.4-1,1.2-0.7,2l0,0
			c0.4,0.7,1.2,1,2,0.7l4.4-2.2l1-0.5l4.4-2.2c0.2-0.1,0.4,0,0.5,0.2l0,0c0.1,0.2,0,0.4-0.1,0.5h0l-5.4,2.7c-0.7,0.4-1,1.2-0.6,2
			l0,0c0.4,0.7,1.2,1,2,0.7l5.4-2.7c4.7-2.4,6.6-3.3,9.1-6.2l-5.5-11l-0.3-0.6c-1.7,0.8-5.4-0.9-7.6,0.2c0,0,0,0,0,0l-0.7,0.4
			l-4.7,2.3c-1.7,0.9-0.1,3.7,4,1.6l2.1-1.1l0.7-0.4l0.2-0.1c0.2-0.1,0.4,0,0.5,0.2l0,0c0.1,0.2,0,0.4-0.2,0.5l-3.7,1.8l-4.4,2.2
			l-1,0.5l-4.4,2.2c-0.7,0.4-1,1.2-0.6,2l0,0c0.4,0.7,1.2,1,2,0.6l4.4-2.2l1-0.5l4.4-2.2c0.2-0.1,0.4,0,0.5,0.2l0,0
			C393.1,339.1,393,339.3,392.9,339.4L392.9,339.4z"/>
		<polygon class="st31" points="316.5,308.3 298.2,305.7 299.1,295.8 320.4,299.5 		"/>
		<polygon class="st31" points="413.7,308.3 432,305.7 431.1,295.8 409.9,299.5 		"/>
		<polygon class="st31" points="357.7,258.2 365.1,268.6 357.9,276.2 351.8,261.5 		"/>
		<polygon class="st31" points="372.5,258.2 365.1,268.6 372.3,276.2 378.4,261.5 		"/>
		<path class="st32" d="M362.5,287.2c0.7,0,1.2,0.5,1.2,1.2c0,0.7-0.5,1.2-1.2,1.2c-0.7,0-1.2-0.5-1.2-1.2
			C361.3,287.8,361.9,287.2,362.5,287.2L362.5,287.2z M362.5,275.8c0.7,0,1.2,0.5,1.2,1.2c0,0.7-0.5,1.2-1.2,1.2
			c-0.7,0-1.2-0.5-1.2-1.2C361.3,276.3,361.9,275.8,362.5,275.8L362.5,275.8z M362.5,333.1c0.7,0,1.2,0.5,1.2,1.2
			c0,0.7-0.5,1.2-1.2,1.2c-0.7,0-1.2-0.5-1.2-1.2C361.3,333.7,361.9,333.1,362.5,333.1L362.5,333.1z M362.5,321.7
			c0.7,0,1.2,0.5,1.2,1.2c0,0.7-0.5,1.2-1.2,1.2c-0.7,0-1.2-0.5-1.2-1.2C361.3,322.2,361.9,321.7,362.5,321.7L362.5,321.7z
			 M362.5,310.2c0.7,0,1.2,0.5,1.2,1.2c0,0.7-0.5,1.2-1.2,1.2c-0.7,0-1.2-0.5-1.2-1.2C361.3,310.7,361.9,310.2,362.5,310.2
			L362.5,310.2z M362.5,298.7c0.7,0,1.2,0.5,1.2,1.2c0,0.7-0.5,1.2-1.2,1.2c-0.7,0-1.2-0.5-1.2-1.2
			C361.3,299.2,361.9,298.7,362.5,298.7L362.5,298.7z"/>
		<path class="st28" d="M377,457.9h34.3v3.6h-1.9c0-0.9-0.8-1.7-1.7-1.7c-0.9,0-1.7,0.8-1.7,1.7h-2c0-0.9-0.8-1.7-1.7-1.7
			c-1,0-1.7,0.8-1.7,1.7h-2c0-0.9-0.8-1.7-1.7-1.7s-1.7,0.8-1.7,1.7h-2c0-0.9-0.8-1.7-1.7-1.7c-0.9,0-1.7,0.8-1.7,1.7h-2
			c0-0.9-0.8-1.7-1.7-1.7c-1,0-1.7,0.8-1.7,1.7h-2c0-0.9-0.8-1.7-1.7-1.7c-0.9,0-1.7,0.8-1.7,1.7H377V457.9z"/>
		<path class="st33" d="M365.1,198.9c11.9,0,22.2,3.4,16.3,24.2c-2.3-3.3-4.1-7.2-5-11.9c-3,0.8-7.3,1.2-11.3,1.2
			c-4,0-8.3-0.4-11.3-1.2c-0.9,4.7-2.7,8.5-5,11.9C342.9,202.4,353.3,198.9,365.1,198.9L365.1,198.9z"/>
		<path class="st34" d="M365.1,198.9c11.9,0,22.2,3.4,16.3,24.2c-2.3-3.3-4.1-7.2-5-11.9c-3,0.8-7.3,1.2-11.3,1.2V198.9z"/>
		<path class="st35" d="M363,350.2h3.8c0.6,0,1.2,0.3,1.5,0.7c0.4,0.4,0.6,0.9,0.6,1.5v3.8c0,0.6-0.2,1.2-0.6,1.5
			c-0.4,0.4-1,0.6-1.5,0.6H363c-0.6,0-1.2-0.3-1.5-0.6c-0.4-0.4-0.6-0.9-0.6-1.5v-3.8c0-0.6,0.2-1.2,0.6-1.5
			C361.9,350.5,362.4,350.2,363,350.2L363,350.2z M366.8,351.7H363c-0.2,0-0.4,0.1-0.5,0.2c-0.1,0.1-0.2,0.3-0.2,0.5v3.8
			c0,0.2,0.1,0.4,0.2,0.5c0.1,0.1,0.3,0.2,0.5,0.2h3.8c0.2,0,0.4-0.1,0.5-0.2c0.1-0.1,0.2-0.3,0.2-0.5v-3.8c0-0.2-0.1-0.4-0.2-0.5
			C367.2,351.8,367,351.7,366.8,351.7L366.8,351.7z"/>
		<path class="st36" d="M365.6,354.3L365.6,354.3c0-0.4,0.3-0.7,0.7-0.7h3.3c0.4,0,0.7,0.3,0.7,0.7l0,0c0,0.4-0.3,0.7-0.7,0.7h-3.3
			C366,355,365.6,354.7,365.6,354.3L365.6,354.3z"/>
		<path class="st33" d="M455.9,198c25.6,0,31.2,31.9,25,57.1H431C424.8,229.9,430.3,198,455.9,198L455.9,198z"/>
		<path class="st34" d="M455.9,198c25.6,0,31.2,31.9,25,57.1h-25V198z"/>
		<rect x="448.5" y="247.5" class="st12" width="7.4" height="15.1"/>
		<rect x="455.9" y="247.5" class="st8" width="7.4" height="15.1"/>
		<path class="st12" d="M455.9,208.3c31.1,0,21.9,46.9,0,46.9C434.1,255.1,424.8,208.3,455.9,208.3L455.9,208.3z"/>
		<path class="st8" d="M455.9,208.3c31.1,0,21.9,46.9,0,46.9v-17.5l-4.8-1.6l4.8-6.2V208.3z"/>
		<path class="st34" d="M455.9,208c11,0,17.1,5.7,19.4,13.2l-19.4-7.4V208z"/>
		<path class="st13" d="M445.2,226.9c0.8,0,1.5,0.6,1.5,1.5c0,0.8-0.6,1.5-1.5,1.5c-0.5,0-0.9-0.2-1.2-0.6l-1.8-0.9l1.8-0.9
			C444.3,227.1,444.7,226.9,445.2,226.9L445.2,226.9z"/>
		<path class="st7" d="M463.4,243.4c-0.9,2.7-3.9,4.7-7.5,4.7c-3.5,0-6.5-2-7.5-4.7H463.4z"/>
		<path class="st33" d="M456.1,207.7c6.7,0,11.7,2.1,15.1,5.3L435,226.9C435.9,216.7,442.1,207.7,456.1,207.7L456.1,207.7z"/>
		<path class="st34" d="M456.1,207.7c6.7,0,11.7,2.1,15.1,5.3l-15.2,5.8v-11.2C456,207.7,456.1,207.7,456.1,207.7L456.1,207.7z"/>
		<path class="st13" d="M467.9,227.5l1.8,0.9l-1.8,0.9c-0.3,0.4-0.7,0.6-1.2,0.6c-0.8,0-1.5-0.7-1.5-1.5c0-0.8,0.6-1.5,1.5-1.5
			C467.2,226.9,467.6,227.1,467.9,227.5L467.9,227.5z"/>
		<path class="st37" d="M455.9,326.1c-4.6,0-9.2,0-13.7,0c-16.2,18.2-3.2,58.3-3.2,122.7c3.5,0,5.2,0,8.7,0
			c3.3-47-0.9-102.4,8.3-102.4V326.1z"/>
		<path class="st21" d="M438.9,448.8h8.7v9.9h-23.5C424.2,455.4,429,448.8,438.9,448.8L438.9,448.8z"/>
		<path class="st37" d="M438.9,448.8h8.7c0,2.8-6.7,5.2-15,5.2c-2.1,0-4.1-0.1-5.9-0.4C429.1,451,433.1,448.8,438.9,448.8
			L438.9,448.8z"/>
		<rect x="424.2" y="458.7" class="st21" width="23.5" height="2.9"/>
		<path class="st21" d="M473,448.8h-8.7v9.9h23.5C487.7,455.4,482.9,448.8,473,448.8L473,448.8z"/>
		<path class="st37" d="M473,448.8L473,448.8c-0.1-64.4,12.9-104.5-3.3-122.7c-4.6,0-9.2,0-13.7,0v20.3c9.2,0,5,55.3,8.3,102.4
			c0,2.8,6.7,5.2,15,5.2c2.1,0,4.1-0.1,5.9-0.4C482.8,451,478.8,448.8,473,448.8z"/>
		<rect x="464.3" y="458.7" class="st21" width="23.5" height="2.9"/>
		<path class="st8" d="M495.9,346.6L495.9,346.6l0.9,4.8l0.2,0.9l0.9,4.8c0.1,0.6,0.8,1.1,1.4,1l0,0c0.6-0.1,1.1-0.7,1-1.4l-0.9-4.8
			l-0.2-0.9l-0.9-4.8c0-0.2,0.1-0.3,0.2-0.3l0,0c0.2,0,0.3,0.1,0.3,0.2v0l0.7,4l0.2,0.9l0.7,4c0.1,0.6,0.7,1.1,1.4,1l0,0
			c0.6-0.1,1.1-0.7,1-1.4l-0.7-4l-0.2-0.9l-0.7-4c0-0.2,0.1-0.3,0.2-0.3l0,0c0.2,0,0.3,0.1,0.3,0.2v0l0.9,4.9c0.1,0.6,0.7,1.1,1.4,1
			l0,0c0.6-0.1,1.1-0.7,1-1.4l-0.9-4.9c-0.8-4.3-1.1-6-2.8-8.5l-9.9,1.8l-0.6,0.1c0.3,1.5-1.9,4.1-1.6,6c0,0,0,0,0,0l0.1,0.6
			l0.8,4.2c0.3,1.5,2.9,0.9,2.2-2.8l-0.4-1.9l-0.1-0.6l0-0.2c0-0.2,0.1-0.3,0.2-0.3l0,0c0.2,0,0.3,0.1,0.3,0.2l0.6,3.3l0.7,4
			l0.2,0.9l0.7,3.9c0.1,0.6,0.7,1.1,1.4,1l0,0c0.6-0.1,1.1-0.7,1-1.4l-0.7-4l-0.2-0.9l-0.7-4c0-0.2,0.1-0.3,0.2-0.3l0,0
			C495.7,346.4,495.9,346.5,495.9,346.6L495.9,346.6z"/>
		<path class="st8" d="M388.3,341.1L388.3,341.1l-0.9,4.8l-0.2,0.9l-0.9,4.8c-0.1,0.6-0.7,1.1-1.4,1l0,0c-0.6-0.1-1.1-0.7-1-1.4
			l0.9-4.8l0.2-0.9l0.9-4.8c0-0.2-0.1-0.3-0.2-0.3l0,0c-0.2,0-0.3,0.1-0.3,0.2l0,0l-0.7,4l-0.2,0.9l-0.7,4c-0.1,0.6-0.7,1.1-1.4,1
			l0,0c-0.6-0.1-1.1-0.7-1-1.4l0.7-4l0.2-0.9l0.7-4c0-0.2-0.1-0.3-0.2-0.3l0,0c-0.2,0-0.3,0.1-0.3,0.2l0,0l-0.9,4.9
			c-0.1,0.6-0.7,1.1-1.4,1l0,0c-0.6-0.1-1.1-0.7-1-1.4l0.9-4.9c0.8-4.3,1.1-6,2.8-8.5l9.9,1.8l0.6,0.1c-0.3,1.5,1.9,4.1,1.6,6
			c0,0,0,0,0,0l-0.1,0.6l-0.8,4.2c-0.3,1.6-2.9,0.9-2.2-2.8l0.4-1.9l0.1-0.6l0-0.2c0-0.2-0.1-0.3-0.2-0.3l0,0
			c-0.2,0-0.3,0.1-0.3,0.2l-0.6,3.3l-0.7,4l-0.2,0.9l-0.7,4c-0.1,0.6-0.8,1.1-1.4,1l0,0c-0.6-0.1-1.1-0.7-1-1.4l0.7-4l0.2-0.9l0.7-4
			c0-0.2-0.1-0.3-0.2-0.3l0,0C388.5,340.8,388.3,340.9,388.3,341.1L388.3,341.1z"/>
		<path class="st21" d="M469.7,326.1c-4.6,0-9.2,0-13.7,0c-4.6,0-9.2,0-13.7,0c-7.1,4.1-13.5,24.5-25.3,34.7
			c6.2,10.8,26.8,12.2,39.1,12.2c12.3,0,32.8-1.4,39.1-12.2C483.2,350.6,476.8,330.2,469.7,326.1z"/>
		<polygon class="st12" points="455.9,284.7 448.5,262.6 455.9,262.6 		"/>
		<polygon class="st8" points="455.9,284.7 463.4,262.6 455.9,262.6 		"/>
		<path class="st21" d="M455.9,287.9c-0.5,0-0.8,0.4-0.8,0.8c0,0.5,0.4,0.8,0.8,0.8c0.5,0,0.8-0.4,0.8-0.8
			C456.8,288.3,456.4,287.9,455.9,287.9L455.9,287.9z M455.9,320.4c-0.5,0-0.8,0.4-0.8,0.8c0,0.5,0.4,0.8,0.8,0.8
			c0.5,0,0.8-0.4,0.8-0.8C456.8,320.8,456.4,320.4,455.9,320.4L455.9,320.4z M455.9,312.3c-0.5,0-0.8,0.4-0.8,0.8
			c0,0.5,0.4,0.8,0.8,0.8c0.5,0,0.8-0.4,0.8-0.8C456.8,312.6,456.4,312.3,455.9,312.3L455.9,312.3z M455.9,304.2
			c-0.5,0-0.8,0.4-0.8,0.8c0,0.5,0.4,0.8,0.8,0.8c0.5,0,0.8-0.4,0.8-0.8C456.8,304.5,456.4,304.2,455.9,304.2L455.9,304.2z
			 M455.9,296c-0.5,0-0.8,0.4-0.8,0.8c0,0.5,0.4,0.8,0.8,0.8c0.5,0,0.8-0.4,0.8-0.8C456.8,296.4,456.4,296,455.9,296L455.9,296z"/>
		<polygon class="st14" points="455.9,284.7 455.9,267.3 450.1,267.3 		"/>
		<polygon class="st7" points="455.9,284.7 455.9,267.3 461.8,267.3 		"/>
		<path class="st26" d="M403.3,313.2c-8.3,6.3-17.5,11.1-20.4,17.8c2.7,1.2,6.7,1.7,10.5,1.9c2-2.8,7.9-5.8,15.2-11.1L403.3,313.2z"
			/>
	</g>
	<g>
		<polygon class="st38" points="767.7,380.8 777.5,392.7 777.5,371.7 		"/>
		<path class="st38" d="M774.2,410.4L774.2,410.4c-2.1,0-3.8,1.7-3.8,3.8v43.5c0,2.1,1.7,3.8,3.8,3.8l0,0c2.1,0,3.8-1.7,3.8-3.8
			v-43.5C778.1,412.1,776.3,410.4,774.2,410.4L774.2,410.4z"/>
		<path class="st38" d="M812,427.2L812,427.2c-2.1,0-3.8,1.7-3.8,3.8v26.7c0,2.1,1.7,3.8,3.8,3.8l0,0c2.1,0,3.8-1.7,3.8-3.8V431
			C815.8,428.9,814.1,427.2,812,427.2L812,427.2z"/>
		<path class="st39" d="M774.9,400.2h49.6c2.5,0,4.5,2,4.5,4.5v27.1c0,2.5-2,4.5-4.5,4.5h-22.4l-31.7-18v-13.5
			C770.4,402.3,772.5,400.2,774.9,400.2L774.9,400.2z"/>
		<path class="st39" d="M820.3,400.2c2.9,1.7,5.8,3.4,8.8,5c0-8.4-0.5-19.1-6.1-22.4C824.5,391.2,823.4,397.4,820.3,400.2
			L820.3,400.2z M777.5,380.8L777.5,380.8h-19.7c-4.1,0-7.5,3.4-7.5,7.5v10.8c0,4.1,3.4,7.5,7.5,7.5h16.9c-2.6,3.1-4.2,7.2-4.2,11.6
			l0,0c0,8.3,5.6,15.3,13.2,17.4v22.1c0,2.1,1.7,3.8,3.8,3.8l0,0c2.1,0,3.8-1.7,3.8-3.8v-21.4H811c3.9,0,7.5-1.2,10.4-3.3v24.7
			c0,2.1,1.7,3.8,3.8,3.8l0,0c2.1,0,3.8-1.7,3.8-3.8V431c0-1.6-1-3-2.5-3.6c1.6-2.7,2.5-5.8,2.5-9.1l0,0c0-9.9-8.1-18-18-18h-22.6
			c-0.4,0-0.9,0-1.3,0.1c0.1-0.4,0.1-0.7,0.1-1.1v-6.5v-4.3v-16.6L777.5,380.8z"/>
		<path class="st38" d="M773,393c2.3,0,4.3-1.9,4.3-4.2c0-2.3-1.9-4.3-4.3-4.3c-2.3,0-4.2,1.9-4.2,4.3
			C768.8,391.1,770.7,393,773,393L773,393z"/>
		<path class="st13" d="M752.1,388.5c1.9,0,3.5-1.6,3.5-3.5c0-1.9-1.6-3.5-3.5-3.5c-1.9,0-3.5,1.6-3.5,3.5
			C748.5,386.9,750.1,388.5,752.1,388.5L752.1,388.5z"/>
		<path class="st13" d="M772.2,389c0.7,0,1.3-0.6,1.3-1.3s-0.6-1.3-1.3-1.3c-0.7,0-1.3,0.6-1.3,1.3S771.4,389,772.2,389L772.2,389z"
			/>
		<path class="st40" d="M766.4,403.5l1,1.7c0.8,1.3,0.3,3.1-1,3.8l0,0c-1.3,0.8-3.1,0.3-3.8-1l-2.7-4.6H766.4z"/>
		<polygon class="st41" points="769,406.7 787.2,397.4 788.7,400.2 770.4,409.6 		"/>
	</g>
	<g>
		<path class="st33" d="M546.1,304.3c-0.3-0.8,0-2-0.3-2.8c-1.6-3.8-7-8.6-12.4-6.9c-12.7,4.1-4.4,23.7-11.6,33.3
			c13.6,0.5,11.6-29.8,20-23.6C543.2,304.3,544.6,304.3,546.1,304.3L546.1,304.3z"/>
		<path class="st34" d="M563.8,304.3c0.3-0.8,0-2,0.3-2.8c1.6-3.8,7-8.6,12.4-6.9c12.7,4.1,4.4,23.7,11.6,33.3
			c-13.6,0.5-11.6-29.8-20-23.6C566.7,304.3,565.3,304.3,563.8,304.3L563.8,304.3z"/>
		<path class="st33" d="M554.9,332c25,0,20.7-34.6,0-34.6C534.3,297.4,529.9,332,554.9,332L554.9,332z"/>
		<path class="st34" d="M554.9,332c25,0,20.7-34.6,0-34.6V332z"/>
		<path class="st12" d="M554.9,342.7c2.6,0,4.7-2.1,4.7-4.7c0-2.6-2.1-4.7-4.7-4.7c-2.6,0-4.7,2.1-4.7,4.7
			C550.2,340.6,552.4,342.7,554.9,342.7L554.9,342.7z"/>
		<path class="st8" d="M554.9,333.4c2.6,0,4.7,2.1,4.7,4.7c0,2.6-2.1,4.7-4.7,4.7V333.4z"/>
		<path class="st8" d="M498.1,347.7L498.1,347.7l-2.8-1.4l-0.5-0.3l-2.8-1.4c-0.4-0.2-0.8,0-1,0.3l0,0c-0.2,0.4,0,0.8,0.3,1l2.8,1.4
			l0.5,0.3l2.8,1.4c0.1,0,0.1,0.2,0.1,0.3l0,0c0,0.1-0.1,0.1-0.2,0.1l0,0l-2.3-1.1l-0.5-0.3l-2.3-1.1c-0.4-0.2-0.8,0-1,0.3l0,0
			c-0.2,0.4,0,0.8,0.3,1l2.3,1.1l0.5,0.3l2.3,1.1c0.1,0,0.1,0.2,0.1,0.2l0,0c-0.1,0.1-0.2,0.1-0.2,0.1h0l-2.8-1.4
			c-0.4-0.2-0.8,0-1,0.3l0,0c-0.2,0.4,0,0.8,0.3,1l2.8,1.4c2.4,1.2,3.4,1.7,5.4,1.8l2.8-5.7l0.2-0.3c-0.9-0.4-1.3-2.5-2.4-3.1
			c0,0,0,0,0,0l-0.4-0.2l-2.4-1.2c-0.9-0.4-1.5,1.1,0.6,2.2l1.1,0.5l0.4,0.2l0.1,0c0.1,0,0.1,0.1,0.1,0.2l0,0c0,0.1-0.2,0.1-0.2,0.1
			l-1.9-1l-2.3-1.1l-0.5-0.3l-2.3-1.1c-0.4-0.2-0.8,0-1,0.3l0,0c-0.2,0.4,0,0.8,0.3,1l2.3,1.1l0.5,0.3l2.3,1.1
			c0.1,0,0.1,0.1,0.1,0.2l0,0C498.3,347.7,498.2,347.7,498.1,347.7L498.1,347.7z"/>
		<path class="st8" d="M554.9,378.1c-3.8,0-7.6,0-11.4,0c-6.8,14.5,0.7,44.6,0.7,73.1v4.2h5.5c2.7-29.6-2.4-64.5,5.2-64.5V378.1z"/>
		<path class="st13" d="M544.2,455.3h5.5v6.2h-14.8C534.9,459.5,538,455.3,544.2,455.3L544.2,455.3z"/>
		<rect x="550.2" y="329.4" class="st12" width="4.7" height="8.7"/>
		<rect x="554.9" y="329.4" class="st8" width="4.7" height="8.7"/>
		<path class="st12" d="M554.9,302.4c21.1,0,14.9,31.8,0,31.8S533.8,302.4,554.9,302.4L554.9,302.4z"/>
		<path class="st8" d="M554.9,302.4c21.1,0,14.9,31.8,0,31.8v-12l-4.2-1.6l4.2-2.3V302.4z"/>
		<path class="st13" d="M546.6,316.7c0.6,0,1.1-0.5,1.1-1.1c0-0.6-0.5-1.1-1.1-1.1c-0.6,0-1.1,0.5-1.1,1.1
			C545.4,316.2,545.9,316.7,546.6,316.7L546.6,316.7z"/>
		<path class="st13" d="M563.3,316.7c0.6,0,1.1-0.5,1.1-1.1c0-0.6-0.5-1.1-1.1-1.1c-0.6,0-1.1,0.5-1.1,1.1
			C562.2,316.2,562.7,316.7,563.3,316.7L563.3,316.7z"/>
		<path class="st7" d="M561.5,324.9c-0.8,2.4-3.4,4.1-6.5,4.1c-3.1,0-5.7-1.7-6.5-4.1H561.5z"/>
		<path class="st8" d="M554.9,378.1c3.8,0,7.6,0,11.4,0c6.9,14.5-0.7,44.6-0.7,73.1v4.2h-5.5c-2.7-29.6,2.4-64.5-5.2-64.5V378.1z"/>
		<path class="st21" d="M565.7,455.3h-5.5v6.2h14.8C574.9,459.5,571.9,455.3,565.7,455.3L565.7,455.3z"/>
		<path class="st33" d="M554.9,301.1c5.5,0,9.5,1.8,12.2,4.6l-28.7,10C539.2,307.8,544.2,301.1,554.9,301.1L554.9,301.1z"/>
		<path class="st34" d="M554.9,301.1c5.5,0,9.5,1.8,12.2,4.6l-12.2,4.3V301.1z"/>
		<path class="st42" d="M550.6,426.2h-7.7c0.7,8.2,1.4,16.6,1.4,25v4.2h-0.1c-3.6,0-6.2,1.4-7.7,3c1.1,0.2,2.4,0.3,3.7,0.3
			c5.2,0,9.5-1.5,9.5-3.2C550.6,445.7,550.6,435.5,550.6,426.2z"/>
		<path class="st42" d="M565.7,455.3L565.7,455.3l0-4.2c0-8.3,0.6-16.8,1.4-25h-7.7c-0.1,9.4,0,19.5,0.9,29.2c0,1.8,4.2,3.2,9.5,3.2
			c1.3,0,2.6-0.1,3.7-0.3C571.8,456.7,569.3,455.3,565.7,455.3z"/>
		<path class="st42" d="M566.3,378.1c-3.8,0-7.6,0-11.4,0c-3.8,0-7.6,0-11.4,0c-6.2,9-4.2,21-15.2,26.4c6.5,3.1,17.8,3.2,26.6,3.2
			c8.8,0,20.2-0.1,26.6-3.2C570.5,399.1,572.5,387.1,566.3,378.1z"/>
		<path class="st9" d="M605.2,361.1c-1.1-2.2-1.9-3.8-3-6c-27,12.3-21.6-17.1-42.6-17.1c-1.6,0-3.1,0-4.7,0c-1.6,0-3.1,0-4.7,0
			c-16.6,0-17.9,24.1-46.1,10.1c-1.1,2.2-1.9,3.8-3,6c19.5,10.3,28.9,7.6,44.1-2.1c0.2,10.8,0.6,19.5-1.7,26c3.8,0,7.6,0,11.4,0
			c3.8,0,7.6,0,11.4,0c-2.3-6.5-1.9-15.1-1.7-26C579.8,361.8,578,372.3,605.2,361.1z"/>
		<path class="st8" d="M608.2,354.6L608.2,354.6l2.8-1.4l0.5-0.3l2.8-1.4c0.4-0.2,0.8,0,1,0.3l0,0c0.2,0.4,0,0.8-0.3,1l-2.8,1.4
			l-0.5,0.3l-2.8,1.4c-0.1,0-0.1,0.1-0.1,0.2l0,0c0,0.1,0.1,0.1,0.2,0.1l0,0l2.3-1.1l0.5-0.3l2.3-1.1c0.4-0.2,0.8,0,1,0.3l0,0
			c0.2,0.4,0,0.8-0.3,1l-2.3,1.1l-0.5,0.3l-2.3,1.1c-0.1,0.1-0.1,0.2-0.1,0.3l0,0c0,0.1,0.1,0.1,0.2,0.1l0,0l2.8-1.4
			c0.4-0.2,0.8,0,1,0.3l0,0c0.2,0.4,0,0.8-0.3,1l-2.8,1.4c-2.4,1.2-3.4,1.7-5.4,1.8l-2.8-5.7l-0.2-0.3c0.9-0.4,1.3-2.5,2.4-3.1
			c0,0,0,0,0,0l0.4-0.2l2.4-1.2c0.9-0.5,1.5,1.1-0.6,2.2l-1.1,0.5l-0.4,0.2l-0.1,0c-0.1,0.1-0.1,0.2-0.1,0.3l0,0
			c0,0.1,0.2,0.1,0.2,0.1l1.9-1l2.3-1.1l0.5-0.3l2.3-1.1c0.4-0.2,0.8,0,1,0.3l0,0c0.2,0.4,0,0.8-0.3,1l-2.3,1.1l-0.5,0.3l-2.3,1.1
			c-0.1,0-0.1,0.2-0.1,0.2l0,0C608,354.6,608.1,354.7,608.2,354.6L608.2,354.6z"/>
	</g>
	<g>
		<rect x="186.8" y="246.1" class="st12" width="7.4" height="15.1"/>
		<rect x="194.3" y="246.1" class="st8" width="7.4" height="15.1"/>
		<path class="st10" d="M194.3,195.4c29.8,0,21,51.7,0,51.7C173.3,247,164.4,195.4,194.3,195.4L194.3,195.4z"/>
		<path class="st11" d="M194.3,195.4c29.8,0,21,51.7,0,51.7V195.4z"/>
		<path class="st8" d="M176.7,228.4c1.8,0,3.3-1.5,3.3-3.3c0-1.8-1.5-3.3-3.3-3.3c-1.8,0-3.3,1.5-3.3,3.3
			C173.4,226.9,174.9,228.4,176.7,228.4L176.7,228.4z"/>
		<path class="st8" d="M211.7,228.4c1.8,0,3.3-1.5,3.3-3.3c0-1.8-1.5-3.3-3.3-3.3c-1.8,0-3.3,1.5-3.3,3.3
			C208.4,226.9,209.9,228.4,211.7,228.4L211.7,228.4z"/>
		<path class="st12" d="M194.3,251.1c-16.2,0-17.9-4.3-17.9-11.3c0-13.5-1.3-36.7,17.9-36.4c19.2-0.3,17.9,23,17.9,36.4
			C212.1,246.8,210.5,251.1,194.3,251.1L194.3,251.1z"/>
		<path class="st8" d="M194.3,203.4c19.2-0.3,17.9,23,17.9,36.4c0,7-1.7,11.3-17.9,11.3v-16.7l-5.8-1.5l5.8-7.7V203.4z"/>
		<path class="st13" d="M183.4,225.3c0.8,0,1.5-0.7,1.5-1.5c0-0.8-0.7-1.5-1.5-1.5c-0.8,0-1.5,0.7-1.5,1.5
			C182,224.7,182.6,225.3,183.4,225.3L183.4,225.3z"/>
		<path class="st13" d="M205.1,225.3c0.8,0,1.5-0.7,1.5-1.5c0-0.8-0.7-1.5-1.5-1.5c-0.8,0-1.5,0.7-1.5,1.5
			C203.6,224.7,204.3,225.3,205.1,225.3L205.1,225.3z"/>
		<path class="st43" d="M223,350.6c-9.6,0-19.2,0-28.8,0c-9.6,0-19.2,0-28.8,0c-1.8,34.8-1.8,66,1.2,94.9c8.2,0,12.9,0,21.1,0
			c0.3-20.9-8.1-75.3,6.5-75.3c14.6,0,6.2,54.4,6.5,75.3c8.2,0,12.9,0,21.1,0C224.9,416.5,224.8,385.3,223,350.6z"/>
		<path class="st44" d="M200.9,261.1c-2.2,0-4.5,0-6.7,0c-2.2,0-4.5,0-6.7,0c-47.6,0-84.1,50.9-34.7,81.2c2.2-3,4.5-7.6,5.8-11.7
			c-21.4-17.9-15.2-36.4,3.3-45.5l3.5,65.5h28.8H223l3.5-65.5c18.5,9.1,24.7,27.7,3.3,45.5c0.6,2.8,2.7,7.5,5.8,11.7
			C285,312.1,248.6,261.1,200.9,261.1z"/>
		<polygon class="st45" points="194.3,340.8 165,340.8 165.5,350.6 194.3,350.6 223,350.6 223.5,340.8 		"/>
		<path class="st8" d="M222,339.4L222,339.4l-5.4,2.7l-1,0.5l-5.4,2.7c-0.7,0.4-1,1.2-0.6,1.9l0,0c0.4,0.7,1.2,1,2,0.7l5.4-2.7
			l1-0.5l5.4-2.7c0.2-0.1,0.4,0,0.5,0.2l0,0c0.1,0.2,0,0.4-0.1,0.5l0,0l-4.4,2.2l-1,0.5l-4.4,2.2c-0.7,0.4-1,1.2-0.6,2l0,0
			c0.4,0.7,1.2,1,2,0.7l4.4-2.2l1-0.5l4.4-2.2c0.2-0.1,0.4,0,0.5,0.2l0,0c0.1,0.2,0,0.4-0.1,0.5h0l-5.4,2.7c-0.7,0.4-1,1.2-0.6,2
			l0,0c0.4,0.7,1.2,1,2,0.7l5.4-2.7c4.7-2.4,6.6-3.3,9.1-6.2l-5.5-11l-0.3-0.6c-1.7,0.8-5.4-0.9-7.6,0.2c0,0,0,0,0,0l-0.7,0.4
			l-4.7,2.3c-1.7,0.9-0.1,3.7,4.1,1.6l2.1-1.1l0.7-0.4l0.2-0.1c0.2-0.1,0.4,0,0.5,0.2l0,0c0.1,0.2,0,0.4-0.2,0.5l-3.7,1.8l-4.4,2.2
			l-1,0.5l-4.4,2.2c-0.7,0.4-1,1.2-0.6,2l0,0c0.4,0.7,1.2,1,2,0.6l4.4-2.2l1-0.5l4.4-2.2c0.2-0.1,0.4,0,0.5,0.2l0,0
			C222.2,339.1,222.2,339.3,222,339.4L222,339.4z"/>
		<path class="st12" d="M194.3,268.6c4.1,0,7.4-3.4,7.4-7.4c0-4.1-3.4-7.4-7.4-7.4c-4.1,0-7.4,3.3-7.4,7.4
			C186.8,265.2,190.2,268.6,194.3,268.6L194.3,268.6z"/>
		<path class="st8" d="M194.3,253.7c4.1,0,7.4,3.3,7.4,7.4c0,4.1-3.3,7.4-7.4,7.4V253.7z"/>
		<path class="st46" d="M166.7,445.4h15.6v12.5h-34.3C148.1,451.1,159.8,445.4,166.7,445.4L166.7,445.4z"/>
		<path class="st46" d="M221.8,445.4h-15.6v12.5h34.3C240.4,451.1,228.7,445.4,221.8,445.4L221.8,445.4z"/>
		<path class="st8" d="M166.5,339.4L166.5,339.4l5.4,2.7l1,0.5l5.4,2.7c0.7,0.4,1,1.2,0.6,1.9l0,0c-0.4,0.7-1.2,1-1.9,0.7l-5.4-2.7
			l-1-0.5l-5.4-2.7c-0.2-0.1-0.4,0-0.5,0.2l0,0c-0.1,0.2,0,0.4,0.1,0.5l0,0l4.4,2.2l1,0.5l4.4,2.2c0.7,0.4,1,1.2,0.6,2l0,0
			c-0.4,0.7-1.2,1-2,0.7l-4.4-2.2l-1-0.5l-4.4-2.2c-0.2-0.1-0.4,0-0.5,0.2l0,0c-0.1,0.2,0,0.4,0.1,0.5h0l5.4,2.7
			c0.7,0.4,1,1.2,0.6,2l0,0c-0.4,0.7-1.2,1-2,0.7l-5.4-2.7c-4.7-2.4-6.6-3.3-9.1-6.2l5.5-11l0.3-0.6c1.7,0.8,5.4-0.9,7.6,0.2
			c0,0,0,0,0,0l0.7,0.4l4.7,2.3c1.7,0.9,0.1,3.7-4.1,1.6l-2.1-1.1l-0.7-0.4l-0.2-0.1c-0.2-0.1-0.4,0-0.5,0.2l0,0
			c-0.1,0.2,0,0.4,0.2,0.5l3.7,1.8l4.4,2.2l1,0.5l4.4,2.2c0.7,0.4,1,1.2,0.6,2l0,0c-0.4,0.7-1.2,1-2,0.6l-4.4-2.2l-1-0.5l-4.4-2.2
			c-0.2-0.1-0.4,0-0.5,0.2l0,0C166.3,339.1,166.3,339.3,166.5,339.4L166.5,339.4z"/>
		<rect x="206.2" y="457.9" class="st47" width="34.3" height="3.6"/>
		<rect x="148.1" y="457.9" class="st47" width="34.3" height="3.6"/>
		<polygon class="st48" points="186.8,258.2 194.3,268.6 187,276.2 180.9,261.5 		"/>
		<polygon class="st7" points="201.7,258.2 194.3,268.6 201.5,276.2 207.6,261.5 		"/>
		<path class="st10" d="M194.3,265.8c-14.6,0-17.8-12.9-17.9-24.8c4.5-2.6,10.8-4.2,17.9-4.2c7,0,13.4,1.6,17.9,4.2
			C212.1,252.9,208.8,265.8,194.3,265.8L194.3,265.8z"/>
		<path class="st11" d="M212.1,241.1L212.1,241.1L212.1,241.1L212.1,241.1L212.1,241.1L212.1,241.1v0.1v0v0v0v0v0v0v0v0v0v0v0v0v0v0
			v0v0v0v0v0v0v0v0v0v0v0l0,0v0v0v0v0v0v0c0,11.7-3.8,24-17.9,24v-29C201.3,236.8,207.6,238.5,212.1,241.1L212.1,241.1z"/>
		<path class="st7" d="M201.8,239c-1,3.6-3.9,6.2-7.5,6.2c-3.6,0-6.6-2.6-7.5-6.2H201.8z"/>
		<path class="st49" d="M179.5,230.1c-4.5,3.2-3.1,6.6-0.5,7.4c2.6,0.9,8-1.5,11.4-3c1.5-0.7,2.9-0.6,3.9-0.1
			c1.1-0.5,2.4-0.6,3.9,0.1c3.3,1.5,8.8,3.9,11.4,3c2.6-0.9,3.9-4.2-0.5-7.4c11.8,5.1,0.5,19.2-13.5,12.4c-0.5-0.2-0.8-0.5-1.2-0.7
			c-0.4,0.3-0.8,0.5-1.2,0.7C179,249.3,167.7,235.2,179.5,230.1L179.5,230.1z"/>
	</g>
	<g>
		<path class="st8" d="M338.1,343.3L338.1,343.3l3.4-1.7l0.6-0.3l3.4-1.7c0.5-0.2,1,0,1.2,0.4l0,0c0.2,0.4,0,1-0.4,1.2l-3.4,1.7
			l-0.6,0.3l-3.4,1.7c-0.1,0.1-0.2,0.2-0.1,0.3l0,0c0.1,0.1,0.2,0.1,0.3,0.1l0,0l2.8-1.4l0.6-0.3l2.8-1.4c0.5-0.2,1,0,1.2,0.4l0,0
			c0.2,0.5,0,1-0.4,1.2l-2.8,1.4l-0.6,0.3l-2.8,1.4c-0.1,0.1-0.2,0.2-0.1,0.3l0,0c0.1,0.1,0.2,0.1,0.3,0.1h0l3.4-1.7
			c0.5-0.2,1,0,1.2,0.4l0,0c0.2,0.5,0,1-0.4,1.2L341,349c-3,1.5-4.2,2.1-6.5,2.2l-3.5-6.9l-0.2-0.4c1-0.5,1.6-3.1,3-3.8c0,0,0,0,0,0
			l0.5-0.2l2.9-1.5c1.1-0.5,1.9,1.4-0.7,2.7l-1.3,0.7l-0.5,0.2l-0.1,0.1c-0.1,0.1-0.2,0.2-0.1,0.3l0,0c0.1,0.1,0.2,0.2,0.3,0.1
			l2.3-1.2l2.8-1.4l0.6-0.3l2.8-1.4c0.5-0.2,1,0,1.2,0.4l0,0c0.2,0.5,0,1-0.4,1.2l-2.8,1.4l-0.6,0.3l-2.8,1.4
			c-0.1,0.1-0.2,0.2-0.1,0.3l0,0C337.9,343.3,338,343.3,338.1,343.3L338.1,343.3z"/>
		<path class="st50" d="M330.8,343.9c-7.6,3-9.7,5-16.3,4c-6.4-0.9-5.4-12.6-28.4-12.6c-1.4,0-2.8,0-4.2,0c-1.4,0-2.8,0-4.2,0
			c-23,0-22,11.7-28.4,12.6c-6.6,0.9-8.8-1.1-16.3-4c-1,2-2.7,5.4-3.7,7.3c5.9,5.9,17.5,8.6,25.3,4.8c2.9-1.4,5.2-2.6,7.1-3.7
			l2.1,39.2h18.1H300l2.1-39.2c1.9,1,4.2,2.2,7.1,3.7c7.7,3.8,19.3,1.1,25.3-4.8C333.4,349.2,331.8,345.9,330.8,343.9z"/>
		<path class="st8" d="M225.6,343.3L225.6,343.3l-3.4-1.7l-0.6-0.3l-3.4-1.7c-0.5-0.2-1,0-1.2,0.4l0,0c-0.2,0.4,0,1,0.4,1.2l3.4,1.7
			l0.6,0.3l3.4,1.7c0.1,0.1,0.2,0.2,0.1,0.3l0,0c-0.1,0.1-0.2,0.1-0.3,0.1h0l-2.8-1.4l-0.6-0.3l-2.8-1.4c-0.5-0.2-1,0-1.2,0.4l0,0
			c-0.2,0.5,0,1,0.4,1.2l2.8,1.4l0.6,0.3l2.8,1.4c0.1,0.1,0.1,0.2,0.1,0.3l0,0c-0.1,0.1-0.2,0.1-0.3,0.1l0,0l-3.4-1.7
			c-0.5-0.2-1,0-1.2,0.4l0,0c-0.2,0.5,0,1,0.4,1.2l3.4,1.7c3,1.5,4.2,2.1,6.5,2.2l3.5-6.9l0.2-0.4c-1-0.5-1.6-3.1-3-3.8c0,0,0,0,0,0
			l-0.5-0.2l-2.9-1.5c-1.1-0.5-1.9,1.4,0.7,2.7l1.3,0.7l0.5,0.2l0.1,0.1c0.1,0.1,0.2,0.2,0.1,0.3l0,0c-0.1,0.1-0.2,0.2-0.3,0.1
			l-2.3-1.2l-2.8-1.4l-0.6-0.3l-2.8-1.4c-0.5-0.2-1,0-1.2,0.4l0,0c-0.2,0.5,0,1,0.4,1.2l2.8,1.4l0.6,0.3l2.8,1.4
			c0.1,0.1,0.1,0.2,0.1,0.3l0,0C225.9,343.3,225.8,343.3,225.6,343.3L225.6,343.3z"/>
		<polygon class="st14" points="236.8,345.1 233,343.9 229.3,351.2 232,354.2 		"/>
		<rect x="277.2" y="326.6" class="st12" width="4.7" height="8.7"/>
		<rect x="281.9" y="326.6" class="st8" width="4.7" height="8.7"/>
		<path class="st33" d="M281.9,286.6c26.6,0,18.7,40,0,40C263.2,326.6,255.3,286.6,281.9,286.6L281.9,286.6z"/>
		<path class="st34" d="M281.9,286.6c26.6,0,18.7,40,0,40V286.6z"/>
		<path class="st8" d="M267.3,314.6c1.7,0,3.2-1.4,3.2-3.2c0-1.7-1.4-3.2-3.2-3.2c-1.7,0-3.2,1.4-3.2,3.2
			C264.2,313.2,265.6,314.6,267.3,314.6L267.3,314.6z"/>
		<path class="st8" d="M296.4,314.6c1.7,0,3.2-1.4,3.2-3.2c0-1.7-1.4-3.2-3.2-3.2c-1.7,0-3.2,1.4-3.2,3.2
			C293.3,313.2,294.7,314.6,296.4,314.6L296.4,314.6z"/>
		<path class="st12" d="M281.9,295c22.7,0,16,34.2,0,34.2C265.9,329.3,259.2,295,281.9,295L281.9,295z"/>
		<path class="st8" d="M281.9,295c22.7,0,16,34.2,0,34.2v-12.9l-4.5-1.7l4.5-2.5V295z"/>
		<path class="st7" d="M289,319.3c-0.9,3.4-3.7,5.8-7.1,5.8c-3.4,0-6.2-2.5-7.1-5.8H289z"/>
		<path class="st13" d="M272.9,310.4c0.7,0,1.2-0.5,1.2-1.2c0-0.7-0.6-1.2-1.2-1.2c-0.7,0-1.2,0.6-1.2,1.2
			C271.7,309.8,272.2,310.4,272.9,310.4L272.9,310.4z"/>
		<path class="st13" d="M290.9,310.4c0.7,0,1.2-0.5,1.2-1.2c0-0.7-0.5-1.2-1.2-1.2c-0.7,0-1.2,0.6-1.2,1.2
			C289.6,309.8,290.2,310.4,290.9,310.4L290.9,310.4z"/>
		<path class="st33" d="M281.9,294.4c6.5,0,10.8,2.6,13.2,6.5c-4.8,2.4-11.5,1.3-16.7,4.4c0.5-2.6,4.4-4.2,3.5-6.7
			c-2.6,4.3-10.2,3.1-12.9,6.9c-0.2-2.4,3.1-4.1,1.2-6.6C272.8,296.2,276.6,294.4,281.9,294.4L281.9,294.4z"/>
		<path class="st34" d="M281.9,294.4c6.5,0,10.8,2.6,13.2,6.5c-3.8,1.9-8.7,1.6-13.2,2.9v-3.8c0.2-0.5,0.2-0.9,0-1.5V294.4z"/>
		<path class="st12" d="M281.9,340c2.6,0,4.7-2.1,4.7-4.7c0-2.6-2.1-4.7-4.7-4.7c-2.6,0-4.7,2.1-4.7,4.7
			C277.2,337.9,279.3,340,281.9,340L281.9,340z"/>
		<path class="st8" d="M281.9,330.6c2.6,0,4.7,2.1,4.7,4.7c0,2.6-2.1,4.7-4.7,4.7V330.6z"/>
		<path class="st51" d="M264.5,451.4h9.9v7.9h-21.6C252.8,454.9,260.2,451.4,264.5,451.4L264.5,451.4z"/>
		<path class="st52" d="M256,454.4c0.2-0.2,0.5-0.3,0.8-0.5l1.8,2.4c0.2,0.2,0.1,0.5-0.1,0.6l0,0c-0.2,0.2-0.5,0.1-0.6-0.1
			L256,454.4z M258.1,453.1c0.3-0.1,0.6-0.3,0.8-0.4l1.9,2.5c0.2,0.2,0.1,0.5-0.1,0.6l0,0c-0.2,0.1-0.5,0.1-0.6-0.1L258.1,453.1z
			 M260.5,452.1c0.3-0.1,0.6-0.2,0.9-0.3l1.8,2.3c0.1,0.2,0.1,0.5-0.1,0.6l0,0c-0.2,0.2-0.5,0.1-0.6-0.1L260.5,452.1z"/>
		<path class="st53" d="M300,391.6c-6,0-12.1,0-18.1,0c-6,0-12.1,0-18.1,0c-1.1,21.9,0.2,41.5,2.1,59.7c5.2,0,3.4,0,8.6,0
			c0.2-13.2-1.7-47.4,7.5-47.4c9.2,0,7.3,34.3,7.5,47.4c5.2,0,3.4,0,8.6,0C299.8,433.2,301.1,413.5,300,391.6z"/>
		<rect x="252.8" y="459.3" class="st52" width="21.6" height="2.3"/>
		<path class="st51" d="M299.2,451.4h-9.9v7.9H311C311,454.9,303.6,451.4,299.2,451.4L299.2,451.4z"/>
		<path class="st52" d="M307.8,454.4c-0.2-0.2-0.5-0.3-0.8-0.5l-1.8,2.4c-0.1,0.2-0.1,0.5,0.1,0.6l0,0c0.2,0.2,0.5,0.1,0.6-0.1
			L307.8,454.4z M305.6,453.1c-0.3-0.1-0.6-0.3-0.8-0.4l-1.9,2.5c-0.2,0.2-0.1,0.5,0.1,0.6l0,0c0.2,0.1,0.5,0.1,0.6-0.1L305.6,453.1
			z M303.2,452.1c-0.3-0.1-0.6-0.2-0.9-0.3l-1.7,2.3c-0.2,0.2-0.1,0.5,0.1,0.6l0,0c0.2,0.2,0.5,0.1,0.6-0.1L303.2,452.1z"/>
		<rect x="289.4" y="459.3" class="st52" width="21.6" height="2.3"/>
		<polygon class="st14" points="277.5,343.2 281.9,340 277.2,333.7 273.8,335.4 		"/>
		<polygon class="st7" points="286.2,343.2 281.9,340 286.6,333.7 290,335.4 		"/>
		<path class="st53" d="M297.5,336.6c-2.1-0.6-4.6-1-7.5-1.2l-8.1,21.7l-8.1-21.7c-2.9,0.2-5.4,0.6-7.5,1.2l-4.6,15.8l1.7,33h18.4
			h18.5l1.7-33L297.5,336.6z"/>
		<polygon class="st7" points="327,345.1 330.8,343.9 334.4,351.2 331.8,354.2 		"/>
	</g>
</g>
</svg>
